<?xml version="1.0" standalone="no"?>
<!DOCTYPE svg PUBLIC "-//W3C//DTD SVG 1.1//EN" "http://www.w3.org/Graphics/SVG/1.1/DTD/svg11.dtd" >
<svg>
<metadata>
Created by FontForge 20090914 at Thu Dec 23 00:08:10 2021
 By www-data
&#194;&#169; 2021 GGBot
</metadata>
<defs>
<font id="Lambda-Italic" horiz-adv-x="960" >
  <font-face 
    font-family="Lambda"
    font-weight="400"
    font-style="italic"
    font-stretch="normal"
    units-per-em="2048"
    panose-1="2 11 6 0 0 0 0 0 0 0"
    ascent="1638"
    descent="-410"
    x-height="960"
    cap-height="1344"
    bbox="-105 -394 1657 1872"
    underline-thickness="150"
    underline-position="-142"
    slope="-11"
    unicode-range="U+001D-U+27E9"
  />
<missing-glyph 
d="M512 1152l-187 -960h384l187 960h-384zM96 0l261 1344h768l-261 -1344h-768z" />
    <glyph glyph-name=".notdef" 
d="M512 1152l-187 -960h384l187 960h-384zM96 0l261 1344h768l-261 -1344h-768z" />
    <glyph glyph-name=".notdef" 
d="M512 1152l-187 -960h384l187 960h-384zM96 0l261 1344h768l-261 -1344h-768z" />
    <glyph glyph-name="space" unicode=" " 
 />
    <glyph glyph-name="space" unicode="&#xa0;" 
 />
    <glyph glyph-name="exclam" unicode="!" horiz-adv-x="384" 
d="M288 0h-192l37 192h192zM357 1344h192l-112 -576l-122 -384h-96l26 384z" />
    <glyph glyph-name="quotedbl" unicode="&#x22;" horiz-adv-x="672" 
d="M357 1344h192l-37 -192l-85 -192h-96l-11 192zM645 1344h192l-37 -192l-85 -192h-96l-11 192z" />
    <glyph glyph-name="numbersign" unicode="#" 
d="M602 480l158 384h-141l-158 -384h141zM1032 864h-125l-158 -384h112l-37 -192h-153l-117 -288h-148l118 288h-141l-117 -288h-148l118 288h-84l37 192h125l158 384h-112l37 192h153l117 288h148l-118 -288h141l117 288h148l-118 -288h84z" />
    <glyph glyph-name="dollar" unicode="$" 
d="M582 774l75.001 381.998c-34.667 -8 -67.334 -24.667 -98.001 -50c-44.667 -37.333 -72 -82.666 -82 -135.999c-3.33301 -17.333 -5 -33.666 -5 -48.999c0 -38 10.667 -70.333 32 -97c20.667 -25.333 46.667 -42 78 -50zM564.001 187.998
c34.667 8 67.332 24.667 97.999 50c44.667 37.333 72.334 82.666 83.001 135.999c3.33301 16.667 5 32.334 5 47.001c0 38.667 -11 71.667 -33 99c-20.667 25.333 -46.667 42 -78 50zM676.999 764.998c50.667 -6 95.665 -22.3369 134.998 -49.0039
c51.333 -34.667 88.666 -81 111.999 -139c14 -35.333 21 -74.666 21 -117.999c0 -26.667 -2.66699 -55 -8 -85c-14 -70.667 -44 -135 -90 -193s-101.333 -104.333 -166 -139c-49.333 -26.667 -100.666 -43 -153.999 -49l-36 -185h-96l36 185
c-51.333 6 -96.666 22.333 -135.999 49c-51.333 34.667 -88.666 81 -111.999 139c-14 35.333 -21 74 -21 116c0 27.333 3 56.333 9 87h192c-3.33301 -17.333 -5 -33.666 -5 -48.999c0 -38 10.667 -70.333 32 -97c20.667 -25.333 46.667 -42 78 -50l76 391
c-50.667 6 -95.667 22.333 -135 49c-51.333 34.667 -88.666 81 -111.999 139c-14 35.333 -21 74 -21 116c0 27.333 3 56.333 9 87c13.333 70.667 43 135 89 193s101 104.333 165 139c50 26 102 42.333 156 49l36 185h96l-36 -185c50.667 -6 95.667 -22.333 135 -49
c51.333 -34.667 88.666 -81 111.999 -139c14 -35.333 21 -74.666 21 -117.999c0 -26.667 -2.66699 -55 -8 -85h-192c3.33301 16.667 5 32.334 5 47.001c0 38.667 -11 71.667 -33 99c-20.667 25.333 -46.667 42 -78 50z" />
    <glyph glyph-name="percent" unicode="%" 
d="M523 1208c-6.66699 -4 -16.667 -14.666 -30 -31.999c-22.667 -32.667 -38 -69.334 -46 -110.001c-4.66699 -22.667 -7 -43.667 -7 -63c0 -21.333 2.66699 -40.333 8 -57c6.66699 -17.333 12.667 -28 18 -32c6.66699 4 16.667 14.667 30 32
c22 32.667 37.667 72.667 47 120c4 18.667 6 36.667 6 54c0 20 -2.66699 38.667 -8 56c-6.66699 17.333 -12.667 28 -18 32zM756 430.001c-7.33301 -4 -17.666 -14.668 -30.999 -32.001c-22 -32.667 -37.667 -72.667 -47 -120c-3.33301 -18 -5 -35.333 -5 -52
c0 -20.667 2.66699 -40 8 -58c6.66699 -17.333 12.334 -28 17.001 -32c7.33301 4 17.666 14.667 30.999 32c22 32.667 37 69.334 45 110.001c4.66699 22.667 7 43.667 7 63c0 21.333 -2.66699 40.333 -8 57c-6.66699 17.333 -12.334 28 -17.001 32zM551 1354
c53.333 0 93.334 -27.999 120.001 -83.999c16.667 -35.333 25 -75.333 25 -120c0 -26.667 -3 -54.667 -9 -84c-16.667 -86 -49.167 -157.167 -97.5 -213.5s-99.166 -84.5 -152.499 -84.5s-93 28.333 -119 85c-16.667 34.667 -25 74.667 -25 120
c0 28.667 3.33301 59.667 10 93c15.333 79.333 47.166 147.166 95.499 203.499s99.166 84.5 152.499 84.5zM951.001 1344h156l-837 -1344h-156zM784.001 576.001c53.333 0 93.332 -28.002 119.999 -84.002c16 -34.667 24 -74.667 24 -120
c0 -29.333 -3.33301 -60.666 -10 -93.999c-15.333 -79.333 -47.166 -147.166 -95.499 -203.499s-99.166 -84.5 -152.499 -84.5s-93.333 28.333 -120 85c-16.667 35.333 -25 75.333 -25 120c0 26 3 53.667 9 83c16.667 86 49.167 157.167 97.5 213.5
s99.166 84.5 152.499 84.5z" />
    <glyph glyph-name="ampersand" unicode="&#x26;" 
d="M655 1162c-13.333 0 -25.168 -1.33398 -35.501 -4.00098s-19.666 -10.834 -27.999 -24.501s-15.5 -36.834 -21.5 -69.501c-2.66699 -14.667 -4 -29 -4 -43c0 -14.667 2.33301 -32.167 7 -52.5s14 -45.166 28 -74.499c26 24 47.333 48.833 64 74.5s28.667 57.5 36 95.5
c4 22.667 6 40.667 6 54c0 6.66699 -0.833008 14.334 -2.5 23.001s-7.16699 14.334 -16.5 17.001s-20.333 4 -33 4zM629.998 249.999c6.66699 6.66699 13.334 14.665 20.001 23.998c-14 61.333 -32.5 119.666 -55.5 174.999s-47.5 106.333 -73.5 153
c-43.333 -35.333 -78.5 -70.833 -105.5 -106.5s-45.833 -81.167 -56.5 -136.5c-1.33301 -5.33301 -2 -11 -2 -17c0 -13.333 2.66699 -31.666 8 -54.999s19.666 -46.333 42.999 -69s58.333 -34.667 105 -36c4.66699 0 12.5 1.33301 23.5 4s24.5 8.83398 40.5 18.501
s33.667 24.834 53 45.501zM994.998 671.997c-30.667 -158 -76.0068 -289.999 -136.007 -395.999c6 -42.667 9 -87.667 9 -135c0 -44.667 -2.66699 -91.667 -8 -141h-193c2 22 3.66699 43.667 5 65c-44.667 -34.667 -84.167 -55.834 -118.5 -63.501
s-60.166 -11.5 -77.499 -11.5c-82.667 2 -148.667 22.5 -198 61.5s-82.666 87.167 -99.999 144.5c-11.333 36.667 -17 72.334 -17 107.001c0 19.333 1.66699 38 5 56c12.667 67.333 33 124.5 61 171.5s60 89 96 126s73 70.5 111 100.5c-25.333 48 -44 96 -56 144
c-6.66699 24.667 -10 51 -10 79c0 26.667 3 54.667 9 84c15.333 80.667 44 144 86 190c12.667 16 29.334 31.5 50.001 46.5s45.834 27.667 75.501 38s64.167 15.5 103.5 15.5c38.667 0 70.834 -5.16699 96.501 -15.5s45.834 -23 60.501 -38s26 -30.5 34 -46.5
c13.333 -27.333 20 -61 20 -101c0 -26.667 -3 -56.334 -9 -89.001c-10.667 -53.333 -26.334 -99 -47.001 -137s-44.667 -72.667 -72 -104s-56.666 -60.333 -87.999 -87c30.667 -52 60.334 -110 89.001 -174c9.33301 33.333 18 70 26 110h193z" />
    <glyph glyph-name="quotesingle" unicode="'" horiz-adv-x="384" 
d="M357 1344h192l-37 -192l-85 -192h-96l-11 192z" />
    <glyph glyph-name="parenleft" unicode="(" horiz-adv-x="576" 
d="M400 576c-13.333 -69.333 -20.666 -132.999 -21.999 -190.999v-17c0 -51.333 3 -100.833 9 -148.5s13 -93.834 21 -138.501c5.33301 -32 10 -63.667 14 -95c9.33301 -60 16.333 -119.333 21 -178h-199c-4.66699 38 -10 77 -16 117c-4 30 -8.66699 60.667 -14 92
c-8 49.333 -15.333 102 -22 158c-6 47.333 -9 98.333 -9 153c0 10 0.333008 34 1 72s8.66699 96.667 24 176s35.333 152 60 218s51.167 127 79.5 183s56.5 108.667 84.5 158l49 92l61 117h199c-27.333 -58.667 -57 -118 -89 -178c-16 -31.333 -33.333 -63 -52 -95
c-25.333 -44.667 -50.833 -92 -76.5 -142s-49.334 -104 -71.001 -162s-39.167 -121.667 -52.5 -191z" />
    <glyph glyph-name="parenright" unicode=")" horiz-adv-x="576" 
d="M400 576c13.333 69.333 20.666 133 21.999 191v17c0 52 -3 101.667 -9 149s-13 93.333 -21 138c-5.33301 32 -10 63.667 -14 95c-9.33301 60 -16.333 119.333 -21 178h199l15 -117l15 -92c8 -49.333 15.333 -102 22 -158c6 -47.333 9 -98.333 9 -153
c0 -10 -0.333008 -34 -1 -72s-8.66699 -96.667 -24 -176s-35.333 -152 -60 -218s-51.167 -127 -79.5 -183s-56.5 -108.667 -84.5 -158l-50 -92l-60 -117h-199c27.333 58.667 57 118 89 178c16 31.333 33.333 63 52 95c25.333 44.667 50.833 92 76.5 142
s49.334 104 71.001 162s39.167 121.667 52.5 191z" />
    <glyph glyph-name="asterisk" unicode="*" horiz-adv-x="576" 
d="M550 969l-54 102l-93 -102l-67 57l94 101l-112 39l47 91l112 -39l24 126h96l-24 -126l127 39l12 -91l-127 -39l54 -101z" />
    <glyph glyph-name="plus" unicode="+" horiz-adv-x="768" 
d="M363 384h-192l37 192h192l37 192h192l-37 -192h192l-37 -192h-192l-38 -192h-192z" />
    <glyph glyph-name="comma" unicode="," horiz-adv-x="384" 
d="M133 192l192 -0.00195312l-37 -192c-10.667 -53.333 -38.167 -98.666 -82.5 -135.999s-93.166 -56 -146.499 -56l18 96c26.667 0 51.167 9.33301 73.5 28s36.166 41.334 41.499 68.001h-96z" />
    <glyph glyph-name="hyphen" unicode="-" horiz-adv-x="768" 
d="M208 576h576l-37 -192h-576z" />
    <glyph glyph-name="period" unicode="." horiz-adv-x="384" 
d="M288 0h-192l37 192h192z" />
    <glyph glyph-name="slash" unicode="/" horiz-adv-x="768" 
d="M781 1344h200l-770 -1536h-200z" />
    <glyph glyph-name="zero" unicode="0" 
d="M745 374l115.998 596c2.66699 13.333 4 26 4 38c0 36.667 -13.167 71.5 -39.5 104.5s-66.166 49.5 -119.499 49.5s-102.333 -18.833 -147 -56.5s-72 -82.834 -82 -135.501l-116 -596c-2.66699 -14 -4 -27.333 -4 -40c0 -36 13 -70.333 39 -103s65.667 -49 119 -49
s102.333 18.833 147 56.5s72.334 82.834 83.001 135.501zM936.998 374c-14 -70.667 -44 -135.168 -90 -193.501s-101.333 -104.666 -166 -138.999s-132.334 -51.5 -203.001 -51.5s-131.667 17.167 -183 51.5s-88.666 80.5 -111.999 138.5c-14.667 36.667 -22 75.667 -22 117
c0 24.667 2.66699 50.334 8 77.001l116 596c13.333 70.667 43 135.167 89 193.5s101.333 104.666 166 138.999s132.334 51.5 203.001 51.5s131.667 -17.167 183 -51.5s88.666 -80.5 111.999 -138.5c14.667 -37.333 22 -77 22 -119c0 -24 -2.33301 -49 -7 -75z" />
    <glyph glyph-name="one" unicode="1" 
d="M576 0h-192l213 1097l-193 -135l-92 149l333 233h192z" />
    <glyph glyph-name="two" unicode="2" 
d="M325 192l575.997 0.00195312l-37 -192h-768l37 192c14.667 73.333 55 140.333 121 201l561 497c8.66699 7.33301 17.334 17 26.001 29s15.334 29 20.001 51c2.66699 13.333 4 26 4 38c0 36.667 -13.167 71.5 -39.5 104.5s-66.166 49.5 -119.499 49.5
s-102.333 -18.833 -147 -56.5s-72.667 -86.167 -84 -145.5h-192c14.667 77.333 45 145.166 91 203.499s101.333 104.666 166 138.999s132.334 51.5 203.001 51.5s131.667 -17.167 183 -51.5s88.666 -80.5 111.999 -138.5c14.667 -37.333 22 -77 22 -119
c0 -24 -2.33301 -49 -7 -75c-16 -80 -57.333 -150.333 -124 -211l-280 -249l-280 -247c-8.66699 -8 -17.167 -18 -25.5 -30s-14.5 -25.667 -18.5 -41z" />
    <glyph glyph-name="three" unicode="3" 
d="M865 671c32.667 -35.333 55.999 -77.6689 69.999 -127.002c7.33301 -26 11 -54 11 -84c0 -27.333 -3 -56 -9 -86c-14 -70.667 -44 -135.167 -90 -193.5s-101.333 -104.666 -166 -138.999s-132.334 -51.5 -203.001 -51.5s-131.667 17.167 -183 51.5
s-88.666 80.5 -111.999 138.5c-14 35.333 -21 74 -21 116c0 28 3 57.333 9 88h192c-3.33301 -16.667 -5 -32.667 -5 -48c0 -38 12.833 -73.167 38.5 -105.5s65.167 -48.5 118.5 -48.5s102.333 18.833 147 56.5s72.334 82.834 83.001 135.501c3.33301 16 5 31.333 5 46
c0 39.333 -13 75.166 -39 107.499s-65.667 48.5 -119 48.5h-96l37 192h96c53.333 0 102.333 18.833 147 56.5s73 86.167 85 145.5c2.66699 13.333 4 26 4 38c0 36.667 -13.167 71.5 -39.5 104.5s-66.166 49.5 -119.499 49.5c-44.667 0 -86.667 -13.667 -126 -41
s-69.333 -65.666 -90 -114.999l-178 47c40 92 99.333 165.167 178 219.5s163 81.5 253 81.5c70.667 0 131.667 -17.167 183 -51.5s88.666 -80.5 111.999 -138.5c14.667 -37.333 22 -77 22 -119c0 -24 -2.33301 -49 -7 -75c-12.667 -64 -35.5 -120.667 -68.5 -170
s-72.833 -92.333 -119.5 -129z" />
    <glyph glyph-name="four" unicode="4" 
d="M669 480l91 469l-351 -469h260zM861 480h96l-37 -192h-96l-56 -288h-192l56 288h-480l37 192l648 864h192z" />
    <glyph glyph-name="five" unicode="5" 
d="M1088 1152l-494 -0.00195312l-118 -357c28 21.333 56.5 38.333 85.5 51s57.833 19 86.5 19c71.333 -1.33301 132.666 -19.166 183.999 -53.499s88.333 -80.5 111 -138.5c14.667 -36 22 -74.667 22 -116c0 -24.667 -2.66699 -50.334 -8 -77.001l-20 -106
c-14 -70.667 -43.833 -135.167 -89.5 -193.5s-101 -104.666 -166 -138.999s-132.833 -51.5 -203.5 -51.5c-74.667 0 -138.667 19.333 -192 58s-89.666 93.667 -108.999 165l190 85c8.66699 -38 26.167 -66.833 52.5 -86.5s58.166 -29.5 95.499 -29.5
c52.667 0 101.334 18.833 146.001 56.5s72.334 82.834 83.001 135.501l20 106c2.66699 14 4 27.333 4 40c0 36.667 -13 71.167 -39 103.5s-65.333 48.5 -118 48.5c-74.667 -3.33301 -136.334 -35 -185.001 -95h-218l256 767h661z" />
    <glyph glyph-name="six" unicode="6" 
d="M383 490l-22.001 -116.001c-2.66699 -14 -4 -27.333 -4 -40c0 -36 13 -70.333 39 -103s65.667 -49 119 -49s102.333 18.833 147 56.5s72.334 82.834 83.001 135.501l22 116c2.66699 14 4 27.333 4 40c0 36 -13 70.5 -39 103.5s-65.667 49.5 -119 49.5
c-52.667 0 -101.167 -18.667 -145.5 -56s-72.5 -83 -84.5 -137zM168.999 373.999l116.002 596.001c13.333 70.667 43 135.167 89 193.5s101.333 104.666 166 138.999s132.334 51.5 203.001 51.5c90 0 163.667 -27.167 221 -81.5s88.666 -127.833 93.999 -220.5l-196 -55v3
c0 50 -14.333 89.5 -43 118.5s-66.334 43.5 -113.001 43.5c-53.333 0 -102.333 -18.833 -147 -56.5s-72 -82.834 -82 -135.501l-29 -147c64.667 34 132 51 202 51c70.667 0 131.667 -17.167 183 -51.5s88.666 -80.5 111.999 -138.5c14.667 -36.667 22 -75.667 22 -117
c0 -24.667 -2.66699 -50.334 -8 -77.001l-22 -116c-14 -70.667 -44 -135.167 -90 -193.5s-101.333 -104.666 -166 -138.999s-132.334 -51.5 -203.001 -51.5s-131.667 17.167 -183 51.5s-88.666 80.5 -111.999 138.5c-14.667 36.667 -22 75.667 -22 117
c0 24.667 2.66699 50.334 8 77.001z" />
    <glyph glyph-name="seven" unicode="7" 
d="M357 1344h768l-37 -192l-696 -1152h-208l697 1152h-561z" />
    <glyph glyph-name="eight" unicode="8" 
d="M515 182c53.333 0 102.332 18.8311 146.999 56.498s72.334 82.834 83.001 135.501c3.33301 16.667 5 32.334 5 47.001c0 38.667 -13 74.167 -39 106.5s-65.667 48.5 -119 48.5s-102.333 -18.667 -147 -56s-72.667 -86 -84 -146c-2.66699 -14 -4 -27.333 -4 -40
c0 -36 13 -70.333 39 -103s65.667 -49 119 -49zM628.999 767.998c53.333 0 102.332 18.834 146.999 56.501s73 86.167 85 145.5c2.66699 13.333 4 26 4 38c0 36.667 -13.167 71.5 -39.5 104.5s-66.166 49.5 -119.499 49.5s-102.333 -18.833 -147 -56.5
s-72 -82.834 -82 -135.501c-3.33301 -16.667 -5 -32.667 -5 -48c0 -38 12.833 -73.167 38.5 -105.5s65.167 -48.5 118.5 -48.5zM864.998 672.999c32.667 -36.667 56 -79.666 70 -128.999c7.33301 -26 11 -54 11 -84c0 -27.333 -3 -56 -9 -86
c-14 -70.667 -44 -135.167 -90 -193.5s-101.333 -104.666 -166 -138.999s-132.334 -51.5 -203.001 -51.5s-131.667 17.167 -183 51.5s-88.666 80.5 -111.999 138.5c-14.667 36.667 -22 75.667 -22 117c0 24.667 2.66699 50.334 8 77.001c12 64 34.5 120.667 67.5 170
s73.167 92.333 120.5 129c-33.333 35.333 -57 77.666 -71 126.999c-6.66699 25.333 -10 52.666 -10 81.999c0 27.333 3 56.666 9 87.999c13.333 70.667 43 135.167 89 193.5s101.333 104.666 166 138.999s132.334 51.5 203.001 51.5s131.667 -17.167 183 -51.5
s88.666 -80.5 111.999 -138.5c14.667 -37.333 22 -77 22 -119c0 -24 -2.33301 -49 -7 -75c-12.667 -64 -35.5 -120.667 -68.5 -170s-72.833 -91.666 -119.5 -126.999z" />
    <glyph glyph-name="nine" unicode="9" 
d="M838 854l23 116.001c2.66699 13.333 4 26 4 38c0 36.667 -13.167 71.5 -39.5 104.5s-66.166 49.5 -119.499 49.5s-102.333 -18.833 -147 -56.5s-72 -82.834 -82 -135.501l-23 -116c-2.66699 -13.333 -4 -26 -4 -38c0 -36.667 13.167 -71.667 39.5 -105
s66.166 -50 119.499 -50c52.667 0 101 18.667 145 56s72 83 84 137zM1053 970.001l-116.002 -596.002c-14 -70.667 -44 -135.167 -90 -193.5s-101.333 -104.666 -166 -138.999s-132.334 -51.5 -203.001 -51.5c-90 0 -163.667 27.167 -221 81.5s-88.333 127.833 -93 220.5
l195 55v-3c0 -50 14.333 -89.5 43 -118.5s66.334 -43.5 113.001 -43.5c53.333 0 102.333 18.833 147 56.5s72.334 82.834 83.001 135.501l28 147c-64.667 -34 -132 -51 -202 -51c-70.667 0 -131.667 17.167 -183 51.5s-88.666 80.5 -111.999 138.5
c-14.667 36.667 -22 75.667 -22 117c0 24.667 2.66699 50.334 8 77.001l23 116c13.333 70.667 43 135.167 89 193.5s101.333 104.666 166 138.999s132.334 51.5 203.001 51.5s131.667 -17.167 183 -51.5s88.666 -80.5 111.999 -138.5c14.667 -37.333 22 -77 22 -119
c0 -24 -2.33301 -49 -7 -75z" />
    <glyph glyph-name="colon" unicode=":" horiz-adv-x="384" 
d="M288 0h-192l37 192h192zM437 768h-192l38 192h192z" />
    <glyph glyph-name="semicolon" unicode=";" horiz-adv-x="384" 
d="M133 192l192 -0.00195312l-37 -192c-10.667 -53.333 -38.167 -98.666 -82.5 -135.999s-93.166 -56 -146.499 -56l18 96c26.667 0 51.167 9.33301 73.5 28s36.166 41.334 41.499 68.001h-96zM437 767.998h-192l38 192h192z" />
    <glyph glyph-name="less" unicode="&#x3c;" horiz-adv-x="768" 
d="M842 875l-42 -214l-396 -181l326 -181l-41 -214l-520 288l41 214z" />
    <glyph glyph-name="equal" unicode="=" horiz-adv-x="768" 
d="M171 384h576l-38 -192h-576zM245 768h576l-37 -192h-576z" />
    <glyph glyph-name="greater" unicode="&#x3e;" horiz-adv-x="768" 
d="M266 875l520 -288l-41 -214l-632 -288l41 214l396 181l-326 181z" />
    <glyph glyph-name="question" unicode="?" 
d="M1053 970c-17.333 -87.333 -54.5 -158.835 -111.5 -214.502s-119.167 -83.5 -186.5 -83.5c-8.66699 0 -20.5 -8.5 -35.5 -25.5s-25.5 -40.5 -31.5 -70.5l-37 -192h-192l37 192c15.333 80.667 51.5 148.834 108.5 204.501s119.5 83.5 187.5 83.5c8 0 19.667 8.5 35 25.5
s26.666 43.833 33.999 80.5c2.66699 13.333 4 26.333 4 39c0 36.667 -13.167 71.334 -39.5 104.001s-66.166 49 -119.499 49s-102.333 -18.667 -147 -56s-72.667 -86 -84 -146h-192c14.667 77.333 45 145 91 203s101.333 104.333 166 139s132.334 52 203.001 52
s131.667 -17.333 183 -52s88.666 -81 111.999 -139c14.667 -36.667 22 -76 22 -118c0 -24 -2.33301 -49 -7 -75zM576 -0.00195312h-192l37 192h192z" />
    <glyph glyph-name="at" unicode="@" horiz-adv-x="1344" 
d="M761 456c39.333 0 75.833 13.998 109.5 41.998s54.5 62 62.5 102l28 144c2 10 3 19.333 3 28c0 28 -10 54.333 -30 79s-49.667 37 -89 37c-41.333 -1.33301 -78.5 -15.666 -111.5 -42.999s-53.167 -61 -60.5 -101l-28 -144c-2 -10.667 -3 -20.667 -3 -30
c0 -27.333 9.83301 -53.166 29.5 -77.499s49.5 -36.5 89.5 -36.5zM1056 -0.00195312l-384.003 0.00195312c-107.333 1.33301 -198.5 31.833 -273.5 91.5s-128.5 140.5 -160.5 242.5c-17.333 56 -26 116.333 -26 181c0 52.667 5.66699 108.334 17 167.001
c24 124 71.667 236.833 143 338.5s156.5 182.667 255.5 243s201.5 90.5 307.5 90.5s196.667 -30.167 272 -90.5s129 -141.5 161 -243.5c17.333 -54.667 26 -115.334 26 -182.001c0 -57.333 -6.33301 -119 -19 -185c-4 -22.667 -12.333 -51 -25 -85
s-37.334 -75.667 -74.001 -125c-28 -34.667 -54.167 -60.167 -78.5 -76.5s-47.166 -26.833 -68.499 -31.5s-42.333 -7 -63 -7c-29.333 0 -57.333 7 -84 21s-46 37.333 -58 70c-67.333 -71.333 -131 -107 -191 -107c-79.333 0 -141.666 28.333 -186.999 85
c-34 41.333 -51 89.333 -51 144c0 18.667 2 38.334 6 59.001l28 144c15.333 79.333 55.833 146.666 121.5 201.999s139.834 84 222.501 86c48.667 0 91.667 -25 129 -75l15 75h144c-61.333 -313.333 -93.333 -479 -96 -497c-2 -13.333 -3 -24 -3 -32
c0 -6.66699 0.666992 -11.667 2 -15c3.33301 -10.667 13 -16 29 -16s25.667 1 29 3c8.66699 2 23.334 16 44.001 42c24.667 31.333 41 58.666 49 81.999c7.33301 20 13 39.333 17 58c10 51.333 15 99.666 15 144.999c0 99.333 -23.333 186.333 -70 261
c-68.667 98 -158.667 147 -270 147s-220 -49 -326 -147c-110.667 -108.667 -180 -235.667 -208 -381c-9.33301 -46 -14 -90.333 -14 -133c0 -96.667 24 -182.667 72 -258c68 -98 157.667 -147 269 -147h384z" />
    <glyph glyph-name="A" unicode="A" 
d="M428 480h290l-44 515zM841 1344l119 -1344h-200l-25 288h-398l-137 -288h-200l641 1344h200z" />
    <glyph glyph-name="B" unicode="B" 
d="M512 1152l-74.999 -384h145c54.667 1.33301 104 20.5 148 57.5s71 81.833 81 134.5c2.66699 14 4 27.333 4 40c0 36 -13.333 70.333 -40 103s-66.334 49 -119.001 49h-144zM517.001 192c52.667 0 101 18.499 145 55.499s72.333 82.5 85 136.5c2 12 3 24 3 36
c0 38.667 -13.167 74.334 -39.5 107.001s-65.833 49 -118.5 49l-192 1l-75 -385h192zM842.001 692.999c41.333 -35.333 70.665 -79.667 87.998 -133c10.667 -32 16 -66.333 16 -103c0 -23.333 -2.33301 -47.666 -7 -72.999c-14.667 -71.333 -44.667 -136 -90 -194
s-100.5 -104.167 -165.5 -138.5s-132.833 -51.5 -203.5 -51.5h-384l261 1344h336c70.667 0 131.834 -17.167 183.501 -51.5s88.834 -80.833 111.501 -139.5c14.667 -36 22 -74.667 22 -116c0 -24.667 -2.66699 -50.334 -8 -77.001c-10 -51.333 -28.833 -100 -56.5 -146
s-62.167 -86.333 -103.5 -121z" />
    <glyph glyph-name="C" unicode="C" 
d="M848 903l13 66.9961h-1c2.66699 14 4 27.333 4 40c0 36 -13.167 70.333 -39.5 103s-65.833 49 -118.5 49s-101.5 -18.667 -146.5 -56s-72.833 -82.666 -83.5 -135.999h1l-116 -596h-1c-2.66699 -13.333 -4 -26 -4 -38c0 -36.667 13.333 -71.5 40 -104.5
s66.334 -49.5 119.001 -49.5s101.5 18.833 146.5 56.5s72.5 82.834 82.5 135.501h1l13 68l181 -58c-15.333 -77.333 -45.833 -145.166 -91.5 -203.499s-101 -104.666 -166 -138.999s-132.833 -51.5 -203.5 -51.5s-131.834 17.167 -183.501 51.5
s-88.834 80.833 -111.501 139.5c-14.667 36 -22 74.667 -22 116c0 24.667 2.66699 50.334 8 77.001l116 596c13.333 70.667 42.833 135.167 88.5 193.5s101 104.666 166 138.999s132.833 51.5 203.5 51.5s131.834 -17.167 183.501 -51.5s89.167 -80.833 112.5 -139.5
c14 -35.333 21 -74 21 -116c0 -27.333 -3 -56.333 -9 -87z" />
    <glyph glyph-name="D" unicode="D" 
d="M747 384l112.001 576.001c2.66699 14 4 27.333 4 40c0 36 -13.333 70.333 -40 103s-66.334 49 -119.001 49h-191l-187 -960h191c52.667 0 101.667 18.667 147 56s73 82.666 83 135.999zM741.001 1344c71.333 0 132.668 -17.168 184.001 -51.501
s88.666 -80.833 111.999 -139.5c14 -36.667 21 -75.667 21 -117c0 -24.667 -2.33301 -50 -7 -76l-112 -576c-14 -70.667 -43.833 -135.167 -89.5 -193.5s-101 -104.666 -166 -138.999s-132.833 -51.5 -203.5 -51.5h-384l261 1344h384z" />
    <glyph glyph-name="E" unicode="E" 
d="M1088 1152h-576l-75 -384h384l-37 -192h-384l-75 -384h576l-37 -192h-768l261 1344h768z" />
    <glyph glyph-name="F" unicode="F" 
d="M1088 1152h-576l-75 -384h384l-37 -192h-384l-112 -576h-192l261 1344h768z" />
    <glyph glyph-name="G" unicode="G" 
d="M611 672h383.998l-131 -672h-96l-29 77c-81.333 -58 -168.333 -87 -261 -87c-70.667 0 -131.667 17.167 -183 51.5s-88.666 80.833 -111.999 139.5c-14.667 36 -22 74.667 -22 116c0 24.667 2.66699 50.334 8 77.001l116 596c13.333 70.667 43 135.167 89 193.5
s101.333 104.666 166 138.999s132.334 51.5 203.001 51.5s131.667 -17.167 183 -51.5s88.666 -80.833 111.999 -139.5c14 -35.333 21 -74.666 21 -117.999c0 -26.667 -2.66699 -55 -8 -85h-192c3.33301 16 5 31.333 5 46c0 39.333 -13 75.166 -39 107.499
s-65.667 48.5 -119 48.5s-102.333 -18.833 -147 -56.5s-72 -82.834 -82 -135.501l-116 -596c-2.66699 -14 -4 -27.333 -4 -40c0 -36 13 -70.333 39 -103s65.667 -49 119 -49s102.333 18.833 147 56.5s72.334 82.834 83.001 135.501l20 106h-192z" />
    <glyph glyph-name="H" unicode="H" 
d="M933 1344h192l-261 -1344h-192l112 576h-384l-112 -576h-192l261 1344h192l-112 -576h384z" />
    <glyph glyph-name="I" unicode="I" horiz-adv-x="768" 
d="M896 1152h-192l-187 -960h192l-37 -192h-576l37 192h192l187 960h-192l37 192h576z" />
    <glyph glyph-name="J" unicode="J" 
d="M741 1344h383.999l-188 -970c-14 -70.667 -44 -135 -90 -193s-101.333 -104.333 -166 -139s-132.334 -52 -203.001 -52s-131.667 17.333 -183 52s-88.666 81 -111.999 139c-14.667 36 -22 74.667 -22 116c0 24.667 2.66699 50.334 8 77.001h192
c-2.66699 -14 -4 -27.333 -4 -40c0 -36.667 13 -71.167 39 -103.5s65.667 -48.5 119 -48.5s102.333 18.667 147 56s72.334 82.666 83.001 135.999l151 778h-192z" />
    <glyph glyph-name="K" unicode="K" 
d="M1125 1344l-480 -627l219 -717h-215l-158 517l-138 -181l-66 -336h-191l261 1344h192l-121 -621l476 621h221z" />
    <glyph glyph-name="L" unicode="L" 
d="M325 192h576l-37 -192h-768l261 1344h192z" />
    <glyph glyph-name="M" unicode="M" horiz-adv-x="1152" 
d="M1120 1344h197l-261 -1344h-192l146 752l-296 -560h-202l-78 560l-146 -752h-192l261 1344h197l118 -848z" />
    <glyph glyph-name="N" unicode="N" 
d="M933 1344h192l-261 -1344h-292l-90 995l-193 -995h-193l261 1344h292l91 -994z" />
    <glyph glyph-name="O" unicode="O" horiz-adv-x="1056" 
d="M840 374l115.998 596c2.66699 14 4 27.333 4 40c0 36 -13.167 70.333 -39.5 103s-65.833 49 -118.5 49h-96c-52.667 0 -101.5 -18.667 -146.5 -56s-72.833 -82.666 -83.5 -135.999h1l-116 -596h-1c-2.66699 -13.333 -4 -26 -4 -38c0 -36.667 13.333 -71.334 40 -104.001
s66.334 -49 119.001 -49h97c52.667 0 101.334 18.667 146.001 56s72 82.333 82 135zM838.998 1354c71.333 0 132.503 -17.168 183.503 -51.501s88.167 -80.833 111.5 -139.5c14.667 -36.667 22 -76 22 -118c0 -24 -2.33301 -49 -7 -75l-116 -596
c-14 -70.667 -44 -135.167 -90 -193.5s-101.333 -104.666 -166 -138.999s-132.334 -51.5 -203.001 -51.5h-96c-70.667 0 -131.834 17.167 -183.501 51.5s-88.834 80.833 -111.501 139.5c-14.667 36 -22 74.667 -22 116c0 24.667 2.66699 50.334 8 77.001l116 596
c13.333 70.667 42.833 135.167 88.5 193.5s101 104.666 166 138.999s132.833 51.5 203.5 51.5h96z" />
    <glyph glyph-name="P" unicode="P" 
d="M629 768c53.333 0 102.333 18.832 147 56.499s72 82.834 82 135.501c2.66699 14 4 27.333 4 40c0 36 -13.167 70.333 -39.5 103s-65.833 49 -118.5 49h-192l-75 -384h192zM741 1344c71.333 0 132.668 -17.167 184.001 -51.5s88.666 -80.833 111.999 -139.5
c14 -36.667 21 -75.667 21 -117c0 -24.667 -2.33301 -50 -7 -76c-14 -70 -43.833 -134.167 -89.5 -192.5s-100.667 -104.5 -165 -138.5s-132.5 -51.667 -204.5 -53h-193l-112 -576h-191l261 1344h384z" />
    <glyph glyph-name="Q" unicode="Q" horiz-adv-x="1056" 
d="M840 374l116 595.999c2.66699 13.333 4 26 4 38c0 36.667 -13.167 71.5 -39.5 104.5s-65.833 49.5 -118.5 49.5h-96c-52.667 0 -101.5 -18.833 -146.5 -56.5s-72.5 -82.834 -82.5 -135.501l-116 -596c-2.66699 -13.333 -4 -26 -4 -38c0 -37.333 13.167 -72.333 39.5 -105
s65.833 -49 118.5 -49h28c-17.333 26.667 -29.666 57.667 -36.999 93c-3.33301 17.333 -5 35 -5 53c0 18.667 1.66699 37.334 5 56.001h193c-0.666992 -4.66699 -1 -9.66699 -1 -15c0 -16.667 5.5 -36.167 16.5 -58.5s27.5 -44.833 49.5 -67.5
c41.333 36.667 66.666 80.334 75.999 131.001zM1149 969.999l-115.996 -595.999c-19.333 -100 -70 -186.333 -152 -259c23.333 -30.667 41.333 -62.334 54 -95.001c7.33301 -19.333 11 -41 11 -65c0 -16 -1.66699 -33 -5 -51h-192c0.666992 4 1 8.33301 1 13
c0 13.333 -4.83301 26.833 -14.5 40.5s-23.167 30.5 -40.5 50.5c-40 -12 -80.333 -18 -121 -18h-96c-70.667 0 -131.834 17.333 -183.501 52s-88.834 81 -111.501 139c-14.667 36 -22 74.667 -22 116c0 24.667 2.66699 50.334 8 77.001l116 596
c13.333 70.667 42.833 135.167 88.5 193.5s101 104.666 166 138.999s132.833 51.5 203.5 51.5h96c71.333 0 132.666 -17.167 183.999 -51.5s88.666 -80.833 111.999 -139.5c14 -36.667 21 -75.667 21 -117c0 -24.667 -2.33301 -50 -7 -76z" />
    <glyph glyph-name="R" unicode="R" 
d="M437 768l192 -0.000976562c53.333 0 102.333 18.833 147 56.5s72 82.834 82 135.501c2.66699 14 4 27.333 4 40c0 36 -13.167 70.333 -39.5 103s-65.833 49 -118.5 49h-192zM732 600.999l140.002 -601h-209l-134 576h-130l-112 -576h-191l261 1344h384
c71.333 0 132.666 -17.167 183.999 -51.5s88.666 -80.833 111.999 -139.5c14 -36.667 21 -75.667 21 -117c0 -24.667 -2.33301 -50 -7 -76c-16 -82.667 -53.333 -156 -112 -220s-127.667 -110.333 -207 -139z" />
    <glyph glyph-name="S" unicode="S" 
d="M629 768c70.667 0 131.668 -17.3389 183.001 -52.0059s88.666 -81 111.999 -139c14 -35.333 21 -74.666 21 -117.999c0 -26.667 -2.66699 -55 -8 -85c-14 -70.667 -44 -135 -90 -193s-101.333 -104.333 -166 -139s-132.334 -52 -203.001 -52s-131.667 17.333 -183 52
s-88.666 81 -111.999 139c-14 35.333 -21 74 -21 116c0 27.333 3 56.333 9 87h192c-3.33301 -17.333 -5 -33.666 -5 -48.999c0 -38 12.833 -73 38.5 -105s65.167 -48 118.5 -48s102.333 18.667 147 56s72.334 82.666 83.001 135.999c3.33301 16.667 5 32.334 5 47.001
c0 38.667 -13 74.167 -39 106.5s-65.667 48.5 -119 48.5c-70.667 0 -131.667 17.333 -183 52s-88.666 81 -111.999 139c-14 35.333 -21 74 -21 116c0 27.333 3 56.333 9 87c13.333 70.667 43 135 89 193s101.167 104.167 165.5 138.5s132.166 51.833 203.499 52.5
c70.667 0 131.667 -17.333 183 -52s88.666 -81 111.999 -139c14 -35.333 21 -74.666 21 -117.999c0 -26.667 -2.66699 -55 -8 -85h-192c3.33301 16.667 5 32.334 5 47.001c0 38.667 -13 74.167 -39 106.5s-65.667 48.5 -119 48.5s-102.333 -18.667 -147 -56
s-72 -82.666 -82 -135.999c-3.33301 -17.333 -5 -33.666 -5 -48.999c0 -38 12.833 -73 38.5 -105s65.167 -48 118.5 -48z" />
    <glyph glyph-name="T" unicode="T" 
d="M357 1344h768l-37 -192h-288l-224 -1152h-192l224 1152h-288z" />
    <glyph glyph-name="U" unicode="U" 
d="M937 374c-14 -70.667 -43.8311 -135.168 -89.498 -193.501s-101 -104.666 -166 -138.999s-132.833 -51.5 -203.5 -51.5s-131.834 17.167 -183.501 51.5s-88.834 80.833 -111.501 139.5c-14.667 36 -22 74.667 -22 116c0 24.667 2.66699 50.334 8 77.001l188 970h193
l-189 -970c-2.66699 -13.333 -4 -26 -4 -38c0 -36.667 13.167 -71.334 39.5 -104.001s65.833 -49 118.5 -49c53.333 0 102.5 18.667 147.5 56s72.5 82.333 82.5 135l189 970h191z" />
    <glyph glyph-name="V" unicode="V" 
d="M1221 1344l-641 -1344h-200l-119 1344h200l87 -994l473 994h200z" />
    <glyph glyph-name="W" unicode="W" horiz-adv-x="1152" 
d="M1219 1344h194l-453 -1344h-194l-18 886l-362 -886h-194l69 1344h194l-42 -798l326 798h196l16 -798z" />
    <glyph glyph-name="X" unicode="X" 
d="M721 672l239 -672h-220l-168 473l-352 -473h-220l501 672l-240 672h220l168 -473l352 473h220z" />
    <glyph glyph-name="Y" unicode="Y" 
d="M1221 1344l-519 -697l-126 -647h-192l126 647l-249 697h221l166 -478l352 478h221z" />
    <glyph glyph-name="Z" unicode="Z" horiz-adv-x="958" 
d="M1125 1344l-37 -192l-735 -960h548l-37 -192h-768l37 192l735 960h-548l37 192h768z" />
    <glyph glyph-name="bracketleft" unicode="[" horiz-adv-x="576" 
d="M704 1153h-192l-224 -1153h192l-37 -192h-384l298 1536h384z" />
    <glyph glyph-name="backslash" unicode="\" horiz-adv-x="768" 
d="M509 1344l174 -1536h-200l-174 1536h200z" />
    <glyph glyph-name="bracketright" unicode="]" horiz-adv-x="576" 
d="M320 1153l37 191h384l-298 -1536h-384l37 192h192l224 1153h-192z" />
    <glyph glyph-name="asciicircum" unicode="^" 
d="M848 1344l165 -576h-215l-99 361l-239 -361h-215l389 576h214z" />
    <glyph glyph-name="underscore" unicode="_" horiz-adv-x="768" 
d="M712 -288h-768l37 192h768z" />
    <glyph glyph-name="grave" unicode="`" 
d="M795 1656l30 -215l-144 -1l-102 216h216z" />
    <glyph glyph-name="a" unicode="a" 
d="M786 586c2.66699 13.333 3.99805 26.333 3.99805 39c0 36.667 -13.167 71.334 -39.5 104.001s-66.166 49 -119.499 49c-54.667 -1.33301 -104 -20.333 -148 -57s-71 -81.667 -81 -135l-41 -212c-2.66699 -14 -4 -27.333 -4 -40c0 -36.667 13 -71.167 39 -103.5
s65.667 -48.5 119 -48.5s102.333 18.667 147 56s72.334 82.666 83.001 135.999zM858.998 960l191.998 -0.000976562l-187 -960h-192l17 90c-34 -30.667 -69 -55 -105 -73s-71.333 -27 -106 -27c-70.667 0 -131.667 17.333 -183 52s-88.666 81 -111.999 139
c-14.667 36 -22 74.667 -22 116c0 24.667 2.66699 50.334 8 77.001l41 212c24 108.667 79.167 199.167 165.5 271.5s184.166 109.833 293.499 112.5c34.667 0 66.334 -9 95.001 -27s54.334 -42.333 77.001 -73z" />
    <glyph glyph-name="b" unicode="b" 
d="M786 586c2.66699 13.333 4 26.333 4 39c0 36.667 -12.833 71 -38.5 103s-65.834 48.667 -120.501 50c-53.333 0 -102.333 -18.667 -147 -56s-72 -82.666 -82 -135.999l-41 -212c-2.66699 -14 -4 -27.333 -4 -40c0 -36.667 13 -71.167 39 -103.5s65.667 -48.5 119 -48.5
s102.333 18.667 147 56s72.334 82.666 83.001 135.999zM978 586l-40.998 -212.001c-14 -70.667 -44 -135 -90 -193s-101.333 -104.333 -166 -139s-132.334 -52 -203.001 -52c-34.667 0 -66.334 9 -95.001 27s-54.667 42.333 -78 73l-17 -90h-192l261 1344h192l-92 -474
c34.667 30.667 70 55 106 73s71.333 27 106 27c108 -2.66699 191 -40 249 -112c44.667 -55.333 67 -120.666 67 -195.999c0 -24.667 -2.33301 -50 -7 -76z" />
    <glyph glyph-name="c" unicode="c" 
d="M735 347l174 -56.0029c-40.667 -92 -100.167 -165.167 -178.5 -219.5s-162.5 -81.5 -252.5 -81.5c-70.667 0 -131.667 17.333 -183 52s-88.666 81 -111.999 139c-14.667 36 -22 74.667 -22 116c0 24.667 2.66699 50.334 8 77.001l41 212
c14.667 71.333 44.667 135.833 90 193.5s100.5 103.834 165.5 138.501s132.833 52 203.5 52c90 0 163.5 -27.167 220.5 -81.5s87.833 -127.5 92.5 -219.5l-195 -56c0 52 -14.333 92.5 -43 121.5s-66.334 43.5 -113.001 43.5c-53.333 0 -102.333 -18.667 -147 -56
s-72 -82.666 -82 -135.999l-41 -212c-2.66699 -14 -4 -27.333 -4 -40c0 -36.667 13 -71.167 39 -103.5s65.667 -48.5 119 -48.5c46.667 0 90 14.5 130 43.5s70 69.5 90 121.5z" />
    <glyph glyph-name="d" unicode="d" 
d="M402 586l-41.002 -212c-2.66699 -14 -4 -27.333 -4 -40c0 -36.667 13 -71.167 39 -103.5s65.667 -48.5 119 -48.5s102.333 18.667 147 56s72.334 82.666 83.001 135.999l41 212c2.66699 13.333 4 26.333 4 39c0 36.667 -13.167 71.334 -39.5 104.001
s-66.166 49 -119.499 49c-54.667 -1.33301 -104 -20.333 -148 -57s-71 -81.667 -81 -135zM209.998 586c24 108.667 79.165 199.166 165.498 271.499s184.166 109.833 293.499 112.5c34.667 0 66.334 -9 95.001 -27s54.334 -42.333 77.001 -73l92 474h192l-261 -1344h-192
l17 90c-34 -30.667 -69 -55 -105 -73s-71.333 -27 -106 -27c-70.667 0 -131.667 17.333 -183 52s-88.666 81 -111.999 139c-14.667 36 -22 74.667 -22 116c0 24.667 2.66699 50.334 8 77.001z" />
    <glyph glyph-name="e" unicode="e" 
d="M631 778c-53.333 0 -101.834 -18.333 -145.501 -55s-71.5 -82.334 -83.5 -137.001h384c2.66699 13.333 4 26.333 4 39c0 36.667 -13.167 71.334 -39.5 104.001s-66.166 49 -119.499 49zM947.999 432h-576l-11 -58c-2.66699 -14 -4 -27.333 -4 -40
c0 -36.667 13 -71.167 39 -103.5s65.667 -48.5 119 -48.5c37.333 0 73.166 9.66699 107.499 29s63.5 48.333 87.5 87l155 -86c-46 -70.667 -103.167 -125.334 -171.5 -164.001s-140.166 -58 -215.499 -58c-70.667 0 -131.667 17.333 -183 52s-88.666 81 -111.999 139
c-14.667 36 -22 74.667 -22 116c0 24.667 2.66699 50.334 8 77.001l41 212c24 108.667 79.167 199.167 165.5 271.5s184.166 109.833 293.499 112.5c70.667 0 131.5 -17.333 182.5 -52s88.167 -81 111.5 -139c15.333 -36.667 23 -75.667 23 -117
c0 -24.667 -2.66699 -50 -8 -76z" />
    <glyph glyph-name="f" unicode="f" horiz-adv-x="672" 
d="M896 1152l-192 -0.000976562l-37 -192h192l-38 -192h-192l-149 -768h-192l149 768h-192l38 192h192l37 192c10 52.667 37.333 97.834 82 135.501s93.667 56.5 147 56.5h192z" />
    <glyph glyph-name="g" unicode="g" 
d="M786 586c2.66699 13.333 4 26.333 4 39c0 36.667 -13.333 71.334 -40 104.001s-66.334 49 -119.001 49c-54.667 -1.33301 -104 -20.333 -148 -57s-71 -81.667 -81 -135l-41 -212c-2.66699 -14 -4 -27.333 -4 -40c0 -36.667 13 -71.167 39 -103.5s65.667 -48.5 119 -48.5
s102.333 18.667 147 56s72.334 82.666 83.001 135.999zM859 960h191.999l-187 -960c-14 -70.667 -43.833 -135 -89.5 -193s-101 -104.333 -166 -139s-132.833 -52 -203.5 -52c-89.333 0 -162.5 26.833 -219.5 80.5s-88.5 126.167 -94.5 217.5h206
c26 -70.667 74.667 -106 146 -106c53.333 0 102.166 18.667 146.499 56s71.833 82.666 82.5 135.999l17 90c-34 -30.667 -69 -55 -105 -73s-71.333 -27 -106 -27c-70.667 0 -131.667 17.333 -183 52s-88.666 81 -111.999 139c-14.667 36 -22 74.667 -22 116
c0 24.667 2.66699 50.334 8 77.001l41 212c24 108.667 79.167 199.167 165.5 271.5s184.166 109.833 293.499 112.5c34.667 0 66.334 -9 95.001 -27s54.334 -42.333 77.001 -73z" />
    <glyph glyph-name="h" unicode="h" 
d="M669 970c70.667 -0.666992 131.501 -18.167 182.501 -52.5s88.167 -80.5 111.5 -138.5c15.333 -36.667 23 -75.667 23 -117c0 -24.667 -2.66699 -50 -8 -76l-114 -586h-192l114 586c2.66699 13.333 4 26.333 4 39c0 36.667 -12.833 71 -38.5 103
s-65.834 48.667 -120.501 50c-54.667 -1.33301 -104 -20.333 -148 -57s-71 -81.667 -81 -135l-114 -586h-192l261 1344h192l-92 -474c34.667 30.667 70 55 106 73s71.333 27 106 27z" />
    <glyph glyph-name="i" unicode="i" horiz-adv-x="384" 
d="M475 960l-187 -960h-192l187 960h192zM308 1092l28 144h192l-28 -144h-192z" />
    <glyph glyph-name="j" unicode="j" horiz-adv-x="480" 
d="M379 960l192.001 0.000976562l-187 -960c-14 -70.667 -43.833 -135 -89.5 -193s-101 -104.333 -166 -139s-132.833 -52 -203.5 -52l38 192c53.333 0 102.166 18.667 146.499 56s71.833 82.666 82.5 135.999zM404.001 1092l28 144h192l-28 -144h-192z" />
    <glyph glyph-name="k" unicode="k" 
d="M1051 960l-455 -450l268 -510h-236l-187 356l-104 -103l-49 -253h-192l261 1344h192l-153 -787l407 403h248z" />
    <glyph glyph-name="l" unicode="l" horiz-adv-x="384" 
d="M288 0h-192l261 1344h192z" />
    <glyph glyph-name="m" unicode="m" horiz-adv-x="1344" 
d="M1094 970c60 -0.666992 112.499 -18.168 157.499 -52.501s78.167 -80.5 99.5 -138.5c12.667 -35.333 19 -72.666 19 -111.999c0 -26 -2.66699 -53 -8 -81l-114 -586h-192l114 586c3.33301 18 5 35 5 51c0 31.333 -8.5 62.333 -25.5 93s-48.167 46.667 -93.5 48
c-44.667 -1.33301 -82.167 -20 -112.5 -56s-50.833 -81.333 -61.5 -136l-114 -586h-192l114 586c3.33301 18 5 35 5 51c0 31.333 -8.5 62.333 -25.5 93s-48.167 46.667 -93.5 48c-44.667 -1.33301 -82.167 -20 -112.5 -56s-50.833 -81 -61.5 -135l-114 -587h-192l187 960
h192l-11 -52c54.667 41.333 104.667 62 150 62c106.667 -4 185.667 -53 237 -147c40.667 44 82.334 79.5 125.001 106.5s82 40.5 118 40.5z" />
    <glyph glyph-name="n" unicode="n" 
d="M669 970c70.667 -0.666992 131.501 -18.168 182.501 -52.501s88.167 -80.5 111.5 -138.5c15.333 -36.667 23 -75.667 23 -117c0 -24.667 -2.66699 -50 -8 -76l-114 -586h-192l114 586c2.66699 13.333 4 26.333 4 39c0 36.667 -12.833 71 -38.5 103
s-65.834 48.667 -120.501 50c-52.667 0 -101.5 -18.667 -146.5 -56s-72.5 -82.666 -82.5 -135.999l-114 -586h-192l187 960h192l-18 -90c34.667 30.667 70 55 106 73s71.333 27 106 27z" />
    <glyph glyph-name="o" unicode="o" 
d="M786 586c2.66699 13.333 3.99805 26.332 3.99805 38.999c0 36.667 -13.167 71.334 -39.5 104.001s-66.166 49 -119.499 49s-102.333 -18.667 -147 -56s-72 -82.666 -82 -135.999l-41 -212c-2.66699 -14 -4 -27.333 -4 -40c0 -36.667 13 -71.167 39 -103.5
s65.667 -48.5 119 -48.5s102.333 18.667 147 56s72.334 82.666 83.001 135.999zM977.998 585.999l-40.999 -212.001c-14 -70.667 -44 -135 -90 -193s-101.333 -104.333 -166 -139s-132.334 -52 -203.001 -52s-131.667 17.333 -183 52s-88.666 81 -111.999 139
c-14.667 36 -22 74.667 -22 116c0 24.667 2.66699 50.334 8 77.001l41 212c24 108.667 79.167 199.167 165.5 271.5s184.166 109.833 293.499 112.5c70.667 0 131.5 -17.333 182.5 -52s88.167 -81 111.5 -139c15.333 -36.667 23 -75.667 23 -117
c0 -24.667 -2.66699 -50 -8 -76z" />
    <glyph glyph-name="p" unicode="p" 
d="M745 374l40.998 211.998c2.66699 13.333 4 26.333 4 39c0 36.667 -13.167 71.334 -39.5 104.001s-66.166 49 -119.499 49s-102.333 -18.667 -147 -56s-72 -82.666 -82 -135.999l-41 -212c-2.66699 -14 -4 -27.333 -4 -40c0 -36.667 13 -71.167 39 -103.5
s65.667 -48.5 119 -48.5c55.333 1.33301 104.833 20.333 148.5 57s70.834 81.667 81.501 135zM936.998 373.998c-24 -108.667 -79.167 -199.167 -165.5 -271.5s-184.166 -109.833 -293.499 -112.5c-34.667 0 -66.334 9 -95.001 27s-54.667 42.333 -78 73l-92 -474h-192
l262 1344h192l-18 -90c34.667 30.667 70 55 106 73s71.333 27 106 27c70.667 0 131.5 -17.333 182.5 -52s88.167 -81 111.5 -139c15.333 -36.667 23 -75.667 23 -117c0 -24.667 -2.66699 -50 -8 -76z" />
    <glyph glyph-name="q" unicode="q" 
d="M361 374c-2.66699 -14 -4.00195 -27.668 -4.00195 -41.001c0 -36 12.833 -69.833 38.5 -101.5s65.5 -48.167 119.5 -49.5c53.333 0 102.333 18.667 147 56s72.334 82.666 83.001 135.999l41 212c2.66699 13.333 4 26.333 4 39c0 36.667 -13.167 71.334 -39.5 104.001
s-66.166 49 -119.499 49s-102.333 -18.667 -147 -56s-72 -82.666 -82 -135.999zM168.998 373.999l40.998 211.999c14 70.667 43.833 135 89.5 193s101 104.333 166 139s132.833 52 203.5 52c34.667 0 66.334 -9 95.001 -27s54.334 -42.333 77.001 -73l18 90h192l-262 -1344
h-192l92 474c-34 -30.667 -69 -55 -105 -73s-71.333 -27 -106 -27c-108 2.66699 -191.333 40.334 -250 113.001c-44 54.667 -66 119.667 -66 195c0 24 2.33301 49.333 7 76z" />
    <glyph glyph-name="r" unicode="r" horiz-adv-x="672" 
d="M669 970l191.999 -0.000976562l-38 -192h-192c-53.333 0 -102.333 -18.667 -147 -56s-72 -82.666 -82 -135.999l-114 -586h-192l187 960h192l-27 -139c36.667 44.667 73.834 80.667 111.501 108s74.167 41 109.5 41z" />
    <glyph glyph-name="s" unicode="s" 
d="M835 504c58.667 -48.667 88.002 -106.667 88.002 -174c0 -16 -1.66699 -32.667 -5 -50c-10 -53.333 -36.667 -102 -80 -146s-96.5 -79 -159.5 -105s-129.833 -39 -200.5 -39c-79.333 0 -149.833 16.167 -211.5 48.5s-98.834 78.166 -111.501 137.499
c-0.666992 6 -1.33398 14.667 -2.00098 26s-1.16699 23 -1.5 35s-0.833008 22.333 -1.5 31c0 2.66699 0.666992 8.33398 2 17.001v5h188l4 -27c6.66699 -20.667 25.334 -39.334 56.001 -56.001s69 -25 115 -25c37.333 0 71.5 5.33301 102.5 16s56.333 23.667 76 39
s30.5 29.666 32.5 42.999c0.666992 4 1 7.66699 1 11c0 22 -14.333 43 -43 63s-71 31 -127 33c-95.333 1.33301 -175.333 24.666 -240 69.999c-62.667 48.667 -94 107 -94 175c0 15.333 1.66699 31.333 5 48c10.667 53.333 37.5 102 80.5 146s96.167 79 159.5 105
s130.333 39 201 39c79.333 0 149.833 -16.167 211.5 -48.5s98.5 -78.166 110.5 -137.499c1.33301 -6 2.33301 -14.667 3 -26s1.16699 -23 1.5 -35s0.5 -22 0.5 -30c0 -3.33301 -0.666992 -9.33301 -2 -18v-5h-188l-4 27c-6 20.667 -24.5 39.334 -55.5 56.001
s-69.5 25 -115.5 25c-37.333 0 -71.333 -5.33301 -102 -16s-55.834 -23.667 -75.501 -39s-30.834 -29.666 -33.501 -42.999c-0.666992 -2.66699 -1 -5.66699 -1 -9c0 -20.667 15.333 -40.667 46 -60s74.334 -30 131.001 -32c96 -1.33301 175.667 -26.333 239 -75z" />
    <glyph glyph-name="t" unicode="t" horiz-adv-x="768" 
d="M517 192h192l-37 -192h-192c-53.333 0 -95 19 -125 57c-22.667 28 -34 60.333 -34 97c0 12 1.33301 24.667 4 38l112 576h-192l38 192h192l74 384h192l-74 -384h192l-38 -192h-192z" />
    <glyph glyph-name="u" unicode="u" 
d="M859 960l191.999 -0.000976562l-187 -960h-192l17 90c-34 -30.667 -69 -55 -105 -73s-71.333 -27 -106 -27c-71.333 0.666992 -132.5 18.167 -183.5 52.5s-88.167 80.5 -111.5 138.5c-14.667 36 -22 74.667 -22 116c0 24.667 2.66699 50.334 8 77.001l114 586h192
l-114 -586c-2.66699 -14 -4 -27.667 -4 -41c0 -36 12.833 -69.833 38.5 -101.5s65.5 -48.167 119.5 -49.5c55.333 1.33301 104.833 20.333 148.5 57s70.834 81.667 81.501 135z" />
    <glyph glyph-name="v" unicode="v" horiz-adv-x="768" 
d="M756 960h199l-471 -960h-200l-97 960h199l63 -626z" />
    <glyph glyph-name="w" unicode="w" 
d="M953 960h194l-340 -960h-196l-24 549l-238 -549h-196l34 960h194l-17 -470l205 470h196l21 -470z" />
    <glyph glyph-name="x" unicode="x" horiz-adv-x="768" 
d="M955 960l-369 -480l182 -480h-218l-110 290l-222 -290h-218l368 480l-181 480h218l109 -290l223 290h218z" />
    <glyph glyph-name="y" unicode="y" horiz-adv-x="768" 
d="M756 960h199l-501 -1079c-26 -58 -55.833 -104.667 -89.5 -140s-69.5 -62 -107.5 -80s-77.167 -30 -117.5 -36s-79.833 -9 -118.5 -9l38 192c64.667 0 111.167 7 139.5 21s50.5 39 66.5 75l-78 1056h199l50 -686l165 356z" />
    <glyph glyph-name="z" unicode="z" 
d="M283 960h768l-38 -192l-634 -576h522l-37 -192h-768l37 192l634 576h-522z" />
    <glyph glyph-name="braceleft" unicode="{" horiz-adv-x="576" 
d="M741 1344c-26 0 -50.165 -9.33203 -72.498 -27.999s-35.833 -41.334 -40.5 -68.001l-56 -288c-14.667 -74 -52 -138 -112 -192c28.667 -40 43 -85 43 -135c0 -18.667 -2 -37.667 -6 -57l-56 -288c-1.33301 -6.66699 -2 -13.334 -2 -20.001c0 -18 6.5 -35.167 19.5 -51.5
s32.5 -24.5 58.5 -24.5l-37 -192c-79.333 0 -141.666 28.333 -186.999 85c-34 42 -51 90.333 -51 145c0 18.667 2 38 6 58l56 288c1.33301 6.66699 2 13.334 2 20.001c0 18 -6.5 35.167 -19.5 51.5s-32.833 24.5 -59.5 24.5l37 192c26.667 0 51.167 9.33301 73.5 28
s36.166 41.334 41.499 68.001l56 288c15.333 79.333 56.666 147.166 123.999 203.499s140.666 84.5 219.999 84.5z" />
    <glyph glyph-name="bar" unicode="|" horiz-adv-x="384" 
d="M251 -192h-192l298 1536h192z" />
    <glyph glyph-name="braceright" unicode="}" horiz-adv-x="576" 
d="M357 1344l37.999 192c79.333 0 141.666 -28 186.999 -84c34 -42.667 51 -91.334 51 -146.001c0 -18.667 -2 -38 -6 -58l-56 -288c-1.33301 -7.33301 -2 -14 -2 -20c0 -18 6.5 -35.167 19.5 -51.5s32.833 -24.5 59.5 -24.5l-37 -192c-26.667 0 -51.167 -9.33301 -73.5 -28
s-36.166 -41.334 -41.499 -68.001l-56 -288c-15.333 -79.333 -56.666 -147.166 -123.999 -203.499s-140.666 -84.5 -219.999 -84.5l37 192c26 0 50.167 9.33301 72.5 28s36.166 41.334 41.499 68.001l56 288c14 73.333 51 137.333 111 192
c-28 39.333 -42 83.666 -42 132.999c0 18.667 2 38.334 6 59.001l56 288c1.33301 6.66699 2 13 2 19c0 18.667 -6.66699 36.167 -20 52.5s-33 24.5 -59 24.5z" />
    <glyph glyph-name="asciitilde" unicode="~" 
d="M731 307c-57.333 0 -126.333 37.333 -207 112c-65.333 59.333 -110.333 89 -135 89c-13.333 0 -27 -5.33301 -41 -16c-8 -5.33301 -13 -10 -15 -14l-18 -94h-144l18 96c9.33301 46.667 41.666 89.667 96.999 129c44 28 87.667 42 131 42c44 0 88.667 -16.333 134 -49
c26.667 -20 53.667 -42 81 -66c64 -56 106.333 -84 127 -84c8.66699 0 17.167 2 25.5 6s15 8.33301 20 13s8.16699 8.33398 9.5 11.001l18 94h144l-19 -96c-9.33301 -48.667 -43.666 -93.334 -102.999 -134.001c-41.333 -26 -82.333 -39 -123 -39z" />
    <glyph glyph-name="exclamdown" unicode="&#xa1;" horiz-adv-x="384" 
d="M283 960h192l-38 -192h-192zM213 -384h-192l112 576l123 384h96l-27 -384z" />
    <glyph glyph-name="cent" unicode="&#xa2;" 
d="M468 188l114.001 583.999c-34.667 -8 -67.334 -24.667 -98.001 -50c-44.667 -37.333 -72 -82.666 -82 -135.999l-41 -212c-2.66699 -14 -4 -27.333 -4 -40c0 -36.667 11 -68.667 33 -96c20.667 -25.333 46.667 -42 78 -50zM564.001 187.999
c28.667 6.66699 55.665 19.3311 80.998 37.998c40 28.667 70 69 90 121l174 -56c-40.667 -92 -100.334 -165 -179.001 -219c-64 -44.667 -131.667 -71 -203 -79l-36 -185h-96l36 185c-51.333 6 -96.666 22.333 -135.999 49c-51.333 34.667 -88.666 81 -111.999 139
c-14.667 36 -22 74.667 -22 116c0 24.667 2.66699 50.334 8 77.001l41 212c14.667 71.333 44.667 135.833 90 193.5s100.333 103.834 165 138.501c50 26.667 101.667 43 155 49l36 185h96l-36 -185c68.667 -8 126.334 -34 173.001 -78c57.333 -54.667 88.333 -128 93 -220
l-195 -56c0 52 -14.333 92.667 -43 122c-18 18 -40 30.333 -66 37z" />
    <glyph glyph-name="sterling" unicode="&#xa3;" 
d="M864 0c-59.333 2 -128.002 10.6699 -206.002 26.0029c-88.667 14.667 -145 22 -169 22c-30 0 -66.667 -5.33301 -110 -16c-102.667 -21.333 -197 -32 -283 -32l37 192c8.66699 43.333 28.167 88.166 58.5 134.499s64.833 93.833 103.5 142.5l26 35h-127l28 144h192l3 12
c-3.33301 12 -21 40.667 -53 86c-26 32 -47.667 65.667 -65 101c-12.667 25.333 -19 52 -19 80c0 10.667 1 21.667 3 33c14.667 77.333 45 145 91 203s101.333 104.333 166 139s132.334 52 203.001 52c78 0 144 -20.667 198 -62s89.333 -99.333 106 -174l-188 -158
c3.33301 16.667 5 32.334 5 47.001c0 38.667 -13 74.167 -39 106.5s-65.667 48.5 -119 48.5c-52 0 -101.333 -19 -148 -57c-41.333 -34 -65.666 -70 -72.999 -108c-2 -9.33301 -3 -18 -3 -26c0 -16.667 3.66699 -31.334 11 -44.001c6 -10.667 18 -27.334 36 -50.001
c23.333 -30 43.333 -60.667 60 -92c15.333 -28 23 -57.333 23 -88c0 -12.667 -1.33301 -25.334 -4 -38.001l-2 -11h192l-28 -144h-233c-28 -42.667 -59.333 -86 -94 -130c-58.667 -76 -95.667 -130.333 -111 -163c88.667 19.333 153.667 29 195 29
c40 0 106.667 -8.33301 200 -25c70 -13.333 128 -21 174 -23z" />
    <glyph glyph-name="currency" unicode="&#xa4;" 
d="M553 374c52.667 0 101.5 18.835 146.5 56.502s73.167 86.167 84.5 145.5c3.33301 16 5 31.333 5 46c0 39.333 -13.167 75.166 -39.5 107.499s-65.833 48.5 -118.5 48.5s-101.5 -18.833 -146.5 -56.5s-73.167 -86.167 -84.5 -145.5c-3.33301 -16 -5 -31.333 -5 -46
c0 -38.667 13.167 -74.334 39.5 -107.001s65.833 -49 118.5 -49zM976 576.002c-18.667 -97.333 -63 -180.666 -133 -249.999l49 -86l-175 -106l-50 77c-49.333 -19.333 -100 -29 -152 -29s-98.667 9.66699 -140 29l-80 -77l-133 106l81 86c-29.333 48 -44 102.667 -44 164
c0 27.333 3 56 9 86c18.667 97.333 63 180.666 133 249.999l-49 86l177 116l48 -87c49.333 19.333 100 29 152 29s98.667 -9.66699 140 -29l82 87l131 -116l-81 -86c29.333 -48 44 -102.667 44 -164c0 -27.333 -3 -56 -9 -86z" />
    <glyph glyph-name="yen" unicode="&#xa5;" 
d="M637 312l-61 -312h-192l61 312h-288l28 144h288l28 144h-288l28 144h234l-214 600h221l166 -478l352 478h221l-447 -600h235l-28 -144h-288l-28 -144h288l-28 -144h-288z" />
    <glyph glyph-name="brokenbar" unicode="&#xa6;" horiz-adv-x="384" 
d="M245 768l112 576h192l-112 -576h-192zM363 384l-112 -576h-192l112 576h192z" />
    <glyph glyph-name="section" unicode="&#xa7;" 
d="M784 576c0.666992 4 0.999023 8.33398 0.999023 13.001c0 6 -0.666992 12.333 -2 19c-6 25.333 -23.5 48 -52.5 68s-66.833 30 -113.5 30c-54.667 0 -103 -14 -145 -42s-66 -57.333 -72 -88c-0.666992 -4 -1 -8.33301 -1 -13c0 -6.66699 0.666992 -13.334 2 -20.001
c6 -25.333 23.333 -48 52 -68s66.334 -30 113.001 -30c54.667 0 103.167 14 145.5 42s66.5 57.667 72.5 89zM975.999 576.001c-16.667 -84 -68.335 -159.334 -155.002 -226.001c48 -50 72 -107.667 72 -173c0 -18 -2 -37 -6 -57c-16.667 -88 -72.334 -166.333 -167.001 -235
c-89.333 -58 -182.333 -87 -279 -87c-80 0 -149.167 19.333 -207.5 58s-95.166 93.667 -110.499 165l191 77c5.33301 -32 22.333 -58 51 -78s66.334 -30 113.001 -30c54.667 0 103 14 145 42s66 57.333 72 88c1.33301 7.33301 2 14.333 2 21c0 29.333 -15.333 55 -46 77
s-72.667 33.667 -126 35c-98 2 -178.667 31.667 -242 89c-32.667 31.333 -55.667 67.333 -69 108c-1.33301 5.33301 -2.66602 11 -3.99902 17c-4.66699 19.333 -7 38.666 -7 57.999c0 16.667 1.66699 33.667 5 51c16 83.333 67.667 158.333 155 225
c-48 50.667 -72 109 -72 175c0 18 1.66699 36.333 5 55c17.333 88 73.333 166.333 168 235c89.333 58.667 182.333 88 279 88c80 0 149 -19.5 207 -58.5s95 -94.167 111 -165.5l-191 -76c-5.33301 32 -22.333 57.833 -51 77.5s-66.334 29.5 -113.001 29.5
c-54.667 0 -103.167 -14 -145.5 -42s-66.5 -57.333 -72.5 -88c-1.33301 -6.66699 -2 -13.334 -2 -20.001c0 -29.333 15.5 -55.166 46.5 -77.499s72.833 -34.166 125.5 -35.499c98.667 -2 179.334 -31.667 242.001 -89c33.333 -31.333 56.333 -67.333 69 -108l5 -16
c4.66699 -19.333 7 -38.666 7 -57.999c0 -16.667 -1.66699 -33.667 -5 -51z" />
    <glyph glyph-name="dieresis" unicode="&#xa8;" 
d="M479 1476l28 144h192l-28 -144h-192zM863 1476l28 144h192l-28 -144h-192z" />
    <glyph glyph-name="copyright" unicode="&#xa9;" horiz-adv-x="1344" 
d="M1025 281c110 108.667 180 239 210 391c8.66699 46 13 90 13 132c0 96.667 -23.667 183 -71 259c-68.667 98 -158.667 147 -270 147s-220 -49 -326 -147c-110.667 -108.667 -180.667 -239 -210 -391c-9.33301 -46 -14 -90.333 -14 -133c0 -96.667 24 -182.667 72 -258
c68 -98 157.667 -147 269 -147s220.333 49 327 147zM935 1354c106 0 196.834 -30.168 272.501 -90.501s129.5 -141.166 161.5 -242.499c18 -56.667 27 -118 27 -184c0 -52 -5.66699 -107 -17 -165c-25.333 -130.667 -73.833 -246.834 -145.5 -348.501
s-157 -182.667 -256 -243s-201.5 -90.5 -307.5 -90.5s-196.833 30.167 -272.5 90.5s-129.5 141.5 -161.5 243.5c-17.333 56 -26 116.667 -26 182c0 52 5.66699 107.333 17 166c25.333 130.667 73.666 246.834 144.999 348.501s156.5 182.667 255.5 243
s201.5 90.5 307.5 90.5zM849.001 887.999c-39.333 0 -75.998 -14.001 -109.998 -42.001s-54.667 -62 -62 -102l-28 -144c-2 -10.667 -3 -20.667 -3 -30c0 -27.333 10 -53.166 30 -77.499s49.667 -36.5 89 -36.5c35.333 0 68 10.833 98 32.5s52 49.5 66 83.5l130 -41
c-28.667 -64 -72.5 -116.5 -131.5 -157.5s-122.5 -61.5 -190.5 -61.5c-79.333 0 -141.666 28.333 -186.999 85c-34 41.333 -51 89.333 -51 144c0 18.667 2 38.334 6 59.001l28 144c15.333 79.333 56.666 147.166 123.999 203.499s140.666 84.5 219.999 84.5
c68 0 123.5 -20.5 166.5 -61.5s66.5 -93.5 70.5 -157.5l-146 -41c-0.666992 34 -11.834 61.833 -33.501 83.5s-50.167 32.5 -85.5 32.5z" />
    <glyph glyph-name="guillemotleft" unicode="&#xab;" 
d="M494 72l-328 288l47 240l440 288l-47 -240l-257 -168l192 -168zM878 72l-328 288l47 240l440 288l-47 -240l-257 -168l192 -168z" />
    <glyph glyph-name="logicalnot" unicode="&#xac;" 
d="M784 576h-576l37 192h768l-112 -576h-192z" />
    <glyph glyph-name="uni00AD" unicode="&#xad;" horiz-adv-x="768" 
d="M208 576h576l-37 -192h-576z" />
    <glyph glyph-name="registered" unicode="&#xae;" 
d="M609 662c79.333 0 152.666 28.167 219.999 84.5s109.333 127.5 126 213.5c4.66699 23.333 7 45.333 7 66c0 57.333 -19.667 110.333 -59 159s-98.666 73 -177.999 73s-152.666 -28.167 -219.999 -84.5s-109.333 -127.5 -126 -213.5c-4.66699 -23.333 -7 -45.333 -7 -66
c0 -57.333 19.667 -110.333 59 -159s98.666 -73 177.999 -73zM743 1354c70.667 0 131.667 -17.334 183 -52.001s88.666 -81 111.999 -139c14 -35.333 21 -74.666 21 -117.999c0 -26.667 -2.66699 -55 -8 -85c-15.333 -77.333 -46 -145 -92 -203s-101.333 -104.333 -166 -139
s-132.334 -52 -203.001 -52s-131.667 17.333 -183 52s-88.666 81 -111.999 139c-14 35.333 -21 74 -21 116c0 27.333 3 56.333 9 87c14.667 77.333 45 145 91 203s101.333 104.333 166 139s132.334 52 203.001 52zM672 986.999c4.66699 0 10.5 3.83301 17.5 11.5
s11.5 15.5 13.5 23.5l1 6c0 6 -2 12.167 -6 18.5s-8.33301 9.5 -13 9.5h-24l-13 -69h24zM799 1022c-7.33301 -36 -28.667 -68.999 -64 -98.999l14 -155h-100l-11 123h-9l-24 -123h-96l75 384h120c35.333 0 61.333 -14 78 -42c12.667 -20.667 19 -42.334 19 -65.001
c0 -7.33301 -0.666992 -15 -2 -23z" />
    <glyph glyph-name="macron" unicode="&#xaf;" 
d="M1010 1476h-486l28 144h486z" />
    <glyph glyph-name="degree" unicode="&#xb0;" horiz-adv-x="768" 
d="M619 1210c-40 0 -76.6689 -14.001 -110.002 -42.001s-54.666 -65.333 -63.999 -112c-2.66699 -13.333 -4 -25.666 -4 -36.999c0 -30 9.66699 -57 29 -81s49 -36 89 -36s76.833 14 110.5 42s54.834 65.333 63.501 112c2.66699 13.333 4 26 4 38
c0 29.333 -9.66699 56 -29 80s-49 36 -89 36zM646.998 1354c79.333 0 141.666 -28.001 186.999 -84.001c33.333 -41.333 50 -90.666 50 -147.999c0 -20.667 -2.33301 -42.667 -7 -66c-16.667 -86 -58.667 -157.167 -126 -213.5s-140.666 -84.5 -219.999 -84.5
s-141.666 28.333 -186.999 85c-33.333 40.667 -50 89.667 -50 147c0 20.667 2.33301 42.667 7 66c16.667 86 58.667 157.167 126 213.5s140.666 84.5 219.999 84.5z" />
    <glyph glyph-name="plusminus" unicode="&#xb1;" horiz-adv-x="768" 
d="M400 576h-192l37 192h192l38 192h192l-38 -192h192l-37 -192h-192l-37 -192h-192zM133 192h576l-37 -192h-576z" />
    <glyph glyph-name="acute" unicode="&#xb4;" 
d="M809 1656h216l-186 -216l-144 1z" />
    <glyph glyph-name="mu" unicode="&#xb5;" 
d="M475 960l-114 -586c-2.66699 -14 -4 -27.667 -4 -41c0 -36 12.833 -69.833 38.5 -101.5s65.5 -48.167 119.5 -49.5c55.333 1.33301 104.833 20.333 148.5 57s70.834 81.667 81.501 135l114 586h192l-187 -960h-192l17 90c-34 -30.667 -69 -55 -105 -73
s-71.333 -27 -106 -27c-70.667 0.666992 -131.334 18 -182.001 52l-83 -426h-192l262 1344h192z" />
    <glyph glyph-name="paragraph" unicode="&#xb6;" 
d="M1125 1344l-28 -143.998h-72l-252 -1296h-143l252 1296h-145l-252 -1296h-144l134 691c-72.667 26.667 -127 73 -163 139c-24.667 45.333 -37 94.666 -37 147.999c0 25.333 2.66699 51.333 8 78c13.333 70.667 42.833 135.167 88.5 193.5s101 104.666 166 138.999
s132.833 51.5 203.5 51.5h384z" />
    <glyph glyph-name="periodcentered" unicode="&#xb7;" horiz-adv-x="384" 
d="M400 576h-192l37 192h192z" />
    <glyph glyph-name="cedilla" unicode="&#xb8;" 
d="M389 -96h216l-186 -216l-143 1z" />
    <glyph glyph-name="guillemotright" unicode="&#xbb;" 
d="M494 72l47 240l256 168l-191 168l47 240l328 -288l-47 -240zM110 72l47 240l256 168l-191 168l47 240l328 -288l-47 -240z" />
    <glyph glyph-name="questiondown" unicode="&#xbf;" 
d="M94 -10c17.333 87.333 54.5 158.834 111.5 214.501s119.167 83.5 186.5 83.5c8.66699 0 20.5 8.5 35.5 25.5s25.5 40.5 31.5 70.5l37 192h192l-37 -192c-16 -80.667 -52.333 -148.834 -109 -204.501s-119 -83.5 -187 -83.5c-8 0 -19.667 -8.5 -35 -25.5
s-26.666 -43.833 -33.999 -80.5c-2.66699 -13.333 -4 -26 -4 -38c0 -37.333 13.167 -72.333 39.5 -105s66.166 -49 119.499 -49s102.333 18.667 147 56s72.667 86 84 146h192c-15.333 -77.333 -45.833 -145 -91.5 -203s-101 -104.333 -166 -139s-132.833 -52 -203.5 -52
s-131.5 17.333 -182.5 52s-88.167 81 -111.5 139c-15.333 36.667 -23 75.667 -23 117c0 24.667 2.66699 50 8 76zM571 960.001h192l-38 -192h-192z" />
    <glyph glyph-name="Agrave" unicode="&#xc0;" 
d="M428 480h290l-44 515zM841 1344l119 -1344h-200l-25 288h-398l-137 -288h-200l641 1344h200zM795 1656l30 -215l-144 -1l-102 216h216z" />
    <glyph glyph-name="Aacute" unicode="&#xc1;" 
d="M428 480h290l-44 515zM841 1344l119 -1344h-200l-25 288h-398l-137 -288h-200l641 1344h200zM809 1656h216l-186 -216l-144 1z" />
    <glyph glyph-name="Acircumflex" unicode="&#xc2;" 
d="M428 480h290l-44 515zM841 1344l119 -1344h-200l-25 288h-398l-137 -288h-200l641 1344h200zM681 1656h243l79 -216h-182l-40 107l-82 -107h-182z" />
    <glyph glyph-name="Atilde" unicode="&#xc3;" 
d="M428 480h290l-44 515zM841 1344l119 -1344h-200l-25 288h-398l-137 -288h-200l641 1344h200zM828 1440c-40.667 0 -70.668 15 -90.001 45c-5.33301 6 -12.666 19.333 -21.999 40c-3.33301 8.66699 -6.33301 14 -9 16c-5.33301 2 -10.333 3 -15 3
c-8 -0.666992 -14.667 -3 -20 -7c-2 -2 -3 -3.33301 -3 -4c-3.33301 -3.33301 -6 -10.333 -8 -21l-15 -72h-129c10.667 55.333 19 91 25 107c12.667 37.333 41.667 67.333 87 90c26 12.667 61 19 105 19c56.667 0 93.667 -28.333 111 -85
c3.33301 -9.33301 6.66602 -14.333 9.99902 -15c5.33301 -2 10 -3 14 -3c5.33301 0 11.333 2 18 6s10.667 9.33301 12 16l15 81h131l-14 -71c-11.333 -58 -41.666 -98.333 -90.999 -121c-34.667 -16 -72 -24 -112 -24z" />
    <glyph glyph-name="Adieresis" unicode="&#xc4;" 
d="M428 480h290l-44 515zM841 1344l119 -1344h-200l-25 288h-398l-137 -288h-200l641 1344h200zM479 1476l28 144h192l-28 -144h-192zM863 1476l28 144h192l-28 -144h-192z" />
    <glyph glyph-name="Aring" unicode="&#xc5;" 
d="M428 480h290l-44 515zM841 1344l119 -1344h-200l-25 288h-398l-137 -288h-200l641 1344h200zM921 1656c1.33301 6.66699 1.99902 12.668 1.99902 18.001c0 22 -8.66699 42.167 -26 60.5s-42.333 27.5 -75 27.5s-62.667 -10.333 -90 -31s-43.666 -45.667 -48.999 -75
c-1.33301 -6.66699 -2 -13.334 -2 -20.001c0 -20.667 8.5 -40.167 25.5 -58.5s41.833 -27.5 74.5 -27.5s62.667 10.333 90 31s44 45.667 50 75zM843.999 1872c66.667 0 119.666 -21.001 158.999 -63.001c30.667 -33.333 46 -71.333 46 -114
c0 -12.667 -1.33301 -25.667 -4 -39c-11.333 -59.333 -45 -110.166 -101 -152.499s-117.333 -63.5 -184 -63.5c-67.333 0 -120.666 21.333 -159.999 64c-30 32.667 -45 70.334 -45 113.001c0 12.667 1.33301 25.667 4 39c11.333 59.333 44.833 110.166 100.5 152.499
s117.167 63.5 184.5 63.5z" />
    <glyph glyph-name="AE" unicode="&#xc6;" horiz-adv-x="1248" 
d="M669 480l131 672h-51l-320 -672h240zM1376 1152h-384l-75 -384h193l-38 -192h-192l-75 -384h384l-37 -192h-577l56 288h-294l-137 -288h-200l641 1344h772z" />
    <glyph glyph-name="Ccedilla" unicode="&#xc7;" 
d="M848 903l13 66.9961h-1c2.66699 14 4 27.333 4 40c0 36 -13.167 70.333 -39.5 103s-65.833 49 -118.5 49s-101.5 -18.667 -146.5 -56s-72.833 -82.666 -83.5 -135.999h1l-116 -596h-1c-2.66699 -13.333 -4 -26 -4 -38c0 -36.667 13.333 -71.5 40 -104.5
s66.334 -49.5 119.001 -49.5s101.5 18.833 146.5 56.5s72.5 82.834 82.5 135.501h1l13 68l181 -58c-15.333 -77.333 -45.833 -145.166 -91.5 -203.499s-101 -104.666 -166 -138.999s-132.833 -51.5 -203.5 -51.5s-131.834 17.167 -183.501 51.5
s-88.834 80.833 -111.501 139.5c-14.667 36 -22 74.667 -22 116c0 24.667 2.66699 50.334 8 77.001l116 596c13.333 70.667 42.833 135.167 88.5 193.5s101 104.666 166 138.999s132.833 51.5 203.5 51.5s131.834 -17.167 183.501 -51.5s89.167 -80.833 112.5 -139.5
c14 -35.333 21 -74 21 -116c0 -27.333 -3 -56.333 -9 -87zM389 -96.0039h216l-186 -216l-143 1z" />
    <glyph glyph-name="Egrave" unicode="&#xc8;" 
d="M1088 1152h-576l-75 -384h384l-37 -192h-384l-75 -384h576l-37 -192h-768l261 1344h768zM815 1656l30 -215l-144 -1l-102 216h216z" />
    <glyph glyph-name="Eacute" unicode="&#xc9;" 
d="M1088 1152h-576l-75 -384h384l-37 -192h-384l-75 -384h576l-37 -192h-768l261 1344h768zM809 1656h216l-186 -216l-144 1z" />
    <glyph glyph-name="Ecircumflex" unicode="&#xca;" 
d="M1088 1152h-576l-75 -384h384l-37 -192h-384l-75 -384h576l-37 -192h-768l261 1344h768zM681 1656h243l79 -216h-182l-40 107l-82 -107h-182z" />
    <glyph glyph-name="Edieresis" unicode="&#xcb;" 
d="M1088 1152h-576l-75 -384h384l-37 -192h-384l-75 -384h576l-37 -192h-768l261 1344h768zM479 1476l28 144h192l-28 -144h-192zM863 1476l28 144h192l-28 -144h-192z" />
    <glyph glyph-name="Igrave" unicode="&#xcc;" horiz-adv-x="768" 
d="M896 1152h-192l-187 -960h192l-37 -192h-576l37 192h192l187 960h-192l37 192h576zM709 1656l30 -215l-144 -1l-102 216h216z" />
    <glyph glyph-name="Iacute" unicode="&#xcd;" horiz-adv-x="768" 
d="M896 1152h-192l-187 -960h192l-37 -192h-576l37 192h192l187 960h-192l37 192h576zM703 1656h216l-186 -216l-144 1z" />
    <glyph glyph-name="Icircumflex" unicode="&#xce;" horiz-adv-x="768" 
d="M896 1152h-192l-187 -960h192l-37 -192h-576l37 192h192l187 960h-192l37 192h576zM585 1656h243l79 -216h-182l-40 107l-82 -107h-182z" />
    <glyph glyph-name="Idieresis" unicode="&#xcf;" horiz-adv-x="768" 
d="M896 1152h-192l-187 -960h192l-37 -192h-576l37 192h192l187 960h-192l37 192h576zM383 1476l28 144h192l-28 -144h-192zM767 1476l28 144h192l-28 -144h-192z" />
    <glyph glyph-name="Eth" unicode="&#xd0;" 
d="M241 744l115.999 599.999h384c70.667 0 131.834 -17.167 183.501 -51.5s89.167 -80.5 112.5 -138.5c14 -36.667 21 -76 21 -118c0 -24.667 -2.33301 -50 -7 -76l-112 -576c-14 -70.667 -43.833 -135.167 -89.5 -193.5s-101 -104.666 -166 -138.999
s-132.833 -51.5 -203.5 -51.5h-384l117 600h-96l28 144h96zM433.999 743.999l195 0.000976562l-28 -144h-195l-80 -408h191c52.667 0 101.667 18.667 147 56s73.333 82.666 84 135.999l112 576c2.66699 13.333 4 26 4 38c0 37.333 -13.5 72.333 -40.5 105
s-66.833 49 -119.5 49h-191z" />
    <glyph glyph-name="Ntilde" unicode="&#xd1;" 
d="M933 1344h192l-261 -1344h-292l-90 995l-193 -995h-193l261 1344h292l91 -994zM828 1440c-40.667 0 -70.668 15 -90.001 45c-5.33301 6 -12.666 19.333 -21.999 40c-3.33301 8.66699 -6.33301 14 -9 16c-5.33301 2 -10.333 3 -15 3c-8 -0.666992 -14.667 -3 -20 -7
c-2 -2 -3 -3.33301 -3 -4c-3.33301 -3.33301 -6 -10.333 -8 -21l-15 -72h-129c10.667 55.333 19 91 25 107c12.667 37.333 41.667 67.333 87 90c26 12.667 61 19 105 19c56.667 0 93.667 -28.333 111 -85c3.33301 -9.33301 6.66602 -14.333 9.99902 -15
c5.33301 -2 10 -3 14 -3c5.33301 0 11.333 2 18 6s10.667 9.33301 12 16l15 81h131l-14 -71c-11.333 -58 -41.666 -98.333 -90.999 -121c-34.667 -16 -72 -24 -112 -24z" />
    <glyph glyph-name="Ograve" unicode="&#xd2;" horiz-adv-x="1056" 
d="M840 374l115.998 596c2.66699 14 4 27.333 4 40c0 36 -13.167 70.333 -39.5 103s-65.833 49 -118.5 49h-96c-52.667 0 -101.5 -18.667 -146.5 -56s-72.833 -82.666 -83.5 -135.999h1l-116 -596h-1c-2.66699 -13.333 -4 -26 -4 -38c0 -36.667 13.333 -71.334 40 -104.001
s66.334 -49 119.001 -49h97c52.667 0 101.334 18.667 146.001 56s72 82.333 82 135zM838.998 1354c71.333 0 132.503 -17.168 183.503 -51.501s88.167 -80.833 111.5 -139.5c14.667 -36.667 22 -76 22 -118c0 -24 -2.33301 -49 -7 -75l-116 -596
c-14 -70.667 -44 -135.167 -90 -193.5s-101.333 -104.666 -166 -138.999s-132.334 -51.5 -203.001 -51.5h-96c-70.667 0 -131.834 17.167 -183.501 51.5s-88.834 80.833 -111.501 139.5c-14.667 36 -22 74.667 -22 116c0 24.667 2.66699 50.334 8 77.001l116 596
c13.333 70.667 42.833 135.167 88.5 193.5s101 104.666 166 138.999s132.833 51.5 203.5 51.5h96zM843.001 1656l30 -215l-144 -1l-102 216h216z" />
    <glyph glyph-name="Oacute" unicode="&#xd3;" horiz-adv-x="1056" 
d="M840 374l115.998 596c2.66699 14 4 27.333 4 40c0 36 -13.167 70.333 -39.5 103s-65.833 49 -118.5 49h-96c-52.667 0 -101.5 -18.667 -146.5 -56s-72.833 -82.666 -83.5 -135.999h1l-116 -596h-1c-2.66699 -13.333 -4 -26 -4 -38c0 -36.667 13.333 -71.334 40 -104.001
s66.334 -49 119.001 -49h97c52.667 0 101.334 18.667 146.001 56s72 82.333 82 135zM838.998 1354c71.333 0 132.503 -17.168 183.503 -51.501s88.167 -80.833 111.5 -139.5c14.667 -36.667 22 -76 22 -118c0 -24 -2.33301 -49 -7 -75l-116 -596
c-14 -70.667 -44 -135.167 -90 -193.5s-101.333 -104.666 -166 -138.999s-132.334 -51.5 -203.001 -51.5h-96c-70.667 0 -131.834 17.167 -183.501 51.5s-88.834 80.833 -111.501 139.5c-14.667 36 -22 74.667 -22 116c0 24.667 2.66699 50.334 8 77.001l116 596
c13.333 70.667 42.833 135.167 88.5 193.5s101 104.666 166 138.999s132.833 51.5 203.5 51.5h96zM857.001 1656h216l-186 -216l-144 1z" />
    <glyph glyph-name="Ocircumflex" unicode="&#xd4;" horiz-adv-x="1056" 
d="M840 374l115.998 596c2.66699 14 4 27.333 4 40c0 36 -13.167 70.333 -39.5 103s-65.833 49 -118.5 49h-96c-52.667 0 -101.5 -18.667 -146.5 -56s-72.833 -82.666 -83.5 -135.999h1l-116 -596h-1c-2.66699 -13.333 -4 -26 -4 -38c0 -36.667 13.333 -71.334 40 -104.001
s66.334 -49 119.001 -49h97c52.667 0 101.334 18.667 146.001 56s72 82.333 82 135zM838.998 1354c71.333 0 132.503 -17.168 183.503 -51.501s88.167 -80.833 111.5 -139.5c14.667 -36.667 22 -76 22 -118c0 -24 -2.33301 -49 -7 -75l-116 -596
c-14 -70.667 -44 -135.167 -90 -193.5s-101.333 -104.666 -166 -138.999s-132.334 -51.5 -203.001 -51.5h-96c-70.667 0 -131.834 17.167 -183.501 51.5s-88.834 80.833 -111.501 139.5c-14.667 36 -22 74.667 -22 116c0 24.667 2.66699 50.334 8 77.001l116 596
c13.333 70.667 42.833 135.167 88.5 193.5s101 104.666 166 138.999s132.833 51.5 203.5 51.5h96zM729.001 1656h243l79 -216h-182l-40 107l-82 -107h-182z" />
    <glyph glyph-name="Otilde" unicode="&#xd5;" horiz-adv-x="1056" 
d="M840 374l115.998 596c2.66699 14 4 27.333 4 40c0 36 -13.167 70.333 -39.5 103s-65.833 49 -118.5 49h-96c-52.667 0 -101.5 -18.667 -146.5 -56s-72.833 -82.666 -83.5 -135.999h1l-116 -596h-1c-2.66699 -13.333 -4 -26 -4 -38c0 -36.667 13.333 -71.334 40 -104.001
s66.334 -49 119.001 -49h97c52.667 0 101.334 18.667 146.001 56s72 82.333 82 135zM838.998 1354c71.333 0 132.503 -17.168 183.503 -51.501s88.167 -80.833 111.5 -139.5c14.667 -36.667 22 -76 22 -118c0 -24 -2.33301 -49 -7 -75l-116 -596
c-14 -70.667 -44 -135.167 -90 -193.5s-101.333 -104.666 -166 -138.999s-132.334 -51.5 -203.001 -51.5h-96c-70.667 0 -131.834 17.167 -183.501 51.5s-88.834 80.833 -111.501 139.5c-14.667 36 -22 74.667 -22 116c0 24.667 2.66699 50.334 8 77.001l116 596
c13.333 70.667 42.833 135.167 88.5 193.5s101 104.666 166 138.999s132.833 51.5 203.5 51.5h96zM876.001 1440c-40.667 0 -70.668 15 -90.001 45c-5.33301 6 -12.666 19.333 -21.999 40c-3.33301 8.66699 -6.33301 14 -9 16c-5.33301 2 -10.333 3 -15 3
c-8 -0.666992 -14.667 -3 -20 -7c-2 -2 -3 -3.33301 -3 -4c-3.33301 -3.33301 -6 -10.333 -8 -21l-15 -72h-129c10.667 55.333 19 91 25 107c12.667 37.333 41.667 67.333 87 90c26 12.667 61 19 105 19c56.667 0 93.667 -28.333 111 -85
c3.33301 -9.33301 6.66602 -14.333 9.99902 -15c5.33301 -2 10 -3 14 -3c5.33301 0 11.333 2 18 6s10.667 9.33301 12 16l15 81h131l-14 -71c-11.333 -58 -41.666 -98.333 -90.999 -121c-34.667 -16 -72 -24 -112 -24z" />
    <glyph glyph-name="Odieresis" unicode="&#xd6;" horiz-adv-x="1056" 
d="M840 374l115.998 596c2.66699 14 4 27.333 4 40c0 36 -13.167 70.333 -39.5 103s-65.833 49 -118.5 49h-96c-52.667 0 -101.5 -18.667 -146.5 -56s-72.833 -82.666 -83.5 -135.999h1l-116 -596h-1c-2.66699 -13.333 -4 -26 -4 -38c0 -36.667 13.333 -71.334 40 -104.001
s66.334 -49 119.001 -49h97c52.667 0 101.334 18.667 146.001 56s72 82.333 82 135zM838.998 1354c71.333 0 132.503 -17.168 183.503 -51.501s88.167 -80.833 111.5 -139.5c14.667 -36.667 22 -76 22 -118c0 -24 -2.33301 -49 -7 -75l-116 -596
c-14 -70.667 -44 -135.167 -90 -193.5s-101.333 -104.666 -166 -138.999s-132.334 -51.5 -203.001 -51.5h-96c-70.667 0 -131.834 17.167 -183.501 51.5s-88.834 80.833 -111.501 139.5c-14.667 36 -22 74.667 -22 116c0 24.667 2.66699 50.334 8 77.001l116 596
c13.333 70.667 42.833 135.167 88.5 193.5s101 104.666 166 138.999s132.833 51.5 203.5 51.5h96zM527.001 1476l28 144h192l-28 -144h-192zM911.001 1476l28 144h192l-28 -144h-192z" />
    <glyph glyph-name="multiply" unicode="&#xd7;" horiz-adv-x="768" 
d="M451 344l-162 -136l-110 136l163 136l-110 136l162 136l110 -136l162 136l109 -136l-162 -136l109 -136l-162 -136z" />
    <glyph glyph-name="Oslash" unicode="&#xd8;" horiz-adv-x="1056" 
d="M905 1128c-27.333 22.667 -61.667 33.999 -103 33.999h-96c-52.667 0 -101.667 -18.667 -147 -56s-73 -82.666 -83 -135.999h1l-116 -596h-1l-2 -8zM957.999 976.999l-545.001 -760c27.333 -22.667 61.666 -34 102.999 -34h96c52.667 0 101.334 18.667 146.001 56
s72.334 82.333 83.001 135zM1028 1299l32.001 44.999h161l-104 -145c6.66699 -11.333 12.334 -23 17.001 -35c14.667 -37.333 22 -77 22 -119c0 -24 -2.33301 -49 -7 -75l-116 -596c-14 -70.667 -44 -135.167 -90 -193.5s-101.333 -104.666 -166 -138.999
s-132.334 -51.5 -203.001 -51.5h-96c-70.667 0 -131.667 17.333 -183 52c-2 0.666992 -4 1.66699 -6 3l-32 -45h-161l104 144c-6.66699 12 -12.334 24.333 -17.001 37c-14.667 36 -22 74.667 -22 116c0 24.667 2.66699 50.334 8 77.001l116 596
c13.333 70.667 42.833 135.167 88.5 193.5s101 104.666 166 138.999s132.833 51.5 203.5 51.5h96c70.667 0 131.667 -17 183 -51z" />
    <glyph glyph-name="Ugrave" unicode="&#xd9;" 
d="M937 374c-14 -70.667 -43.8311 -135.168 -89.498 -193.501s-101 -104.666 -166 -138.999s-132.833 -51.5 -203.5 -51.5s-131.834 17.167 -183.501 51.5s-88.834 80.833 -111.501 139.5c-14.667 36 -22 74.667 -22 116c0 24.667 2.66699 50.334 8 77.001l188 970h193
l-189 -970c-2.66699 -13.333 -4 -26 -4 -38c0 -36.667 13.167 -71.334 39.5 -104.001s65.833 -49 118.5 -49c53.333 0 102.5 18.667 147.5 56s72.5 82.333 82.5 135l189 970h191zM795.002 1656l30 -215l-144 -1l-102 216h216z" />
    <glyph glyph-name="Uacute" unicode="&#xda;" 
d="M937 374c-14 -70.667 -43.8311 -135.168 -89.498 -193.501s-101 -104.666 -166 -138.999s-132.833 -51.5 -203.5 -51.5s-131.834 17.167 -183.501 51.5s-88.834 80.833 -111.501 139.5c-14.667 36 -22 74.667 -22 116c0 24.667 2.66699 50.334 8 77.001l188 970h193
l-189 -970c-2.66699 -13.333 -4 -26 -4 -38c0 -36.667 13.167 -71.334 39.5 -104.001s65.833 -49 118.5 -49c53.333 0 102.5 18.667 147.5 56s72.5 82.333 82.5 135l189 970h191zM809.002 1656h216l-186 -216l-144 1z" />
    <glyph glyph-name="Ucircumflex" unicode="&#xdb;" 
d="M937 374c-14 -70.667 -43.8311 -135.168 -89.498 -193.501s-101 -104.666 -166 -138.999s-132.833 -51.5 -203.5 -51.5s-131.834 17.167 -183.501 51.5s-88.834 80.833 -111.501 139.5c-14.667 36 -22 74.667 -22 116c0 24.667 2.66699 50.334 8 77.001l188 970h193
l-189 -970c-2.66699 -13.333 -4 -26 -4 -38c0 -36.667 13.167 -71.334 39.5 -104.001s65.833 -49 118.5 -49c53.333 0 102.5 18.667 147.5 56s72.5 82.333 82.5 135l189 970h191zM681.002 1656h243l79 -216h-182l-40 107l-82 -107h-182z" />
    <glyph glyph-name="Udieresis" unicode="&#xdc;" 
d="M937 374c-14 -70.667 -43.8311 -135.168 -89.498 -193.501s-101 -104.666 -166 -138.999s-132.833 -51.5 -203.5 -51.5s-131.834 17.167 -183.501 51.5s-88.834 80.833 -111.501 139.5c-14.667 36 -22 74.667 -22 116c0 24.667 2.66699 50.334 8 77.001l188 970h193
l-189 -970c-2.66699 -13.333 -4 -26 -4 -38c0 -36.667 13.167 -71.334 39.5 -104.001s65.833 -49 118.5 -49c53.333 0 102.5 18.667 147.5 56s72.5 82.333 82.5 135l189 970h191zM479.002 1476l28 144h192l-28 -144h-192zM863.002 1476l28 144h192l-28 -144h-192z" />
    <glyph glyph-name="Yacute" unicode="&#xdd;" 
d="M1221 1344l-519 -697l-126 -647h-192l126 647l-249 697h221l166 -478l352 478h221zM809 1656h216l-186 -216l-144 1z" />
    <glyph glyph-name="Thorn" unicode="&#xde;" 
d="M821 768c2.66699 14 4.00098 27.334 4.00098 40.001c0 36.667 -13 71.167 -39 103.5s-65.667 48.5 -119 48.5h-192l-112 -576h192c53.333 0 102.166 18.667 146.499 56s71.833 82.666 82.5 135.999zM704.001 1152c70.667 0 131.667 -17.332 183 -51.999
s88.666 -81 111.999 -139c14.667 -36 22 -74.667 22 -116c0 -24.667 -2.66699 -50.334 -8 -77.001l-37 -192c-24 -108.667 -79.167 -199.167 -165.5 -271.5s-184.166 -109.833 -293.499 -112.5h-192l-37 -192h-192l261 1344h192l-37 -192h192z" />
    <glyph glyph-name="germandbls" unicode="&#xdf;" 
d="M478 0l37.001 192.001c42.667 0 81 5 115 15c58 16.667 91.667 48.334 101 95.001c2 10 3 20.333 3 31c0 17.333 -2.33301 36.333 -7 57c-6 28.667 -17 49.667 -33 63s-35.667 25 -59 35c-34.667 12.667 -66 34.667 -94 66c-19.333 26.667 -29 58 -29 94
c0 14 1.33301 29 4 45c10.667 52 34.667 95 72 129c30.667 26.667 61.334 49.334 92.001 68.001c52.667 34 80.334 58.333 83.001 73c2.66699 14 4 27.667 4 41c0 29.333 -8.16699 60.5 -24.5 93.5s-46.5 50.167 -90.5 51.5c-42.667 -2.66699 -80.667 -23.334 -114 -62.001
s-54.333 -80 -63 -124l-187 -963h-192l187 963c19.333 97.333 67.666 184.166 144.999 260.499s164.666 116.5 261.999 120.5c97.333 -2.66699 170.666 -42.334 219.999 -119.001c35.333 -55.333 53 -116 53 -182c0 -26 -2.66699 -52.667 -8 -80
c-7.33301 -38.667 -22 -72.334 -44 -101.001c-32 -42 -80.667 -84 -146 -126c-28 -17.333 -46.667 -30.666 -56 -39.999l-2 -11c3.33301 -3.33301 8.83301 -6.83301 16.5 -10.5l21.5 -10.5c31.333 -12.667 64.166 -33.5 98.499 -62.5s59.833 -75.5 76.5 -139.5
c6 -32.667 9 -63 9 -91c0 -24.667 -2.33301 -47.667 -7 -69c-12.667 -64.667 -38.667 -117.667 -78 -159c-41.333 -46.667 -93.666 -82.167 -156.999 -106.5s-133 -36.5 -209 -36.5z" />
    <glyph glyph-name="agrave" unicode="&#xe0;" 
d="M786 586c2.66699 13.333 3.99805 26.333 3.99805 39c0 36.667 -13.167 71.334 -39.5 104.001s-66.166 49 -119.499 49c-54.667 -1.33301 -104 -20.333 -148 -57s-71 -81.667 -81 -135l-41 -212c-2.66699 -14 -4 -27.333 -4 -40c0 -36.667 13 -71.167 39 -103.5
s65.667 -48.5 119 -48.5s102.333 18.667 147 56s72.334 82.666 83.001 135.999zM858.998 960l191.998 -0.000976562l-187 -960h-192l17 90c-34 -30.667 -69 -55 -105 -73s-71.333 -27 -106 -27c-70.667 0 -131.667 17.333 -183 52s-88.666 81 -111.999 139
c-14.667 36 -22 74.667 -22 116c0 24.667 2.66699 50.334 8 77.001l41 212c24 108.667 79.167 199.167 165.5 271.5s184.166 109.833 293.499 112.5c34.667 0 66.334 -9 95.001 -27s54.334 -42.333 77.001 -73zM719.996 1272l30 -215l-144 -1l-102 216h216z" />
    <glyph glyph-name="aacute" unicode="&#xe1;" 
d="M786 586c2.66699 13.333 3.99805 26.333 3.99805 39c0 36.667 -13.167 71.334 -39.5 104.001s-66.166 49 -119.499 49c-54.667 -1.33301 -104 -20.333 -148 -57s-71 -81.667 -81 -135l-41 -212c-2.66699 -14 -4 -27.333 -4 -40c0 -36.667 13 -71.167 39 -103.5
s65.667 -48.5 119 -48.5s102.333 18.667 147 56s72.334 82.666 83.001 135.999zM858.998 960l191.998 -0.000976562l-187 -960h-192l17 90c-34 -30.667 -69 -55 -105 -73s-71.333 -27 -106 -27c-70.667 0 -131.667 17.333 -183 52s-88.666 81 -111.999 139
c-14.667 36 -22 74.667 -22 116c0 24.667 2.66699 50.334 8 77.001l41 212c24 108.667 79.167 199.167 165.5 271.5s184.166 109.833 293.499 112.5c34.667 0 66.334 -9 95.001 -27s54.334 -42.333 77.001 -73zM733.996 1272h216l-186 -216l-144 1z" />
    <glyph glyph-name="acircumflex" unicode="&#xe2;" 
d="M786 586c2.66699 13.333 3.99805 26.333 3.99805 39c0 36.667 -13.167 71.334 -39.5 104.001s-66.166 49 -119.499 49c-54.667 -1.33301 -104 -20.333 -148 -57s-71 -81.667 -81 -135l-41 -212c-2.66699 -14 -4 -27.333 -4 -40c0 -36.667 13 -71.167 39 -103.5
s65.667 -48.5 119 -48.5s102.333 18.667 147 56s72.334 82.666 83.001 135.999zM858.998 960l191.998 -0.000976562l-187 -960h-192l17 90c-34 -30.667 -69 -55 -105 -73s-71.333 -27 -106 -27c-70.667 0 -131.667 17.333 -183 52s-88.666 81 -111.999 139
c-14.667 36 -22 74.667 -22 116c0 24.667 2.66699 50.334 8 77.001l41 212c24 108.667 79.167 199.167 165.5 271.5s184.166 109.833 293.499 112.5c34.667 0 66.334 -9 95.001 -27s54.334 -42.333 77.001 -73zM847.996 1272l80 -216h-182l-40 107l-82 -107h-182l163 216
h243z" />
    <glyph glyph-name="atilde" unicode="&#xe3;" 
d="M786 586c2.66699 13.333 3.99805 26.333 3.99805 39c0 36.667 -13.167 71.334 -39.5 104.001s-66.166 49 -119.499 49c-54.667 -1.33301 -104 -20.333 -148 -57s-71 -81.667 -81 -135l-41 -212c-2.66699 -14 -4 -27.333 -4 -40c0 -36.667 13 -71.167 39 -103.5
s65.667 -48.5 119 -48.5s102.333 18.667 147 56s72.334 82.666 83.001 135.999zM858.998 960l191.998 -0.000976562l-187 -960h-192l17 90c-34 -30.667 -69 -55 -105 -73s-71.333 -27 -106 -27c-70.667 0 -131.667 17.333 -183 52s-88.666 81 -111.999 139
c-14.667 36 -22 74.667 -22 116c0 24.667 2.66699 50.334 8 77.001l41 212c24 108.667 79.167 199.167 165.5 271.5s184.166 109.833 293.499 112.5c34.667 0 66.334 -9 95.001 -27s54.334 -42.333 77.001 -73zM753.996 1056c-41.333 0 -71.665 15 -90.998 45
c-4.66699 6 -11.667 19.333 -21 40c-4 8.66699 -7 14 -9 16c-6 2 -11.333 3 -16 3c-8 -0.666992 -14.333 -3 -19 -7c-2.66699 -2 -4 -3.33301 -4 -4c-3.33301 -3.33301 -6 -10.333 -8 -21l-14 -72h-130c10.667 55.333 19 91 25 107c12.667 37.333 42 67.333 88 90
c26 12.667 60.667 19 104 19c56.667 0 93.667 -28.333 111 -85c3.33301 -9.33301 6.66602 -14.333 9.99902 -15c5.33301 -2 10 -3 14 -3c6 0 12.167 2 18.5 6s10.166 9.33301 11.499 16l16 81h130l-14 -71c-10.667 -58 -40.667 -98.333 -90 -121
c-34.667 -16 -72 -24 -112 -24z" />
    <glyph glyph-name="adieresis" unicode="&#xe4;" 
d="M786 586c2.66699 13.333 3.99805 26.333 3.99805 39c0 36.667 -13.167 71.334 -39.5 104.001s-66.166 49 -119.499 49c-54.667 -1.33301 -104 -20.333 -148 -57s-71 -81.667 -81 -135l-41 -212c-2.66699 -14 -4 -27.333 -4 -40c0 -36.667 13 -71.167 39 -103.5
s65.667 -48.5 119 -48.5s102.333 18.667 147 56s72.334 82.666 83.001 135.999zM858.998 960l191.998 -0.000976562l-187 -960h-192l17 90c-34 -30.667 -69 -55 -105 -73s-71.333 -27 -106 -27c-70.667 0 -131.667 17.333 -183 52s-88.666 81 -111.999 139
c-14.667 36 -22 74.667 -22 116c0 24.667 2.66699 50.334 8 77.001l41 212c24 108.667 79.167 199.167 165.5 271.5s184.166 109.833 293.499 112.5c34.667 0 66.334 -9 95.001 -27s54.334 -42.333 77.001 -73zM403.996 1092l28 144h192l-28 -144h-192zM787.996 1092l28 144
h192l-28 -144h-192z" />
    <glyph glyph-name="aring" unicode="&#xe5;" 
d="M786 586c2.66699 13.333 3.99805 26.333 3.99805 39c0 36.667 -13.167 71.334 -39.5 104.001s-66.166 49 -119.499 49c-54.667 -1.33301 -104 -20.333 -148 -57s-71 -81.667 -81 -135l-41 -212c-2.66699 -14 -4 -27.333 -4 -40c0 -36.667 13 -71.167 39 -103.5
s65.667 -48.5 119 -48.5s102.333 18.667 147 56s72.334 82.666 83.001 135.999zM858.998 960l191.998 -0.000976562l-187 -960h-192l17 90c-34 -30.667 -69 -55 -105 -73s-71.333 -27 -106 -27c-70.667 0 -131.667 17.333 -183 52s-88.666 81 -111.999 139
c-14.667 36 -22 74.667 -22 116c0 24.667 2.66699 50.334 8 77.001l41 212c24 108.667 79.167 199.167 165.5 271.5s184.166 109.833 293.499 112.5c34.667 0 66.334 -9 95.001 -27s54.334 -42.333 77.001 -73zM845.996 1272c1.33301 6.66699 2.00098 13.333 2.00098 20
c0 20.667 -8.5 40.167 -25.5 58.5s-41.833 27.5 -74.5 27.5s-62.667 -10.333 -90 -31s-44 -45.667 -50 -75c-1.33301 -6.66699 -2 -12.667 -2 -18c0 -22 8.66699 -42.167 26 -60.5s42.333 -27.5 75 -27.5s62.667 10.333 90 31s43.666 45.667 48.999 75zM768.997 1488
c66.667 0 119.668 -21 159.001 -63c30.667 -32.667 46 -70.334 46 -113.001c0 -12.667 -1.33301 -26 -4 -40c-11.333 -59.333 -45 -110.166 -101 -152.499s-117.333 -63.5 -184 -63.5c-67.333 0 -120.333 21.333 -159 64c-30.667 32.667 -46 70.334 -46 113.001
c0 12.667 1.33301 25.667 4 39c12 59.333 45.667 110.166 101 152.499s116.666 63.5 183.999 63.5z" />
    <glyph glyph-name="ae" unicode="&#xe6;" horiz-adv-x="1536" 
d="M1207 778c-53.333 0 -101.834 -18.333 -145.501 -55s-71.5 -82.334 -83.5 -137.001h384c2.66699 13.333 4 26.333 4 39c0 36.667 -13.167 71.334 -39.5 104.001s-66.166 49 -119.499 49zM785.999 586c2.66699 13.333 4 26.333 4 39c0 36.667 -13.333 71.334 -40 104.001
s-66.334 49 -119.001 49c-54.667 -1.33301 -104 -20.333 -148 -57s-71 -81.667 -81 -135l-41 -212c-2.66699 -14 -4 -27.333 -4 -40c0 -36.667 13 -71.167 39 -103.5s65.667 -48.5 119 -48.5s102.333 18.667 147 56s72.334 82.666 83.001 135.999zM1524 432h-576.002
l-11 -58c-2.66699 -14 -4 -27.333 -4 -40c0 -36.667 13 -71.167 39 -103.5s65.667 -48.5 119 -48.5c37.333 0 73.166 9.66699 107.499 29s63.5 48.333 87.5 87l155 -86c-46 -70.667 -103.167 -125.334 -171.5 -164.001s-140.166 -58 -215.499 -58c-70 0 -130.667 17 -182 51
l-8 -41h-192l17 90c-34 -30.667 -69 -55 -105 -73s-71.333 -27 -106 -27c-70.667 0 -131.667 17.333 -183 52s-88.666 81 -111.999 139c-14.667 36 -22 74.667 -22 116c0 24.667 2.66699 50.334 8 77.001l41 212c24 108.667 79.167 199.167 165.5 271.5
s184.166 109.833 293.499 112.5c34.667 0 66.334 -9 95.001 -27s54.334 -42.333 77.001 -73l18 90h192l-8 -41c64.667 34 132 51 202 51c70.667 0 131.5 -17.333 182.5 -52s88.167 -81 111.5 -139c15.333 -36.667 23 -75.667 23 -117c0 -24.667 -2.66699 -50 -8 -76z" />
    <glyph glyph-name="ccedilla" unicode="&#xe7;" 
d="M735 347l174 -56.0029c-40.667 -92 -100.167 -165.167 -178.5 -219.5s-162.5 -81.5 -252.5 -81.5c-70.667 0 -131.667 17.333 -183 52s-88.666 81 -111.999 139c-14.667 36 -22 74.667 -22 116c0 24.667 2.66699 50.334 8 77.001l41 212
c14.667 71.333 44.667 135.833 90 193.5s100.5 103.834 165.5 138.501s132.833 52 203.5 52c90 0 163.5 -27.167 220.5 -81.5s87.833 -127.5 92.5 -219.5l-195 -56c0 52 -14.333 92.5 -43 121.5s-66.334 43.5 -113.001 43.5c-53.333 0 -102.333 -18.667 -147 -56
s-72 -82.666 -82 -135.999l-41 -212c-2.66699 -14 -4 -27.333 -4 -40c0 -36.667 13 -71.167 39 -103.5s65.667 -48.5 119 -48.5c46.667 0 90 14.5 130 43.5s70 69.5 90 121.5zM389 -96.0029h216l-186 -216l-143 1z" />
    <glyph glyph-name="egrave" unicode="&#xe8;" 
d="M631 778c-53.333 0 -101.834 -18.333 -145.501 -55s-71.5 -82.334 -83.5 -137.001h384c2.66699 13.333 4 26.333 4 39c0 36.667 -13.167 71.334 -39.5 104.001s-66.166 49 -119.499 49zM947.999 432h-576l-11 -58c-2.66699 -14 -4 -27.333 -4 -40
c0 -36.667 13 -71.167 39 -103.5s65.667 -48.5 119 -48.5c37.333 0 73.166 9.66699 107.499 29s63.5 48.333 87.5 87l155 -86c-46 -70.667 -103.167 -125.334 -171.5 -164.001s-140.166 -58 -215.499 -58c-70.667 0 -131.667 17.333 -183 52s-88.666 81 -111.999 139
c-14.667 36 -22 74.667 -22 116c0 24.667 2.66699 50.334 8 77.001l41 212c24 108.667 79.167 199.167 165.5 271.5s184.166 109.833 293.499 112.5c70.667 0 131.5 -17.333 182.5 -52s88.167 -81 111.5 -139c15.333 -36.667 23 -75.667 23 -117
c0 -24.667 -2.66699 -50 -8 -76zM719.999 1272l30 -215l-144 -1l-102 216h216z" />
    <glyph glyph-name="eacute" unicode="&#xe9;" 
d="M631 778c-53.333 0 -101.834 -18.333 -145.501 -55s-71.5 -82.334 -83.5 -137.001h384c2.66699 13.333 4 26.333 4 39c0 36.667 -13.167 71.334 -39.5 104.001s-66.166 49 -119.499 49zM947.999 432h-576l-11 -58c-2.66699 -14 -4 -27.333 -4 -40
c0 -36.667 13 -71.167 39 -103.5s65.667 -48.5 119 -48.5c37.333 0 73.166 9.66699 107.499 29s63.5 48.333 87.5 87l155 -86c-46 -70.667 -103.167 -125.334 -171.5 -164.001s-140.166 -58 -215.499 -58c-70.667 0 -131.667 17.333 -183 52s-88.666 81 -111.999 139
c-14.667 36 -22 74.667 -22 116c0 24.667 2.66699 50.334 8 77.001l41 212c24 108.667 79.167 199.167 165.5 271.5s184.166 109.833 293.499 112.5c70.667 0 131.5 -17.333 182.5 -52s88.167 -81 111.5 -139c15.333 -36.667 23 -75.667 23 -117
c0 -24.667 -2.66699 -50 -8 -76zM733.999 1272h216l-186 -216l-144 1z" />
    <glyph glyph-name="ecircumflex" unicode="&#xea;" 
d="M631 778c-53.333 0 -101.834 -18.333 -145.501 -55s-71.5 -82.334 -83.5 -137.001h384c2.66699 13.333 4 26.333 4 39c0 36.667 -13.167 71.334 -39.5 104.001s-66.166 49 -119.499 49zM947.999 432h-576l-11 -58c-2.66699 -14 -4 -27.333 -4 -40
c0 -36.667 13 -71.167 39 -103.5s65.667 -48.5 119 -48.5c37.333 0 73.166 9.66699 107.499 29s63.5 48.333 87.5 87l155 -86c-46 -70.667 -103.167 -125.334 -171.5 -164.001s-140.166 -58 -215.499 -58c-70.667 0 -131.667 17.333 -183 52s-88.666 81 -111.999 139
c-14.667 36 -22 74.667 -22 116c0 24.667 2.66699 50.334 8 77.001l41 212c24 108.667 79.167 199.167 165.5 271.5s184.166 109.833 293.499 112.5c70.667 0 131.5 -17.333 182.5 -52s88.167 -81 111.5 -139c15.333 -36.667 23 -75.667 23 -117
c0 -24.667 -2.66699 -50 -8 -76zM847.999 1272l80 -216h-182l-40 107l-82 -107h-182l163 216h243z" />
    <glyph glyph-name="edieresis" unicode="&#xeb;" 
d="M631 778c-53.333 0 -101.834 -18.333 -145.501 -55s-71.5 -82.334 -83.5 -137.001h384c2.66699 13.333 4 26.333 4 39c0 36.667 -13.167 71.334 -39.5 104.001s-66.166 49 -119.499 49zM947.999 432h-576l-11 -58c-2.66699 -14 -4 -27.333 -4 -40
c0 -36.667 13 -71.167 39 -103.5s65.667 -48.5 119 -48.5c37.333 0 73.166 9.66699 107.499 29s63.5 48.333 87.5 87l155 -86c-46 -70.667 -103.167 -125.334 -171.5 -164.001s-140.166 -58 -215.499 -58c-70.667 0 -131.667 17.333 -183 52s-88.666 81 -111.999 139
c-14.667 36 -22 74.667 -22 116c0 24.667 2.66699 50.334 8 77.001l41 212c24 108.667 79.167 199.167 165.5 271.5s184.166 109.833 293.499 112.5c70.667 0 131.5 -17.333 182.5 -52s88.167 -81 111.5 -139c15.333 -36.667 23 -75.667 23 -117
c0 -24.667 -2.66699 -50 -8 -76zM403.999 1092l28 144h192l-28 -144h-192zM787.999 1092l28 144h192l-28 -144h-192z" />
    <glyph glyph-name="igrave" unicode="&#xec;" horiz-adv-x="384" 
d="M442 1272l30 -215l-144 -1l-102 216h216zM475 960l-187 -960h-192l187 960h192z" />
    <glyph glyph-name="iacute" unicode="&#xed;" horiz-adv-x="384" 
d="M436 1272h216l-186 -216l-144 1zM475 960l-187 -960h-192l187 960h192z" />
    <glyph glyph-name="icircumflex" unicode="&#xee;" horiz-adv-x="384" 
d="M560 1272l80 -216h-182l-40 107l-82 -107h-182l163 216h243zM475 960l-187 -960h-192l187 960h192z" />
    <glyph glyph-name="idieresis" unicode="&#xef;" horiz-adv-x="384" 
d="M475 960l-187 -960h-192l187 960h192zM116 1092l28 144h192l-28 -144h-192zM500 1092l28 144h192l-28 -144h-192z" />
    <glyph glyph-name="eth" unicode="&#xf0;" 
d="M478 -10c-70.667 0 -131.668 17.332 -183.001 51.999s-88.666 81 -111.999 139c-14.667 36 -22 74.667 -22 116c0 24.667 2.66699 50.334 8 77.001l41 212c14 70.667 43.833 135 89.5 193s100.667 104.167 165 138.5s132.5 51.833 204.5 52.5
c49.333 0 93.666 -12.333 132.999 -37c-10 40 -26.667 79.667 -50 119l-182 -93l33 166l67 34c-24 26.667 -51.667 54.334 -83 83.001l199 102c28.667 -28.667 54.334 -57 77.001 -85l166 85l-32 -166l-58 -30c32 -58.667 52.667 -119.334 62 -182.001
c5.33301 -30.667 8 -65.667 8 -105c0 -76 -10.333 -167.667 -31 -275l-41 -212c-14 -70.667 -43.833 -135 -89.5 -193s-101 -104.333 -166 -139s-132.833 -52 -203.5 -52zM514.999 181.999c53.333 0 102.331 18.666 146.998 55.999s72.334 82.666 83.001 135.999l41 212
c2.66699 13.333 4 26.333 4 39c0 36.667 -13.167 71.334 -39.5 104.001s-66.166 49 -119.499 49c-52.667 0 -101.5 -18.667 -146.5 -56s-72.5 -82.666 -82.5 -135.999l-41 -212c-2.66699 -14 -4 -27.333 -4 -40c0 -36 13.167 -70.333 39.5 -103s65.833 -49 118.5 -49z" />
    <glyph glyph-name="ntilde" unicode="&#xf1;" 
d="M669 970c70.667 -0.666992 131.501 -18.168 182.501 -52.501s88.167 -80.5 111.5 -138.5c15.333 -36.667 23 -75.667 23 -117c0 -24.667 -2.66699 -50 -8 -76l-114 -586h-192l114 586c2.66699 13.333 4 26.333 4 39c0 36.667 -12.833 71 -38.5 103
s-65.834 48.667 -120.501 50c-52.667 0 -101.5 -18.667 -146.5 -56s-72.5 -82.666 -82.5 -135.999l-114 -586h-192l187 960h192l-18 -90c34.667 30.667 70 55 106 73s71.333 27 106 27zM754.001 1056c-41.333 0 -71.665 15 -90.998 45c-4.66699 6 -11.667 19.333 -21 40
c-4 8.66699 -7 14 -9 16c-6 2 -11.333 3 -16 3c-8 -0.666992 -14.333 -3 -19 -7c-2.66699 -2 -4 -3.33301 -4 -4c-3.33301 -3.33301 -6 -10.333 -8 -21l-14 -72h-130c10.667 55.333 19 91 25 107c12.667 37.333 42 67.333 88 90c26 12.667 60.667 19 104 19
c56.667 0 93.667 -28.333 111 -85c3.33301 -9.33301 6.66602 -14.333 9.99902 -15c5.33301 -2 10 -3 14 -3c6 0 12.167 2 18.5 6s10.166 9.33301 11.499 16l16 81h130l-14 -71c-10.667 -58 -40.667 -98.333 -90 -121c-34.667 -16 -72 -24 -112 -24z" />
    <glyph glyph-name="ograve" unicode="&#xf2;" 
d="M786 586c2.66699 13.333 3.99805 26.332 3.99805 38.999c0 36.667 -13.167 71.334 -39.5 104.001s-66.166 49 -119.499 49s-102.333 -18.667 -147 -56s-72 -82.666 -82 -135.999l-41 -212c-2.66699 -14 -4 -27.333 -4 -40c0 -36.667 13 -71.167 39 -103.5
s65.667 -48.5 119 -48.5s102.333 18.667 147 56s72.334 82.666 83.001 135.999zM977.998 585.999l-40.999 -212.001c-14 -70.667 -44 -135 -90 -193s-101.333 -104.333 -166 -139s-132.334 -52 -203.001 -52s-131.667 17.333 -183 52s-88.666 81 -111.999 139
c-14.667 36 -22 74.667 -22 116c0 24.667 2.66699 50.334 8 77.001l41 212c24 108.667 79.167 199.167 165.5 271.5s184.166 109.833 293.499 112.5c70.667 0 131.5 -17.333 182.5 -52s88.167 -81 111.5 -139c15.333 -36.667 23 -75.667 23 -117
c0 -24.667 -2.66699 -50 -8 -76zM719.999 1272l30 -215l-144 -1l-102 216h216z" />
    <glyph glyph-name="oacute" unicode="&#xf3;" 
d="M786 586c2.66699 13.333 3.99805 26.332 3.99805 38.999c0 36.667 -13.167 71.334 -39.5 104.001s-66.166 49 -119.499 49s-102.333 -18.667 -147 -56s-72 -82.666 -82 -135.999l-41 -212c-2.66699 -14 -4 -27.333 -4 -40c0 -36.667 13 -71.167 39 -103.5
s65.667 -48.5 119 -48.5s102.333 18.667 147 56s72.334 82.666 83.001 135.999zM977.998 585.999l-40.999 -212.001c-14 -70.667 -44 -135 -90 -193s-101.333 -104.333 -166 -139s-132.334 -52 -203.001 -52s-131.667 17.333 -183 52s-88.666 81 -111.999 139
c-14.667 36 -22 74.667 -22 116c0 24.667 2.66699 50.334 8 77.001l41 212c24 108.667 79.167 199.167 165.5 271.5s184.166 109.833 293.499 112.5c70.667 0 131.5 -17.333 182.5 -52s88.167 -81 111.5 -139c15.333 -36.667 23 -75.667 23 -117
c0 -24.667 -2.66699 -50 -8 -76zM733.999 1272h216l-186 -216l-144 1z" />
    <glyph glyph-name="ocircumflex" unicode="&#xf4;" 
d="M786 586c2.66699 13.333 3.99805 26.332 3.99805 38.999c0 36.667 -13.167 71.334 -39.5 104.001s-66.166 49 -119.499 49s-102.333 -18.667 -147 -56s-72 -82.666 -82 -135.999l-41 -212c-2.66699 -14 -4 -27.333 -4 -40c0 -36.667 13 -71.167 39 -103.5
s65.667 -48.5 119 -48.5s102.333 18.667 147 56s72.334 82.666 83.001 135.999zM977.998 585.999l-40.999 -212.001c-14 -70.667 -44 -135 -90 -193s-101.333 -104.333 -166 -139s-132.334 -52 -203.001 -52s-131.667 17.333 -183 52s-88.666 81 -111.999 139
c-14.667 36 -22 74.667 -22 116c0 24.667 2.66699 50.334 8 77.001l41 212c24 108.667 79.167 199.167 165.5 271.5s184.166 109.833 293.499 112.5c70.667 0 131.5 -17.333 182.5 -52s88.167 -81 111.5 -139c15.333 -36.667 23 -75.667 23 -117
c0 -24.667 -2.66699 -50 -8 -76zM847.999 1272l80 -216h-182l-40 107l-82 -107h-182l163 216h243z" />
    <glyph glyph-name="otilde" unicode="&#xf5;" 
d="M786 586c2.66699 13.333 3.99805 26.332 3.99805 38.999c0 36.667 -13.167 71.334 -39.5 104.001s-66.166 49 -119.499 49s-102.333 -18.667 -147 -56s-72 -82.666 -82 -135.999l-41 -212c-2.66699 -14 -4 -27.333 -4 -40c0 -36.667 13 -71.167 39 -103.5
s65.667 -48.5 119 -48.5s102.333 18.667 147 56s72.334 82.666 83.001 135.999zM977.998 585.999l-40.999 -212.001c-14 -70.667 -44 -135 -90 -193s-101.333 -104.333 -166 -139s-132.334 -52 -203.001 -52s-131.667 17.333 -183 52s-88.666 81 -111.999 139
c-14.667 36 -22 74.667 -22 116c0 24.667 2.66699 50.334 8 77.001l41 212c24 108.667 79.167 199.167 165.5 271.5s184.166 109.833 293.499 112.5c70.667 0 131.5 -17.333 182.5 -52s88.167 -81 111.5 -139c15.333 -36.667 23 -75.667 23 -117
c0 -24.667 -2.66699 -50 -8 -76zM753.999 1056c-41.333 0 -71.665 15 -90.998 45c-4.66699 6 -11.667 19.333 -21 40c-4 8.66699 -7 14 -9 16c-6 2 -11.333 3 -16 3c-8 -0.666992 -14.333 -3 -19 -7c-2.66699 -2 -4 -3.33301 -4 -4c-3.33301 -3.33301 -6 -10.333 -8 -21
l-14 -72h-130c10.667 55.333 19 91 25 107c12.667 37.333 42 67.333 88 90c26 12.667 60.667 19 104 19c56.667 0 93.667 -28.333 111 -85c3.33301 -9.33301 6.66602 -14.333 9.99902 -15c5.33301 -2 10 -3 14 -3c6 0 12.167 2 18.5 6s10.166 9.33301 11.499 16l16 81h130
l-14 -71c-10.667 -58 -40.667 -98.333 -90 -121c-34.667 -16 -72 -24 -112 -24z" />
    <glyph glyph-name="odieresis" unicode="&#xf6;" 
d="M786 586c2.66699 13.333 3.99805 26.332 3.99805 38.999c0 36.667 -13.167 71.334 -39.5 104.001s-66.166 49 -119.499 49s-102.333 -18.667 -147 -56s-72 -82.666 -82 -135.999l-41 -212c-2.66699 -14 -4 -27.333 -4 -40c0 -36.667 13 -71.167 39 -103.5
s65.667 -48.5 119 -48.5s102.333 18.667 147 56s72.334 82.666 83.001 135.999zM977.998 585.999l-40.999 -212.001c-14 -70.667 -44 -135 -90 -193s-101.333 -104.333 -166 -139s-132.334 -52 -203.001 -52s-131.667 17.333 -183 52s-88.666 81 -111.999 139
c-14.667 36 -22 74.667 -22 116c0 24.667 2.66699 50.334 8 77.001l41 212c24 108.667 79.167 199.167 165.5 271.5s184.166 109.833 293.499 112.5c70.667 0 131.5 -17.333 182.5 -52s88.167 -81 111.5 -139c15.333 -36.667 23 -75.667 23 -117
c0 -24.667 -2.66699 -50 -8 -76zM403.999 1092l28 144h192l-28 -144h-192zM787.999 1092l28 144h192l-28 -144h-192z" />
    <glyph glyph-name="divide" unicode="&#xf7;" horiz-adv-x="768" 
d="M208 576h576l-37 -192h-576zM499 96h-192l37 192h192zM611 672h-192l37 192h192z" />
    <glyph glyph-name="oslash" unicode="&#xf8;" 
d="M716 757c-24 14 -52.333 20.999 -85 20.999c-53.333 0 -102.333 -18.667 -147 -56s-72 -82.666 -82 -135.999l-41 -212c-2.66699 -14.667 -4 -28.667 -4 -42v-13zM789 640.999l-359.001 -437.999c24 -14 52.333 -21 85 -21c53.333 0 102.333 18.667 147 56
s72.334 82.666 83.001 135.999l41 212c2.66699 12.667 4 25 4 37c0 6 -0.333008 12 -1 18zM848.999 919l34.0029 40.999h168l-111 -135c9.33301 -14 17 -29.333 23 -46c15.333 -36.667 23 -75.667 23 -117c0 -24.667 -2.66699 -50 -8 -76l-41 -212
c-14 -70.667 -44 -135 -90 -193s-101.333 -104.333 -166 -139s-132.334 -52 -203.001 -52c-70 0 -130.333 17 -181 51l-33 -41h-168l110 135c-8.66699 14 -16.334 29.333 -23.001 46c-14.667 36 -22 74.667 -22 116c0 24.667 2.66699 50.334 8 77.001l41 212
c24 108.667 79.167 199.167 165.5 271.5s184.166 109.833 293.499 112.5c69.333 0 129.333 -17 180 -51z" />
    <glyph glyph-name="ugrave" unicode="&#xf9;" 
d="M859 960l191.999 -0.000976562l-187 -960h-192l17 90c-34 -30.667 -69 -55 -105 -73s-71.333 -27 -106 -27c-71.333 0.666992 -132.5 18.167 -183.5 52.5s-88.167 80.5 -111.5 138.5c-14.667 36 -22 74.667 -22 116c0 24.667 2.66699 50.334 8 77.001l114 586h192
l-114 -586c-2.66699 -14 -4 -27.667 -4 -41c0 -36 12.833 -69.833 38.5 -101.5s65.5 -48.167 119.5 -49.5c55.333 1.33301 104.833 20.333 148.5 57s70.834 81.667 81.501 135zM719.999 1272l30 -215l-144 -1l-102 216h216z" />
    <glyph glyph-name="uacute" unicode="&#xfa;" 
d="M859 960l191.999 -0.000976562l-187 -960h-192l17 90c-34 -30.667 -69 -55 -105 -73s-71.333 -27 -106 -27c-71.333 0.666992 -132.5 18.167 -183.5 52.5s-88.167 80.5 -111.5 138.5c-14.667 36 -22 74.667 -22 116c0 24.667 2.66699 50.334 8 77.001l114 586h192
l-114 -586c-2.66699 -14 -4 -27.667 -4 -41c0 -36 12.833 -69.833 38.5 -101.5s65.5 -48.167 119.5 -49.5c55.333 1.33301 104.833 20.333 148.5 57s70.834 81.667 81.501 135zM733.999 1272h216l-186 -216l-144 1z" />
    <glyph glyph-name="ucircumflex" unicode="&#xfb;" 
d="M859 960l191.999 -0.000976562l-187 -960h-192l17 90c-34 -30.667 -69 -55 -105 -73s-71.333 -27 -106 -27c-71.333 0.666992 -132.5 18.167 -183.5 52.5s-88.167 80.5 -111.5 138.5c-14.667 36 -22 74.667 -22 116c0 24.667 2.66699 50.334 8 77.001l114 586h192
l-114 -586c-2.66699 -14 -4 -27.667 -4 -41c0 -36 12.833 -69.833 38.5 -101.5s65.5 -48.167 119.5 -49.5c55.333 1.33301 104.833 20.333 148.5 57s70.834 81.667 81.501 135zM847.999 1272l80 -216h-182l-40 107l-82 -107h-182l163 216h243z" />
    <glyph glyph-name="udieresis" unicode="&#xfc;" 
d="M859 960l191.999 -0.000976562l-187 -960h-192l17 90c-34 -30.667 -69 -55 -105 -73s-71.333 -27 -106 -27c-71.333 0.666992 -132.5 18.167 -183.5 52.5s-88.167 80.5 -111.5 138.5c-14.667 36 -22 74.667 -22 116c0 24.667 2.66699 50.334 8 77.001l114 586h192
l-114 -586c-2.66699 -14 -4 -27.667 -4 -41c0 -36 12.833 -69.833 38.5 -101.5s65.5 -48.167 119.5 -49.5c55.333 1.33301 104.833 20.333 148.5 57s70.834 81.667 81.501 135zM403.999 1092l28 144h192l-28 -144h-192zM787.999 1092l28 144h192l-28 -144h-192z" />
    <glyph glyph-name="yacute" unicode="&#xfd;" horiz-adv-x="768" 
d="M756 960h199l-501 -1079c-26 -58 -55.833 -104.667 -89.5 -140s-69.5 -62 -107.5 -80s-77.167 -30 -117.5 -36s-79.833 -9 -118.5 -9l38 192c64.667 0 111.167 7 139.5 21s50.5 39 66.5 75l-78 1056h199l50 -686l165 356zM638 1272h216l-186 -216l-144 1z" />
    <glyph glyph-name="thorn" unicode="&#xfe;" 
d="M786 586c2.66699 13.333 4 26.333 4 39c0 36.667 -12.833 71 -38.5 103s-65.834 48.667 -120.501 50c-53.333 0 -102.333 -18.667 -147 -56s-72 -82.666 -82 -135.999l-41 -212c-2.66699 -14 -4 -27.333 -4 -40c0 -36.667 13 -71.167 39 -103.5s65.667 -48.5 119 -48.5
s102.333 18.667 147 56s72.334 82.666 83.001 135.999zM978 586l-40.998 -212.001c-14 -70.667 -44 -135 -90 -193s-101.333 -104.333 -166 -139s-132.334 -52 -203.001 -52c-34.667 0 -66.334 9 -95.001 27s-54.667 42.333 -78 73l-92 -474h-192l336 1728h192l-92 -474
c34.667 30.667 70 55 106 73s71.333 27 106 27c108 -2.66699 191 -40 249 -112c44.667 -55.333 67 -120.666 67 -195.999c0 -24.667 -2.33301 -50 -7 -76z" />
    <glyph glyph-name="ydieresis" unicode="&#xff;" horiz-adv-x="768" 
d="M756 960h199l-501 -1079c-26 -58 -55.833 -104.667 -89.5 -140s-69.5 -62 -107.5 -80s-77.167 -30 -117.5 -36s-79.833 -9 -118.5 -9l38 192c64.667 0 111.167 7 139.5 21s50.5 39 66.5 75l-78 1056h199l50 -686l165 356zM308 1092l28 144h192l-28 -144h-192zM692 1092
l28 144h192l-28 -144h-192z" />
    <glyph glyph-name="Amacron" unicode="&#x100;" 
d="M428 480h290l-44 515zM841 1344l119 -1344h-200l-25 288h-398l-137 -288h-200l641 1344h200zM1010 1476h-486l28 144h486z" />
    <glyph glyph-name="amacron" unicode="&#x101;" 
d="M786 586c2.66699 13.333 3.99805 26.333 3.99805 39c0 36.667 -13.167 71.334 -39.5 104.001s-66.166 49 -119.499 49c-54.667 -1.33301 -104 -20.333 -148 -57s-71 -81.667 -81 -135l-41 -212c-2.66699 -14 -4 -27.333 -4 -40c0 -36.667 13 -71.167 39 -103.5
s65.667 -48.5 119 -48.5s102.333 18.667 147 56s72.334 82.666 83.001 135.999zM858.998 960l191.998 -0.000976562l-187 -960h-192l17 90c-34 -30.667 -69 -55 -105 -73s-71.333 -27 -106 -27c-70.667 0 -131.667 17.333 -183 52s-88.666 81 -111.999 139
c-14.667 36 -22 74.667 -22 116c0 24.667 2.66699 50.334 8 77.001l41 212c24 108.667 79.167 199.167 165.5 271.5s184.166 109.833 293.499 112.5c34.667 0 66.334 -9 95.001 -27s54.334 -42.333 77.001 -73zM934.996 1092h-486l28 144h486z" />
    <glyph glyph-name="Abreve" unicode="&#x102;" 
d="M428 480h290l-44 515zM841 1344l119 -1344h-200l-25 288h-398l-137 -288h-200l641 1344h200zM760 1440c-67.333 0 -120.667 21.332 -160 63.999c-30 32.667 -45 70.334 -45 113.001c0 12.667 1.33301 25.667 4 39h124c-1.33301 -6.66699 -2 -13.334 -2 -20.001
c0 -20.667 8.5 -40.167 25.5 -58.5s41.833 -27.5 74.5 -27.5s62.667 10.333 90 31s44 45.667 50 75h124c-11.333 -59.333 -45 -110.166 -101 -152.499s-117.333 -63.5 -184 -63.5z" />
    <glyph glyph-name="abreve" unicode="&#x103;" 
d="M786 586c2.66699 13.333 3.99805 26.333 3.99805 39c0 36.667 -13.167 71.334 -39.5 104.001s-66.166 49 -119.499 49c-54.667 -1.33301 -104 -20.333 -148 -57s-71 -81.667 -81 -135l-41 -212c-2.66699 -14 -4 -27.333 -4 -40c0 -36.667 13 -71.167 39 -103.5
s65.667 -48.5 119 -48.5s102.333 18.667 147 56s72.334 82.666 83.001 135.999zM858.998 960l191.998 -0.000976562l-187 -960h-192l17 90c-34 -30.667 -69 -55 -105 -73s-71.333 -27 -106 -27c-70.667 0 -131.667 17.333 -183 52s-88.666 81 -111.999 139
c-14.667 36 -22 74.667 -22 116c0 24.667 2.66699 50.334 8 77.001l41 212c24 108.667 79.167 199.167 165.5 271.5s184.166 109.833 293.499 112.5c34.667 0 66.334 -9 95.001 -27s54.334 -42.333 77.001 -73zM684.996 1056c-67.333 0 -120.332 21.3311 -158.999 63.998
c-30.667 32.667 -46 70.334 -46 113.001c0 12.667 1.33301 25.667 4 39h124c-1.33301 -6.66699 -2 -12.667 -2 -18c0 -22 8.66699 -42.167 26 -60.5s42.333 -27.5 75 -27.5s62.667 10.333 90 31s43.666 45.667 48.999 75h124c-11.333 -59.333 -45 -110.166 -101 -152.499
s-117.333 -63.5 -184 -63.5z" />
    <glyph glyph-name="Aogonek" unicode="&#x104;" 
d="M428 480h290l-44 515zM757 39l-21.999 248.999h-398l-137 -288h-200l641 1344h200l119 -1344h-153l-8 -18c-12 -24.667 -19.667 -46.667 -23 -66c-1.33301 -8 -2 -15.667 -2 -23c0 -14 3.66699 -29.167 11 -45.5s25.5 -27.666 54.5 -33.999s56.5 -9.5 82.5 -9.5l-25 -128
c-79.333 0 -143 21 -191 63c-38.667 34 -58 73.667 -58 119c0 10.667 1 21.667 3 33c11.333 58 46.666 107.333 105.999 148z" />
    <glyph glyph-name="aogonek" unicode="&#x105;" 
d="M786 586c2.66699 13.333 3.99805 26.333 3.99805 39c0 36.667 -13.167 71.334 -39.5 104.001s-66.166 49 -119.499 49c-54.667 -1.33301 -104 -20.333 -148 -57s-71 -81.667 -81 -135l-41 -212c-2.66699 -14 -4 -27.333 -4 -40c0 -36.667 13 -71.167 39 -103.5
s65.667 -48.5 119 -48.5s102.333 18.667 147 56s72.334 82.666 83.001 135.999zM681.998 53l6.99805 36.998c-34 -30.667 -69 -55 -105 -73s-71.333 -27 -106 -27c-70.667 0 -131.667 17.333 -183 52s-88.666 81 -111.999 139c-14.667 36 -22 74.667 -22 116
c0 24.667 2.66699 50.334 8 77.001l41 212c24 108.667 79.167 199.167 165.5 271.5s184.166 109.833 293.499 112.5c34.667 0 66.334 -9 95.001 -27s54.334 -42.333 77.001 -73l18 90h192l-187 -960h-153l-8 -18c-12 -24.667 -19.667 -46.667 -23 -66
c-1.33301 -8 -2 -15.667 -2 -23c0 -14 3.66699 -29.167 11 -45.5s25.5 -27.666 54.5 -33.999s56.5 -9.5 82.5 -9.5l-25 -128c-79.333 0 -143 21 -191 63c-38.667 34 -58 73.667 -58 119c0 10.667 1 21.667 3 33c12 60.667 50.333 112 115 154z" />
    <glyph glyph-name="Cacute" unicode="&#x106;" 
d="M848 903l13 66.9961h-1c2.66699 14 4 27.333 4 40c0 36 -13.167 70.333 -39.5 103s-65.833 49 -118.5 49s-101.5 -18.667 -146.5 -56s-72.833 -82.666 -83.5 -135.999h1l-116 -596h-1c-2.66699 -13.333 -4 -26 -4 -38c0 -36.667 13.333 -71.5 40 -104.5
s66.334 -49.5 119.001 -49.5s101.5 18.833 146.5 56.5s72.5 82.834 82.5 135.501h1l13 68l181 -58c-15.333 -77.333 -45.833 -145.166 -91.5 -203.499s-101 -104.666 -166 -138.999s-132.833 -51.5 -203.5 -51.5s-131.834 17.167 -183.501 51.5
s-88.834 80.833 -111.501 139.5c-14.667 36 -22 74.667 -22 116c0 24.667 2.66699 50.334 8 77.001l116 596c13.333 70.667 42.833 135.167 88.5 193.5s101 104.666 166 138.999s132.833 51.5 203.5 51.5s131.834 -17.167 183.501 -51.5s89.167 -80.833 112.5 -139.5
c14 -35.333 21 -74 21 -116c0 -27.333 -3 -56.333 -9 -87zM809 1656h216l-186 -216l-144 1z" />
    <glyph glyph-name="cacute" unicode="&#x107;" 
d="M735 347l174 -56.0029c-40.667 -92 -100.167 -165.167 -178.5 -219.5s-162.5 -81.5 -252.5 -81.5c-70.667 0 -131.667 17.333 -183 52s-88.666 81 -111.999 139c-14.667 36 -22 74.667 -22 116c0 24.667 2.66699 50.334 8 77.001l41 212
c14.667 71.333 44.667 135.833 90 193.5s100.5 103.834 165.5 138.501s132.833 52 203.5 52c90 0 163.5 -27.167 220.5 -81.5s87.833 -127.5 92.5 -219.5l-195 -56c0 52 -14.333 92.5 -43 121.5s-66.334 43.5 -113.001 43.5c-53.333 0 -102.333 -18.667 -147 -56
s-72 -82.666 -82 -135.999l-41 -212c-2.66699 -14 -4 -27.333 -4 -40c0 -36.667 13 -71.167 39 -103.5s65.667 -48.5 119 -48.5c46.667 0 90 14.5 130 43.5s70 69.5 90 121.5zM734 1272h216l-186 -216l-144 1z" />
    <glyph glyph-name="Ccircumflex" unicode="&#x108;" 
d="M848 903l13 66.9961h-1c2.66699 14 4 27.333 4 40c0 36 -13.167 70.333 -39.5 103s-65.833 49 -118.5 49s-101.5 -18.667 -146.5 -56s-72.833 -82.666 -83.5 -135.999h1l-116 -596h-1c-2.66699 -13.333 -4 -26 -4 -38c0 -36.667 13.333 -71.5 40 -104.5
s66.334 -49.5 119.001 -49.5s101.5 18.833 146.5 56.5s72.5 82.834 82.5 135.501h1l13 68l181 -58c-15.333 -77.333 -45.833 -145.166 -91.5 -203.499s-101 -104.666 -166 -138.999s-132.833 -51.5 -203.5 -51.5s-131.834 17.167 -183.501 51.5
s-88.834 80.833 -111.501 139.5c-14.667 36 -22 74.667 -22 116c0 24.667 2.66699 50.334 8 77.001l116 596c13.333 70.667 42.833 135.167 88.5 193.5s101 104.666 166 138.999s132.833 51.5 203.5 51.5s131.834 -17.167 183.501 -51.5s89.167 -80.833 112.5 -139.5
c14 -35.333 21 -74 21 -116c0 -27.333 -3 -56.333 -9 -87zM681 1656h243l79 -216h-182l-40 107l-82 -107h-182z" />
    <glyph glyph-name="ccircumflex" unicode="&#x109;" 
d="M735 347l174 -56.0029c-40.667 -92 -100.167 -165.167 -178.5 -219.5s-162.5 -81.5 -252.5 -81.5c-70.667 0 -131.667 17.333 -183 52s-88.666 81 -111.999 139c-14.667 36 -22 74.667 -22 116c0 24.667 2.66699 50.334 8 77.001l41 212
c14.667 71.333 44.667 135.833 90 193.5s100.5 103.834 165.5 138.501s132.833 52 203.5 52c90 0 163.5 -27.167 220.5 -81.5s87.833 -127.5 92.5 -219.5l-195 -56c0 52 -14.333 92.5 -43 121.5s-66.334 43.5 -113.001 43.5c-53.333 0 -102.333 -18.667 -147 -56
s-72 -82.666 -82 -135.999l-41 -212c-2.66699 -14 -4 -27.333 -4 -40c0 -36.667 13 -71.167 39 -103.5s65.667 -48.5 119 -48.5c46.667 0 90 14.5 130 43.5s70 69.5 90 121.5zM848 1272l80 -216h-182l-40 107l-82 -107h-182l163 216h243z" />
    <glyph glyph-name="Cdotaccent" unicode="&#x10a;" 
d="M848 903l13 66.9961h-1c2.66699 14 4 27.333 4 40c0 36 -13.167 70.333 -39.5 103s-65.833 49 -118.5 49s-101.5 -18.667 -146.5 -56s-72.833 -82.666 -83.5 -135.999h1l-116 -596h-1c-2.66699 -13.333 -4 -26 -4 -38c0 -36.667 13.333 -71.5 40 -104.5
s66.334 -49.5 119.001 -49.5s101.5 18.833 146.5 56.5s72.5 82.834 82.5 135.501h1l13 68l181 -58c-15.333 -77.333 -45.833 -145.166 -91.5 -203.499s-101 -104.666 -166 -138.999s-132.833 -51.5 -203.5 -51.5s-131.834 17.167 -183.501 51.5
s-88.834 80.833 -111.501 139.5c-14.667 36 -22 74.667 -22 116c0 24.667 2.66699 50.334 8 77.001l116 596c13.333 70.667 42.833 135.167 88.5 193.5s101 104.666 166 138.999s132.833 51.5 203.5 51.5s131.834 -17.167 183.501 -51.5s89.167 -80.833 112.5 -139.5
c14 -35.333 21 -74 21 -116c0 -27.333 -3 -56.333 -9 -87zM671 1476l28 144h192l-28 -144h-192z" />
    <glyph glyph-name="cdotaccent" unicode="&#x10b;" 
d="M735 347l174 -56.0029c-40.667 -92 -100.167 -165.167 -178.5 -219.5s-162.5 -81.5 -252.5 -81.5c-70.667 0 -131.667 17.333 -183 52s-88.666 81 -111.999 139c-14.667 36 -22 74.667 -22 116c0 24.667 2.66699 50.334 8 77.001l41 212
c14.667 71.333 44.667 135.833 90 193.5s100.5 103.834 165.5 138.501s132.833 52 203.5 52c90 0 163.5 -27.167 220.5 -81.5s87.833 -127.5 92.5 -219.5l-195 -56c0 52 -14.333 92.5 -43 121.5s-66.334 43.5 -113.001 43.5c-53.333 0 -102.333 -18.667 -147 -56
s-72 -82.666 -82 -135.999l-41 -212c-2.66699 -14 -4 -27.333 -4 -40c0 -36.667 13 -71.167 39 -103.5s65.667 -48.5 119 -48.5c46.667 0 90 14.5 130 43.5s70 69.5 90 121.5zM596 1092l28 144h192l-28 -144h-192z" />
    <glyph glyph-name="Ccaron" unicode="&#x10c;" 
d="M848 903l13 66.9961h-1c2.66699 14 4 27.333 4 40c0 36 -13.167 70.333 -39.5 103s-65.833 49 -118.5 49s-101.5 -18.667 -146.5 -56s-72.833 -82.666 -83.5 -135.999h1l-116 -596h-1c-2.66699 -13.333 -4 -26 -4 -38c0 -36.667 13.333 -71.5 40 -104.5
s66.334 -49.5 119.001 -49.5s101.5 18.833 146.5 56.5s72.5 82.834 82.5 135.501h1l13 68l181 -58c-15.333 -77.333 -45.833 -145.166 -91.5 -203.499s-101 -104.666 -166 -138.999s-132.833 -51.5 -203.5 -51.5s-131.834 17.167 -183.501 51.5
s-88.834 80.833 -111.501 139.5c-14.667 36 -22 74.667 -22 116c0 24.667 2.66699 50.334 8 77.001l116 596c13.333 70.667 42.833 135.167 88.5 193.5s101 104.666 166 138.999s132.833 51.5 203.5 51.5s131.834 -17.167 183.501 -51.5s89.167 -80.833 112.5 -139.5
c14 -35.333 21 -74 21 -116c0 -27.333 -3 -56.333 -9 -87zM639 1440l-80 216h182l40 -107l82 107h182l-163 -216h-243z" />
    <glyph glyph-name="ccaron" unicode="&#x10d;" 
d="M735 347l174 -56.0029c-40.667 -92 -100.167 -165.167 -178.5 -219.5s-162.5 -81.5 -252.5 -81.5c-70.667 0 -131.667 17.333 -183 52s-88.666 81 -111.999 139c-14.667 36 -22 74.667 -22 116c0 24.667 2.66699 50.334 8 77.001l41 212
c14.667 71.333 44.667 135.833 90 193.5s100.5 103.834 165.5 138.501s132.833 52 203.5 52c90 0 163.5 -27.167 220.5 -81.5s87.833 -127.5 92.5 -219.5l-195 -56c0 52 -14.333 92.5 -43 121.5s-66.334 43.5 -113.001 43.5c-53.333 0 -102.333 -18.667 -147 -56
s-72 -82.666 -82 -135.999l-41 -212c-2.66699 -14 -4 -27.333 -4 -40c0 -36.667 13 -71.167 39 -103.5s65.667 -48.5 119 -48.5c46.667 0 90 14.5 130 43.5s70 69.5 90 121.5zM564 1056l-80 216h182l40 -107l82 107h182l-163 -216h-243z" />
    <glyph glyph-name="Dcaron" unicode="&#x10e;" 
d="M747 384l112.001 576.001c2.66699 14 4 27.333 4 40c0 36 -13.333 70.333 -40 103s-66.334 49 -119.001 49h-191l-187 -960h191c52.667 0 101.667 18.667 147 56s73 82.666 83 135.999zM741.001 1344c71.333 0 132.668 -17.168 184.001 -51.501
s88.666 -80.833 111.999 -139.5c14 -36.667 21 -75.667 21 -117c0 -24.667 -2.33301 -50 -7 -76l-112 -576c-14 -70.667 -43.833 -135.167 -89.5 -193.5s-101 -104.666 -166 -138.999s-132.833 -51.5 -203.5 -51.5h-384l261 1344h384zM543.003 1440l-80 216h182l40 -107
l82 107h182l-163 -216h-243z" />
    <glyph glyph-name="dcaron" unicode="&#x10f;" 
d="M402 586l-41.002 -212c-2.66699 -14 -4 -27.333 -4 -40c0 -36.667 13 -71.167 39 -103.5s65.667 -48.5 119 -48.5s102.333 18.667 147 56s72.334 82.666 83.001 135.999l41 212c2.66699 13.333 4 26.333 4 39c0 36.667 -13.167 71.334 -39.5 104.001
s-66.166 49 -119.499 49c-54.667 -1.33301 -104 -20.333 -148 -57s-71 -81.667 -81 -135zM209.998 586c24 108.667 79.165 199.166 165.498 271.499s184.166 109.833 293.499 112.5c34.667 0 66.334 -9 95.001 -27s54.334 -42.333 77.001 -73l92 474h192l-261 -1344h-192
l17 90c-34 -30.667 -69 -55 -105 -73s-71.333 -27 -106 -27c-70.667 0 -131.667 17.333 -183 52s-88.666 81 -111.999 139c-14.667 36 -22 74.667 -22 116c0 24.667 2.66699 50.334 8 77.001zM1221 1344h144l-28 -144c-7.33301 -40 -27.833 -74 -61.5 -102
s-70.5 -42 -110.5 -42l14 72c20 0 38.333 7 55 21s27 31 31 51h-72z" />
    <glyph glyph-name="Dcroat" unicode="&#x110;" 
d="M241 744l115.999 599.999h384c70.667 0 131.834 -17.167 183.501 -51.5s89.167 -80.5 112.5 -138.5c14 -36.667 21 -76 21 -118c0 -24.667 -2.33301 -50 -7 -76l-112 -576c-14 -70.667 -43.833 -135.167 -89.5 -193.5s-101 -104.666 -166 -138.999
s-132.833 -51.5 -203.5 -51.5h-384l117 600h-96l28 144h96zM433.999 743.999l195 0.000976562l-28 -144h-195l-80 -408h191c52.667 0 101.667 18.667 147 56s73.333 82.666 84 135.999l112 576c2.66699 13.333 4 26 4 38c0 37.333 -13.5 72.333 -40.5 105
s-66.833 49 -119.5 49h-191z" />
    <glyph glyph-name="dcroat" unicode="&#x111;" 
d="M402 586l-41.002 -212c-2.66699 -14 -4 -27.333 -4 -40c0 -36.667 13 -71.167 39 -103.5s65.667 -48.5 119 -48.5s102.333 18.667 147 56s72.334 82.666 83.001 135.999l41 212c2.66699 13.333 4 26.333 4 39c0 36.667 -13.167 71.334 -39.5 104.001
s-66.166 49 -119.499 49c-54.667 -1.33301 -104 -20.333 -148 -57s-71 -81.667 -81 -135zM1074 1080l-210.002 -1080h-192l17 90c-34 -30.667 -69 -55 -105 -73s-71.333 -27 -106 -27c-70.667 0 -131.667 17.333 -183 52s-88.666 81 -111.999 139
c-14.667 36 -22 74.667 -22 116c0 24.667 2.66699 50.334 8 77.001l41 212c24 108.667 79.167 199.167 165.5 271.5s184.166 109.833 293.499 112.5c34.667 0 66.334 -9 95.001 -27s54.334 -42.333 77.001 -73l41 210h-288l28 144h288l23 120h192l-23 -120h96l-28 -144h-96z
" />
    <glyph glyph-name="Emacron" unicode="&#x112;" 
d="M1088 1152h-576l-75 -384h384l-37 -192h-384l-75 -384h576l-37 -192h-768l261 1344h768zM1010 1476h-486l28 144h486z" />
    <glyph glyph-name="emacron" unicode="&#x113;" 
d="M631 778c-53.333 0 -101.834 -18.333 -145.501 -55s-71.5 -82.334 -83.5 -137.001h384c2.66699 13.333 4 26.333 4 39c0 36.667 -13.167 71.334 -39.5 104.001s-66.166 49 -119.499 49zM947.999 432h-576l-11 -58c-2.66699 -14 -4 -27.333 -4 -40
c0 -36.667 13 -71.167 39 -103.5s65.667 -48.5 119 -48.5c37.333 0 73.166 9.66699 107.499 29s63.5 48.333 87.5 87l155 -86c-46 -70.667 -103.167 -125.334 -171.5 -164.001s-140.166 -58 -215.499 -58c-70.667 0 -131.667 17.333 -183 52s-88.666 81 -111.999 139
c-14.667 36 -22 74.667 -22 116c0 24.667 2.66699 50.334 8 77.001l41 212c24 108.667 79.167 199.167 165.5 271.5s184.166 109.833 293.499 112.5c70.667 0 131.5 -17.333 182.5 -52s88.167 -81 111.5 -139c15.333 -36.667 23 -75.667 23 -117
c0 -24.667 -2.66699 -50 -8 -76zM934.999 1092h-486l28 144h486z" />
    <glyph glyph-name="Ebreve" unicode="&#x114;" 
d="M1088 1152h-576l-75 -384h384l-37 -192h-384l-75 -384h576l-37 -192h-768l261 1344h768zM760 1440c-67.333 0 -120.667 21.332 -160 63.999c-30 32.667 -45 70.334 -45 113.001c0 12.667 1.33301 25.667 4 39h124c-1.33301 -6.66699 -2 -13.334 -2 -20.001
c0 -20.667 8.5 -40.167 25.5 -58.5s41.833 -27.5 74.5 -27.5s62.667 10.333 90 31s44 45.667 50 75h124c-11.333 -59.333 -45 -110.166 -101 -152.499s-117.333 -63.5 -184 -63.5z" />
    <glyph glyph-name="ebreve" unicode="&#x115;" 
d="M631 778c-53.333 0 -101.834 -18.333 -145.501 -55s-71.5 -82.334 -83.5 -137.001h384c2.66699 13.333 4 26.333 4 39c0 36.667 -13.167 71.334 -39.5 104.001s-66.166 49 -119.499 49zM947.999 432h-576l-11 -58c-2.66699 -14 -4 -27.333 -4 -40
c0 -36.667 13 -71.167 39 -103.5s65.667 -48.5 119 -48.5c37.333 0 73.166 9.66699 107.499 29s63.5 48.333 87.5 87l155 -86c-46 -70.667 -103.167 -125.334 -171.5 -164.001s-140.166 -58 -215.499 -58c-70.667 0 -131.667 17.333 -183 52s-88.666 81 -111.999 139
c-14.667 36 -22 74.667 -22 116c0 24.667 2.66699 50.334 8 77.001l41 212c24 108.667 79.167 199.167 165.5 271.5s184.166 109.833 293.499 112.5c70.667 0 131.5 -17.333 182.5 -52s88.167 -81 111.5 -139c15.333 -36.667 23 -75.667 23 -117
c0 -24.667 -2.66699 -50 -8 -76zM684.999 1056c-67.333 0 -120.332 21.3311 -158.999 63.998c-30.667 32.667 -46 70.334 -46 113.001c0 12.667 1.33301 25.667 4 39h124c-1.33301 -6.66699 -2 -12.667 -2 -18c0 -22 8.66699 -42.167 26 -60.5s42.333 -27.5 75 -27.5
s62.667 10.333 90 31s43.666 45.667 48.999 75h124c-11.333 -59.333 -45 -110.166 -101 -152.499s-117.333 -63.5 -184 -63.5z" />
    <glyph glyph-name="Edotaccent" unicode="&#x116;" 
d="M1088 1152h-576l-75 -384h384l-37 -192h-384l-75 -384h576l-37 -192h-768l261 1344h768zM671 1476l28 144h192l-28 -144h-192z" />
    <glyph glyph-name="edotaccent" unicode="&#x117;" 
d="M631 778c-53.333 0 -101.834 -18.333 -145.501 -55s-71.5 -82.334 -83.5 -137.001h384c2.66699 13.333 4 26.333 4 39c0 36.667 -13.167 71.334 -39.5 104.001s-66.166 49 -119.499 49zM947.999 432h-576l-11 -58c-2.66699 -14 -4 -27.333 -4 -40
c0 -36.667 13 -71.167 39 -103.5s65.667 -48.5 119 -48.5c37.333 0 73.166 9.66699 107.499 29s63.5 48.333 87.5 87l155 -86c-46 -70.667 -103.167 -125.334 -171.5 -164.001s-140.166 -58 -215.499 -58c-70.667 0 -131.667 17.333 -183 52s-88.666 81 -111.999 139
c-14.667 36 -22 74.667 -22 116c0 24.667 2.66699 50.334 8 77.001l41 212c24 108.667 79.167 199.167 165.5 271.5s184.166 109.833 293.499 112.5c70.667 0 131.5 -17.333 182.5 -52s88.167 -81 111.5 -139c15.333 -36.667 23 -75.667 23 -117
c0 -24.667 -2.66699 -50 -8 -76zM595.999 1092l28 144h192l-28 -144h-192z" />
    <glyph glyph-name="Eogonek" unicode="&#x118;" 
d="M614 0l-518 -0.000976562l261 1344h768l-37 -192h-576l-75 -384h384l-37 -192h-384l-75 -384h576l-37 -192h-153l-8 -18c-12 -24.667 -19.667 -46.667 -23 -66c-1.33301 -8 -2 -15.667 -2 -23c0 -14 3.66699 -29.167 11 -45.5s25.5 -27.666 54.5 -33.999
s56.5 -9.5 82.5 -9.5l-25 -128c-79.333 0 -143 21 -191 63c-38.667 34 -58 73.667 -58 119c0 10.667 1 21.667 3 33c8 40.667 27.667 77 59 109z" />
    <glyph glyph-name="eogonek" unicode="&#x119;" 
d="M631 778c-53.333 0 -101.834 -18.333 -145.501 -55s-71.5 -82.334 -83.5 -137.001h384c2.66699 13.333 4 26.333 4 39c0 36.667 -13.167 71.334 -39.5 104.001s-66.166 49 -119.499 49zM460.999 -10c-63.333 2.66699 -118.667 19.998 -166 51.998
c-51.333 34.667 -88.666 81 -111.999 139c-14.667 36 -22 74.667 -22 116c0 24.667 2.66699 50.334 8 77.001l41 212c24 108.667 79.167 199.167 165.5 271.5s184.166 109.833 293.499 112.5c70.667 0 131.5 -17.333 182.5 -52s88.167 -81 111.5 -139
c15.333 -36.667 23 -75.667 23 -117c0 -24.667 -2.66699 -50 -8 -76l-30 -154h-576l-11 -58c-2.66699 -14 -4 -27.333 -4 -40c0 -36.667 13 -71.167 39 -103.5s65.667 -48.5 119 -48.5c37.333 0 73.166 9.66699 107.499 29s63.5 48.333 87.5 87l155 -86
c-46 -70.667 -103.333 -125.334 -172 -164.001c-40.667 -23.333 -83 -39.666 -127 -48.999c-17.333 -40 -27.333 -67.667 -30 -83c-1.33301 -8 -2 -15.667 -2 -23c0 -14 3.66699 -29.167 11 -45.5s25.5 -27.666 54.5 -33.999s56.5 -9.5 82.5 -9.5l-25 -128
c-79.333 0 -143 21 -191 63c-38.667 34 -58 73.667 -58 119c0 10.667 1 21.667 3 33c6.66699 36.667 23.334 69.667 50.001 99z" />
    <glyph glyph-name="Ecaron" unicode="&#x11a;" 
d="M1088 1152h-576l-75 -384h384l-37 -192h-384l-75 -384h576l-37 -192h-768l261 1344h768zM639 1440l-80 216h182l40 -107l82 107h182l-163 -216h-243z" />
    <glyph glyph-name="ecaron" unicode="&#x11b;" 
d="M631 778c-53.333 0 -101.834 -18.333 -145.501 -55s-71.5 -82.334 -83.5 -137.001h384c2.66699 13.333 4 26.333 4 39c0 36.667 -13.167 71.334 -39.5 104.001s-66.166 49 -119.499 49zM947.999 432h-576l-11 -58c-2.66699 -14 -4 -27.333 -4 -40
c0 -36.667 13 -71.167 39 -103.5s65.667 -48.5 119 -48.5c37.333 0 73.166 9.66699 107.499 29s63.5 48.333 87.5 87l155 -86c-46 -70.667 -103.167 -125.334 -171.5 -164.001s-140.166 -58 -215.499 -58c-70.667 0 -131.667 17.333 -183 52s-88.666 81 -111.999 139
c-14.667 36 -22 74.667 -22 116c0 24.667 2.66699 50.334 8 77.001l41 212c24 108.667 79.167 199.167 165.5 271.5s184.166 109.833 293.499 112.5c70.667 0 131.5 -17.333 182.5 -52s88.167 -81 111.5 -139c15.333 -36.667 23 -75.667 23 -117
c0 -24.667 -2.66699 -50 -8 -76zM563.999 1056l-80 216h182l40 -107l82 107h182l-163 -216h-243z" />
    <glyph glyph-name="Gcircumflex" unicode="&#x11c;" 
d="M611 672h383.998l-131 -672h-96l-29 77c-81.333 -58 -168.333 -87 -261 -87c-70.667 0 -131.667 17.167 -183 51.5s-88.666 80.833 -111.999 139.5c-14.667 36 -22 74.667 -22 116c0 24.667 2.66699 50.334 8 77.001l116 596c13.333 70.667 43 135.167 89 193.5
s101.333 104.666 166 138.999s132.334 51.5 203.001 51.5s131.667 -17.167 183 -51.5s88.666 -80.833 111.999 -139.5c14 -35.333 21 -74.666 21 -117.999c0 -26.667 -2.66699 -55 -8 -85h-192c3.33301 16 5 31.333 5 46c0 39.333 -13 75.166 -39 107.499
s-65.667 48.5 -119 48.5s-102.333 -18.833 -147 -56.5s-72 -82.834 -82 -135.501l-116 -596c-2.66699 -14 -4 -27.333 -4 -40c0 -36 13 -70.333 39 -103s65.667 -49 119 -49s102.333 18.833 147 56.5s72.334 82.834 83.001 135.501l20 106h-192zM680.998 1656h243l79 -216
h-182l-40 107l-82 -107h-182z" />
    <glyph glyph-name="gcircumflex" unicode="&#x11d;" 
d="M786 586c2.66699 13.333 4 26.333 4 39c0 36.667 -13.333 71.334 -40 104.001s-66.334 49 -119.001 49c-54.667 -1.33301 -104 -20.333 -148 -57s-71 -81.667 -81 -135l-41 -212c-2.66699 -14 -4 -27.333 -4 -40c0 -36.667 13 -71.167 39 -103.5s65.667 -48.5 119 -48.5
s102.333 18.667 147 56s72.334 82.666 83.001 135.999zM859 960h191.999l-187 -960c-14 -70.667 -43.833 -135 -89.5 -193s-101 -104.333 -166 -139s-132.833 -52 -203.5 -52c-89.333 0 -162.5 26.833 -219.5 80.5s-88.5 126.167 -94.5 217.5h206
c26 -70.667 74.667 -106 146 -106c53.333 0 102.166 18.667 146.499 56s71.833 82.666 82.5 135.999l17 90c-34 -30.667 -69 -55 -105 -73s-71.333 -27 -106 -27c-70.667 0 -131.667 17.333 -183 52s-88.666 81 -111.999 139c-14.667 36 -22 74.667 -22 116
c0 24.667 2.66699 50.334 8 77.001l41 212c24 108.667 79.167 199.167 165.5 271.5s184.166 109.833 293.499 112.5c34.667 0 66.334 -9 95.001 -27s54.334 -42.333 77.001 -73zM847.999 1272l80 -216h-182l-40 107l-82 -107h-182l163 216h243z" />
    <glyph glyph-name="Gbreve" unicode="&#x11e;" 
d="M611 672h383.998l-131 -672h-96l-29 77c-81.333 -58 -168.333 -87 -261 -87c-70.667 0 -131.667 17.167 -183 51.5s-88.666 80.833 -111.999 139.5c-14.667 36 -22 74.667 -22 116c0 24.667 2.66699 50.334 8 77.001l116 596c13.333 70.667 43 135.167 89 193.5
s101.333 104.666 166 138.999s132.334 51.5 203.001 51.5s131.667 -17.167 183 -51.5s88.666 -80.833 111.999 -139.5c14 -35.333 21 -74.666 21 -117.999c0 -26.667 -2.66699 -55 -8 -85h-192c3.33301 16 5 31.333 5 46c0 39.333 -13 75.166 -39 107.499
s-65.667 48.5 -119 48.5s-102.333 -18.833 -147 -56.5s-72 -82.834 -82 -135.501l-116 -596c-2.66699 -14 -4 -27.333 -4 -40c0 -36 13 -70.333 39 -103s65.667 -49 119 -49s102.333 18.833 147 56.5s72.334 82.834 83.001 135.501l20 106h-192zM759.998 1440
c-67.333 0 -120.667 21.332 -160 63.999c-30 32.667 -45 70.334 -45 113.001c0 12.667 1.33301 25.667 4 39h124c-1.33301 -6.66699 -2 -13.334 -2 -20.001c0 -20.667 8.5 -40.167 25.5 -58.5s41.833 -27.5 74.5 -27.5s62.667 10.333 90 31s44 45.667 50 75h124
c-11.333 -59.333 -45 -110.166 -101 -152.499s-117.333 -63.5 -184 -63.5z" />
    <glyph glyph-name="gbreve" unicode="&#x11f;" 
d="M786 586c2.66699 13.333 4 26.333 4 39c0 36.667 -13.333 71.334 -40 104.001s-66.334 49 -119.001 49c-54.667 -1.33301 -104 -20.333 -148 -57s-71 -81.667 -81 -135l-41 -212c-2.66699 -14 -4 -27.333 -4 -40c0 -36.667 13 -71.167 39 -103.5s65.667 -48.5 119 -48.5
s102.333 18.667 147 56s72.334 82.666 83.001 135.999zM859 960h191.999l-187 -960c-14 -70.667 -43.833 -135 -89.5 -193s-101 -104.333 -166 -139s-132.833 -52 -203.5 -52c-89.333 0 -162.5 26.833 -219.5 80.5s-88.5 126.167 -94.5 217.5h206
c26 -70.667 74.667 -106 146 -106c53.333 0 102.166 18.667 146.499 56s71.833 82.666 82.5 135.999l17 90c-34 -30.667 -69 -55 -105 -73s-71.333 -27 -106 -27c-70.667 0 -131.667 17.333 -183 52s-88.666 81 -111.999 139c-14.667 36 -22 74.667 -22 116
c0 24.667 2.66699 50.334 8 77.001l41 212c24 108.667 79.167 199.167 165.5 271.5s184.166 109.833 293.499 112.5c34.667 0 66.334 -9 95.001 -27s54.334 -42.333 77.001 -73zM684.999 1056c-67.333 0 -120.332 21.3311 -158.999 63.998
c-30.667 32.667 -46 70.334 -46 113.001c0 12.667 1.33301 25.667 4 39h124c-1.33301 -6.66699 -2 -12.667 -2 -18c0 -22 8.66699 -42.167 26 -60.5s42.333 -27.5 75 -27.5s62.667 10.333 90 31s43.666 45.667 48.999 75h124c-11.333 -59.333 -45 -110.166 -101 -152.499
s-117.333 -63.5 -184 -63.5z" />
    <glyph glyph-name="Gdotaccent" unicode="&#x120;" 
d="M611 672h383.998l-131 -672h-96l-29 77c-81.333 -58 -168.333 -87 -261 -87c-70.667 0 -131.667 17.167 -183 51.5s-88.666 80.833 -111.999 139.5c-14.667 36 -22 74.667 -22 116c0 24.667 2.66699 50.334 8 77.001l116 596c13.333 70.667 43 135.167 89 193.5
s101.333 104.666 166 138.999s132.334 51.5 203.001 51.5s131.667 -17.167 183 -51.5s88.666 -80.833 111.999 -139.5c14 -35.333 21 -74.666 21 -117.999c0 -26.667 -2.66699 -55 -8 -85h-192c3.33301 16 5 31.333 5 46c0 39.333 -13 75.166 -39 107.499
s-65.667 48.5 -119 48.5s-102.333 -18.833 -147 -56.5s-72 -82.834 -82 -135.501l-116 -596c-2.66699 -14 -4 -27.333 -4 -40c0 -36 13 -70.333 39 -103s65.667 -49 119 -49s102.333 18.833 147 56.5s72.334 82.834 83.001 135.501l20 106h-192zM670.998 1476l28 144h192
l-28 -144h-192z" />
    <glyph glyph-name="gdotaccent" unicode="&#x121;" 
d="M786 586c2.66699 13.333 4 26.333 4 39c0 36.667 -13.333 71.334 -40 104.001s-66.334 49 -119.001 49c-54.667 -1.33301 -104 -20.333 -148 -57s-71 -81.667 -81 -135l-41 -212c-2.66699 -14 -4 -27.333 -4 -40c0 -36.667 13 -71.167 39 -103.5s65.667 -48.5 119 -48.5
s102.333 18.667 147 56s72.334 82.666 83.001 135.999zM859 960h191.999l-187 -960c-14 -70.667 -43.833 -135 -89.5 -193s-101 -104.333 -166 -139s-132.833 -52 -203.5 -52c-89.333 0 -162.5 26.833 -219.5 80.5s-88.5 126.167 -94.5 217.5h206
c26 -70.667 74.667 -106 146 -106c53.333 0 102.166 18.667 146.499 56s71.833 82.666 82.5 135.999l17 90c-34 -30.667 -69 -55 -105 -73s-71.333 -27 -106 -27c-70.667 0 -131.667 17.333 -183 52s-88.666 81 -111.999 139c-14.667 36 -22 74.667 -22 116
c0 24.667 2.66699 50.334 8 77.001l41 212c24 108.667 79.167 199.167 165.5 271.5s184.166 109.833 293.499 112.5c34.667 0 66.334 -9 95.001 -27s54.334 -42.333 77.001 -73zM595.999 1092l28 144h192l-28 -144h-192z" />
    <glyph glyph-name="uni0122" unicode="&#x122;" 
d="M611 672h383.998l-131 -672h-96l-29 77c-81.333 -58 -168.333 -87 -261 -87c-70.667 0 -131.667 17.167 -183 51.5s-88.666 80.833 -111.999 139.5c-14.667 36 -22 74.667 -22 116c0 24.667 2.66699 50.334 8 77.001l116 596c13.333 70.667 43 135.167 89 193.5
s101.333 104.666 166 138.999s132.334 51.5 203.001 51.5s131.667 -17.167 183 -51.5s88.666 -80.833 111.999 -139.5c14 -35.333 21 -74.666 21 -117.999c0 -26.667 -2.66699 -55 -8 -85h-192c3.33301 16 5 31.333 5 46c0 39.333 -13 75.166 -39 107.499
s-65.667 48.5 -119 48.5s-102.333 -18.833 -147 -56.5s-72 -82.834 -82 -135.501l-116 -596c-2.66699 -14 -4 -27.333 -4 -40c0 -36 13 -70.333 39 -103s65.667 -49 119 -49s102.333 18.833 147 56.5s72.334 82.834 83.001 135.501l20 106h-192zM388.998 -96h216l-186 -216
l-143 1z" />
    <glyph glyph-name="uni0123" unicode="&#x123;" 
d="M786 586c2.66699 13.333 4 26.333 4 39c0 36.667 -13.333 71.334 -40 104.001s-66.334 49 -119.001 49c-54.667 -1.33301 -104 -20.333 -148 -57s-71 -81.667 -81 -135l-41 -212c-2.66699 -14 -4 -27.333 -4 -40c0 -36.667 13 -71.167 39 -103.5s65.667 -48.5 119 -48.5
s102.333 18.667 147 56s72.334 82.666 83.001 135.999zM859 960h191.999l-187 -960c-14 -70.667 -43.833 -135 -89.5 -193s-101 -104.333 -166 -139s-132.833 -52 -203.5 -52c-89.333 0 -162.5 26.833 -219.5 80.5s-88.5 126.167 -94.5 217.5h206
c26 -70.667 74.667 -106 146 -106c53.333 0 102.166 18.667 146.499 56s71.833 82.666 82.5 135.999l17 90c-34 -30.667 -69 -55 -105 -73s-71.333 -27 -106 -27c-70.667 0 -131.667 17.333 -183 52s-88.666 81 -111.999 139c-14.667 36 -22 74.667 -22 116
c0 24.667 2.66699 50.334 8 77.001l41 212c24 108.667 79.167 199.167 165.5 271.5s184.166 109.833 293.499 112.5c34.667 0 66.334 -9 95.001 -27s54.334 -42.333 77.001 -73zM756.999 1056h-216l186 216l144 -1z" />
    <glyph glyph-name="Hcircumflex" unicode="&#x124;" 
d="M933 1344h192l-261 -1344h-192l112 576h-384l-112 -576h-192l261 1344h192l-112 -576h384zM681 1656h243l79 -216h-182l-40 107l-82 -107h-182z" />
    <glyph glyph-name="hcircumflex" unicode="&#x125;" 
d="M669 970c70.667 -0.666992 131.501 -18.167 182.501 -52.5s88.167 -80.5 111.5 -138.5c15.333 -36.667 23 -75.667 23 -117c0 -24.667 -2.66699 -50 -8 -76l-114 -586h-192l114 586c2.66699 13.333 4 26.333 4 39c0 36.667 -12.833 71 -38.5 103
s-65.834 48.667 -120.501 50c-54.667 -1.33301 -104 -20.333 -148 -57s-71 -81.667 -81 -135l-114 -586h-192l261 1344h192l-92 -474c34.667 30.667 70 55 106 73s71.333 27 106 27zM681.001 1656h243l79 -216h-182l-40 107l-82 -107h-182z" />
    <glyph glyph-name="Hbar" unicode="&#x126;" 
d="M891 1128l42 216h192l-42 -216h96l-28 -144h-96l-191 -984h-192l112 576h-384l-112 -576h-192l191 984h-96l28 144h96l42 216h192l-42 -216h384zM479 984l-42 -216h384l42 216h-384z" />
    <glyph glyph-name="hbar" unicode="&#x127;" 
d="M498 1080l-40.999 -210c34.667 30.667 70 55 106 73s71.333 27 106 27c70.667 -0.666992 131.5 -18.167 182.5 -52.5s88.167 -80.5 111.5 -138.5c15.333 -36.667 23 -75.667 23 -117c0 -24.667 -2.66699 -50 -8 -76l-114 -586h-192l114 586c2.66699 13.333 4 26.333 4 39
c0 36.667 -12.833 71 -38.5 103s-65.834 48.667 -120.501 50c-54.667 -1.33301 -104 -20.333 -148 -57s-71 -81.667 -81 -135l-114 -586h-192l210 1080h-96l28 144h96l23 120h192l-23 -120h288l-28 -144h-288z" />
    <glyph glyph-name="Itilde" unicode="&#x128;" horiz-adv-x="768" 
d="M896 1152h-192l-187 -960h192l-37 -192h-576l37 192h192l187 960h-192l37 192h576zM732 1440c-40.667 0 -70.668 15 -90.001 45c-5.33301 6 -12.666 19.333 -21.999 40c-3.33301 8.66699 -6.33301 14 -9 16c-5.33301 2 -10.333 3 -15 3c-8 -0.666992 -14.667 -3 -20 -7
c-2 -2 -3 -3.33301 -3 -4c-3.33301 -3.33301 -6 -10.333 -8 -21l-15 -72h-129c10.667 55.333 19 91 25 107c12.667 37.333 41.667 67.333 87 90c26 12.667 61 19 105 19c56.667 0 93.667 -28.333 111 -85c3.33301 -9.33301 6.66602 -14.333 9.99902 -15
c5.33301 -2 10 -3 14 -3c5.33301 0 11.333 2 18 6s10.667 9.33301 12 16l15 81h131l-14 -71c-11.333 -58 -41.666 -98.333 -90.999 -121c-34.667 -16 -72 -24 -112 -24z" />
    <glyph glyph-name="itilde" unicode="&#x129;" horiz-adv-x="384" 
d="M466 1056c-41.333 0 -71.665 15 -90.998 45c-4.66699 6 -11.667 19.333 -21 40c-4 8.66699 -7 14 -9 16c-6 2 -11.333 3 -16 3c-8 -0.666992 -14.333 -3 -19 -7c-2.66699 -2 -4 -3.33301 -4 -4c-3.33301 -3.33301 -6 -10.333 -8 -21l-14 -72h-130
c10.667 55.333 19 91 25 107c12.667 37.333 42 67.333 88 90c26 12.667 60.667 19 104 19c56.667 0 93.667 -28.333 111 -85c3.33301 -9.33301 6.66602 -14.333 9.99902 -15c5.33301 -2 10 -3 14 -3c6 0 12.167 2 18.5 6s10.166 9.33301 11.499 16l16 81h130l-14 -71
c-10.667 -58 -40.667 -98.333 -90 -121c-34.667 -16 -72 -24 -112 -24zM475.001 960l-187 -960h-192l187 960h192z" />
    <glyph glyph-name="Imacron" unicode="&#x12a;" horiz-adv-x="768" 
d="M896 1152h-192l-187 -960h192l-37 -192h-576l37 192h192l187 960h-192l37 192h576zM914 1476h-486l28 144h486z" />
    <glyph glyph-name="imacron" unicode="&#x12b;" horiz-adv-x="384" 
d="M647 1092h-486l28 144h486zM475 960l-187 -960h-192l187 960h192z" />
    <glyph glyph-name="Ibreve" unicode="&#x12c;" horiz-adv-x="768" 
d="M896 1152h-192l-187 -960h192l-37 -192h-576l37 192h192l187 960h-192l37 192h576zM664 1440c-67.333 0 -120.667 21.332 -160 63.999c-30 32.667 -45 70.334 -45 113.001c0 12.667 1.33301 25.667 4 39h124c-1.33301 -6.66699 -2 -13.334 -2 -20.001
c0 -20.667 8.5 -40.167 25.5 -58.5s41.833 -27.5 74.5 -27.5s62.667 10.333 90 31s44 45.667 50 75h124c-11.333 -59.333 -45 -110.166 -101 -152.499s-117.333 -63.5 -184 -63.5z" />
    <glyph glyph-name="ibreve" unicode="&#x12d;" horiz-adv-x="384" 
d="M397 1056c-67.333 0 -120.332 21.3311 -158.999 63.998c-30.667 32.667 -46 70.334 -46 113.001c0 12.667 1.33301 25.667 4 39h124c-1.33301 -6.66699 -2 -12.667 -2 -18c0 -22 8.66699 -42.167 26 -60.5s42.333 -27.5 75 -27.5s62.667 10.333 90 31
s43.666 45.667 48.999 75h124c-11.333 -59.333 -45 -110.166 -101 -152.499s-117.333 -63.5 -184 -63.5zM475.001 959.998l-187 -960h-192l187 960h192z" />
    <glyph glyph-name="Iogonek" unicode="&#x12e;" horiz-adv-x="768" 
d="M278 0l-182 -0.000976562l37 192h192l187 960h-192l37 192h576l-37 -192h-192l-187 -960h192l-37 -192h-297c-18 -40.667 -28.333 -68.667 -31 -84c-1.33301 -8 -2 -15.667 -2 -23c0 -14 3.66699 -29.167 11 -45.5s25.5 -27.666 54.5 -33.999s56.5 -9.5 82.5 -9.5
l-25 -128c-79.333 0 -143 21 -191 63c-38.667 34 -58 73.667 -58 119c0 10.667 1 21.667 3 33c8 40.667 27.667 77 59 109z" />
    <glyph glyph-name="iogonek" unicode="&#x12f;" horiz-adv-x="384" 
d="M308 1092l28 144h192l-28 -144h-192zM183 0c-18 -40.667 -28.334 -68.667 -31.001 -84c-1.33301 -8 -2 -15.667 -2 -23c0 -14 3.66699 -29.167 11 -45.5s25.5 -27.666 54.5 -33.999s56.5 -9.5 82.5 -9.5l-25 -128c-79.333 0 -143 21 -191 63
c-38.667 34 -58 73.667 -58 119c0 10.667 1 21.667 3 33c8.66699 45.333 32.334 85.666 71.001 120.999l185 948h192l-187 -960h-105z" />
    <glyph glyph-name="Idotaccent" unicode="&#x130;" horiz-adv-x="768" 
d="M896 1152h-192l-187 -960h192l-37 -192h-576l37 192h192l187 960h-192l37 192h576zM575 1476l28 144h192l-28 -144h-192z" />
    <glyph glyph-name="dotlessi" unicode="&#x131;" horiz-adv-x="384" 
d="M475 960l-187 -960h-192l187 960h192z" />
    <glyph glyph-name="IJ" unicode="&#x132;" horiz-adv-x="1344" 
d="M288 0h-192l261 1344h192zM1125 1344h383.999l-188 -970c-14 -70.667 -44 -135 -90 -193s-101.333 -104.333 -166 -139s-132.334 -52 -203.001 -52s-131.667 17.333 -183 52s-88.666 81 -111.999 139c-14.667 36 -22 74.667 -22 116c0 24.667 2.66699 50.334 8 77.001
h192c-2.66699 -14 -4 -27.333 -4 -40c0 -36.667 13 -71.167 39 -103.5s65.667 -48.5 119 -48.5s102.333 18.667 147 56s72.334 82.666 83.001 135.999l151 778h-192z" />
    <glyph glyph-name="ij" unicode="&#x133;" horiz-adv-x="768" 
d="M475 960l-187 -960h-192l187 960h192zM308 1092l28 144h192l-28 -144h-192zM667 960l192.001 0.000976562l-187 -960c-14 -70.667 -43.833 -135 -89.5 -193s-101 -104.333 -166 -139s-132.833 -52 -203.5 -52l38 192c53.333 0 102.166 18.667 146.499 56
s71.833 82.666 82.5 135.999zM692.001 1092l28 144h192l-28 -144h-192z" />
    <glyph glyph-name="Jcircumflex" unicode="&#x134;" 
d="M873 1656h243l79 -216h-182l-40 107l-82 -107h-182zM741 1344h383.999l-188 -970c-14 -70.667 -44 -135 -90 -193s-101.333 -104.333 -166 -139s-132.334 -52 -203.001 -52s-131.667 17.333 -183 52s-88.666 81 -111.999 139c-14.667 36 -22 74.667 -22 116
c0 24.667 2.66699 50.334 8 77.001h192c-2.66699 -14 -4 -27.333 -4 -40c0 -36.667 13 -71.167 39 -103.5s65.667 -48.5 119 -48.5s102.333 18.667 147 56s72.334 82.666 83.001 135.999l151 778h-192z" />
    <glyph glyph-name="jcircumflex" unicode="&#x135;" horiz-adv-x="480" 
d="M656 1272l80 -216h-182l-40 107l-82 -107h-182l163 216h243zM379 960l192.001 0.000976562l-187 -960c-14 -70.667 -43.833 -135 -89.5 -193s-101 -104.333 -166 -139s-132.833 -52 -203.5 -52l38 192c53.333 0 102.166 18.667 146.499 56s71.833 82.666 82.5 135.999z
" />
    <glyph glyph-name="uni0136" unicode="&#x136;" 
d="M1125 1344l-480 -627l219 -717h-215l-158 517l-138 -181l-66 -336h-191l261 1344h192l-121 -621l476 621h221zM389 -96h216l-186 -216l-143 1z" />
    <glyph glyph-name="uni0137" unicode="&#x137;" 
d="M1051 960l-455 -450l268 -510h-236l-187 356l-104 -103l-49 -253h-192l261 1344h192l-153 -787l407 403h248zM389 -96h216l-186 -216l-143 1z" />
    <glyph glyph-name="kgreenlandic" unicode="&#x138;" 
d="M1051 960l-455 -450l268 -510h-236l-187 356l-104 -103l-49 -253h-192l187 960h192l-79 -403l407 403h248z" />
    <glyph glyph-name="Lacute" unicode="&#x139;" 
d="M325 192h576l-37 -192h-768l261 1344h192zM713 1656h216l-186 -216l-144 1z" />
    <glyph glyph-name="lacute" unicode="&#x13a;" horiz-adv-x="384" 
d="M288 0h-192l261 1344h192zM511 1656h216l-186 -216l-144 1z" />
    <glyph glyph-name="uni013B" unicode="&#x13b;" 
d="M325 192h576l-37 -192h-768l261 1344h192zM389 -96h216l-186 -216l-143 1z" />
    <glyph glyph-name="uni013C" unicode="&#x13c;" horiz-adv-x="384" 
d="M288 0h-192l261 1344h192zM53 -96h216l-186 -216l-143 1z" />
    <glyph glyph-name="Lcaron" unicode="&#x13d;" 
d="M325 192h576l-37 -192h-768l261 1344h192zM981 1344h144l-28 -144c-7.33301 -40 -27.833 -74 -61.5 -102s-70.5 -42 -110.5 -42l14 72c20 0 38.333 7 55 21s27 31 31 51h-72z" />
    <glyph glyph-name="lcaron" unicode="&#x13e;" horiz-adv-x="384" 
d="M288 0h-192l261 1344h192zM645 1344h144l-28 -144c-7.33301 -40 -27.833 -74 -61.5 -102s-70.5 -42 -110.5 -42l14 72c20 0 38.333 7 55 21s27 31 31 51h-72z" />
    <glyph glyph-name="Ldot" unicode="&#x13f;" 
d="M325 192h576l-37 -192h-768l261 1344h192zM501 600l28 144h192l-28 -144h-192z" />
    <glyph glyph-name="ldot" unicode="&#x140;" horiz-adv-x="384" 
d="M288 0h-192l261 1344h192zM501 600l28 144h192l-28 -144h-192z" />
    <glyph glyph-name="Lslash" unicode="&#x141;" 
d="M202 548l-106 -55l32 166l107 55l122 630h192l-101 -520l427 219l-33 -166l-426 -219l-91 -466h576l-37 -192h-768z" />
    <glyph glyph-name="lslash" unicode="&#x142;" horiz-adv-x="384" 
d="M416 658l-128 -658h-192l107 548l-107 -55l32 166l107 55l122 630h192l-101 -521l107 55l-32 -165z" />
    <glyph glyph-name="Nacute" unicode="&#x143;" 
d="M933 1344h192l-261 -1344h-292l-90 995l-193 -995h-193l261 1344h292l91 -994zM809 1656h216l-186 -216l-144 1z" />
    <glyph glyph-name="nacute" unicode="&#x144;" 
d="M669 970c70.667 -0.666992 131.501 -18.168 182.501 -52.501s88.167 -80.5 111.5 -138.5c15.333 -36.667 23 -75.667 23 -117c0 -24.667 -2.66699 -50 -8 -76l-114 -586h-192l114 586c2.66699 13.333 4 26.333 4 39c0 36.667 -12.833 71 -38.5 103
s-65.834 48.667 -120.501 50c-52.667 0 -101.5 -18.667 -146.5 -56s-72.5 -82.666 -82.5 -135.999l-114 -586h-192l187 960h192l-18 -90c34.667 30.667 70 55 106 73s71.333 27 106 27zM734.001 1272h216l-186 -216l-144 1z" />
    <glyph glyph-name="uni0145" unicode="&#x145;" 
d="M933 1344h192l-261 -1344h-292l-90 995l-193 -995h-193l261 1344h292l91 -994zM389 -96h216l-186 -216l-143 1z" />
    <glyph glyph-name="uni0146" unicode="&#x146;" 
d="M669 970c70.667 -0.666992 131.501 -18.168 182.501 -52.501s88.167 -80.5 111.5 -138.5c15.333 -36.667 23 -75.667 23 -117c0 -24.667 -2.66699 -50 -8 -76l-114 -586h-192l114 586c2.66699 13.333 4 26.333 4 39c0 36.667 -12.833 71 -38.5 103
s-65.834 48.667 -120.501 50c-52.667 0 -101.5 -18.667 -146.5 -56s-72.5 -82.666 -82.5 -135.999l-114 -586h-192l187 960h192l-18 -90c34.667 30.667 70 55 106 73s71.333 27 106 27zM389.001 -96.001h216l-186 -216l-143 1z" />
    <glyph glyph-name="Ncaron" unicode="&#x147;" 
d="M933 1344h192l-261 -1344h-292l-90 995l-193 -995h-193l261 1344h292l91 -994zM639 1440l-80 216h182l40 -107l82 107h182l-163 -216h-243z" />
    <glyph glyph-name="ncaron" unicode="&#x148;" 
d="M669 970c70.667 -0.666992 131.501 -18.168 182.501 -52.501s88.167 -80.5 111.5 -138.5c15.333 -36.667 23 -75.667 23 -117c0 -24.667 -2.66699 -50 -8 -76l-114 -586h-192l114 586c2.66699 13.333 4 26.333 4 39c0 36.667 -12.833 71 -38.5 103
s-65.834 48.667 -120.501 50c-52.667 0 -101.5 -18.667 -146.5 -56s-72.5 -82.666 -82.5 -135.999l-114 -586h-192l187 960h192l-18 -90c34.667 30.667 70 55 106 73s71.333 27 106 27zM564.001 1056l-80 216h182l40 -107l82 107h182l-163 -216h-243z" />
    <glyph glyph-name="napostrophe" unicode="&#x149;" 
d="M669 970c70.667 -0.666992 131.501 -18.168 182.501 -52.501s88.167 -80.5 111.5 -138.5c15.333 -36.667 23 -75.667 23 -117c0 -24.667 -2.66699 -50 -8 -76l-114 -586h-192l114 586c2.66699 13.333 4 26.333 4 39c0 36.667 -12.833 71 -38.5 103
s-65.834 48.667 -120.501 50c-52.667 0 -101.5 -18.667 -146.5 -56s-72.5 -82.666 -82.5 -135.999l-114 -586h-192l187 960h192l-18 -90c34.667 30.667 70 55 106 73s71.333 27 106 27zM261.001 1344h144l-28 -144c-7.33301 -40 -27.833 -74 -61.5 -102
s-70.5 -42 -110.5 -42l14 72c20 0 38.333 7 55 21s27 31 31 51h-72z" />
    <glyph glyph-name="Eng" unicode="&#x14a;" 
d="M480 0l37.001 192.001c53.333 0 102.333 18.667 147 56s72.334 82.666 83.001 135.999l112 576c2.66699 13.333 4 26.333 4 39c0 36.667 -13.333 71.334 -40 104.001s-66.334 49 -119.001 49s-101 -18.333 -145 -55s-72 -82.334 -84 -137.001l-187 -960h-192l261 1344
h192l-10 -51c64.667 34 132 51 202 51c70.667 0 131.667 -17.333 183 -52s88.666 -81 111.999 -139c14.667 -36.667 22 -76 22 -118c0 -24 -2.33301 -49 -7 -75l-112 -576c-14 -70.667 -43.833 -135 -89.5 -193s-101 -104.333 -166 -139s-132.833 -52 -203.5 -52z" />
    <glyph glyph-name="eng" unicode="&#x14b;" 
d="M786 586c2.66699 13.333 4.00195 26.333 4.00195 39c0 36.667 -12.833 71 -38.5 103s-65.834 48.667 -120.501 50c-52.667 0 -101.5 -18.667 -146.5 -56s-72.5 -82.666 -82.5 -135.999l-114 -586h-192l187 960h192l-18 -90c34.667 30.667 70 55 106 73s71.333 27 106 27
c70.667 -0.666992 131.5 -18.167 182.5 -52.5s88.167 -80.5 111.5 -138.5c15.333 -36.667 23 -75.667 23 -117c0 -24.667 -2.66699 -50 -8 -76l-151 -778c-10.667 -52.667 -38.334 -97.834 -83.001 -135.501s-93.667 -56.5 -147 -56.5h-96l38 192h96z" />
    <glyph glyph-name="Omacron" unicode="&#x14c;" horiz-adv-x="1056" 
d="M840 374l115.998 596c2.66699 14 4 27.333 4 40c0 36 -13.167 70.333 -39.5 103s-65.833 49 -118.5 49h-96c-52.667 0 -101.5 -18.667 -146.5 -56s-72.833 -82.666 -83.5 -135.999h1l-116 -596h-1c-2.66699 -13.333 -4 -26 -4 -38c0 -36.667 13.333 -71.334 40 -104.001
s66.334 -49 119.001 -49h97c52.667 0 101.334 18.667 146.001 56s72 82.333 82 135zM838.998 1354c71.333 0 132.503 -17.168 183.503 -51.501s88.167 -80.833 111.5 -139.5c14.667 -36.667 22 -76 22 -118c0 -24 -2.33301 -49 -7 -75l-116 -596
c-14 -70.667 -44 -135.167 -90 -193.5s-101.333 -104.666 -166 -138.999s-132.334 -51.5 -203.001 -51.5h-96c-70.667 0 -131.834 17.167 -183.501 51.5s-88.834 80.833 -111.501 139.5c-14.667 36 -22 74.667 -22 116c0 24.667 2.66699 50.334 8 77.001l116 596
c13.333 70.667 42.833 135.167 88.5 193.5s101 104.666 166 138.999s132.833 51.5 203.5 51.5h96zM1058 1476h-486l28 144h486z" />
    <glyph glyph-name="omacron" unicode="&#x14d;" 
d="M786 586c2.66699 13.333 3.99805 26.332 3.99805 38.999c0 36.667 -13.167 71.334 -39.5 104.001s-66.166 49 -119.499 49s-102.333 -18.667 -147 -56s-72 -82.666 -82 -135.999l-41 -212c-2.66699 -14 -4 -27.333 -4 -40c0 -36.667 13 -71.167 39 -103.5
s65.667 -48.5 119 -48.5s102.333 18.667 147 56s72.334 82.666 83.001 135.999zM977.998 585.999l-40.999 -212.001c-14 -70.667 -44 -135 -90 -193s-101.333 -104.333 -166 -139s-132.334 -52 -203.001 -52s-131.667 17.333 -183 52s-88.666 81 -111.999 139
c-14.667 36 -22 74.667 -22 116c0 24.667 2.66699 50.334 8 77.001l41 212c24 108.667 79.167 199.167 165.5 271.5s184.166 109.833 293.499 112.5c70.667 0 131.5 -17.333 182.5 -52s88.167 -81 111.5 -139c15.333 -36.667 23 -75.667 23 -117
c0 -24.667 -2.66699 -50 -8 -76zM934.999 1092h-486l28 144h486z" />
    <glyph glyph-name="Obreve" unicode="&#x14e;" horiz-adv-x="1056" 
d="M840 374l115.998 596c2.66699 14 4 27.333 4 40c0 36 -13.167 70.333 -39.5 103s-65.833 49 -118.5 49h-96c-52.667 0 -101.5 -18.667 -146.5 -56s-72.833 -82.666 -83.5 -135.999h1l-116 -596h-1c-2.66699 -13.333 -4 -26 -4 -38c0 -36.667 13.333 -71.334 40 -104.001
s66.334 -49 119.001 -49h97c52.667 0 101.334 18.667 146.001 56s72 82.333 82 135zM838.998 1354c71.333 0 132.503 -17.168 183.503 -51.501s88.167 -80.833 111.5 -139.5c14.667 -36.667 22 -76 22 -118c0 -24 -2.33301 -49 -7 -75l-116 -596
c-14 -70.667 -44 -135.167 -90 -193.5s-101.333 -104.666 -166 -138.999s-132.334 -51.5 -203.001 -51.5h-96c-70.667 0 -131.834 17.167 -183.501 51.5s-88.834 80.833 -111.501 139.5c-14.667 36 -22 74.667 -22 116c0 24.667 2.66699 50.334 8 77.001l116 596
c13.333 70.667 42.833 135.167 88.5 193.5s101 104.666 166 138.999s132.833 51.5 203.5 51.5h96zM808.001 1440c-67.333 0 -120.667 21.332 -160 63.999c-30 32.667 -45 70.334 -45 113.001c0 12.667 1.33301 25.667 4 39h124c-1.33301 -6.66699 -2 -13.334 -2 -20.001
c0 -20.667 8.5 -40.167 25.5 -58.5s41.833 -27.5 74.5 -27.5s62.667 10.333 90 31s44 45.667 50 75h124c-11.333 -59.333 -45 -110.166 -101 -152.499s-117.333 -63.5 -184 -63.5z" />
    <glyph glyph-name="obreve" unicode="&#x14f;" 
d="M786 586c2.66699 13.333 3.99805 26.332 3.99805 38.999c0 36.667 -13.167 71.334 -39.5 104.001s-66.166 49 -119.499 49s-102.333 -18.667 -147 -56s-72 -82.666 -82 -135.999l-41 -212c-2.66699 -14 -4 -27.333 -4 -40c0 -36.667 13 -71.167 39 -103.5
s65.667 -48.5 119 -48.5s102.333 18.667 147 56s72.334 82.666 83.001 135.999zM977.998 585.999l-40.999 -212.001c-14 -70.667 -44 -135 -90 -193s-101.333 -104.333 -166 -139s-132.334 -52 -203.001 -52s-131.667 17.333 -183 52s-88.666 81 -111.999 139
c-14.667 36 -22 74.667 -22 116c0 24.667 2.66699 50.334 8 77.001l41 212c24 108.667 79.167 199.167 165.5 271.5s184.166 109.833 293.499 112.5c70.667 0 131.5 -17.333 182.5 -52s88.167 -81 111.5 -139c15.333 -36.667 23 -75.667 23 -117
c0 -24.667 -2.66699 -50 -8 -76zM684.999 1056c-67.333 0 -120.332 21.3311 -158.999 63.998c-30.667 32.667 -46 70.334 -46 113.001c0 12.667 1.33301 25.667 4 39h124c-1.33301 -6.66699 -2 -12.667 -2 -18c0 -22 8.66699 -42.167 26 -60.5s42.333 -27.5 75 -27.5
s62.667 10.333 90 31s43.666 45.667 48.999 75h124c-11.333 -59.333 -45 -110.166 -101 -152.499s-117.333 -63.5 -184 -63.5z" />
    <glyph glyph-name="Ohungarumlaut" unicode="&#x150;" horiz-adv-x="1056" 
d="M840 374l115.998 596c2.66699 14 4 27.333 4 40c0 36 -13.167 70.333 -39.5 103s-65.833 49 -118.5 49h-96c-52.667 0 -101.5 -18.667 -146.5 -56s-72.833 -82.666 -83.5 -135.999h1l-116 -596h-1c-2.66699 -13.333 -4 -26 -4 -38c0 -36.667 13.333 -71.334 40 -104.001
s66.334 -49 119.001 -49h97c52.667 0 101.334 18.667 146.001 56s72 82.333 82 135zM838.998 1354c71.333 0 132.503 -17.168 183.503 -51.501s88.167 -80.833 111.5 -139.5c14.667 -36.667 22 -76 22 -118c0 -24 -2.33301 -49 -7 -75l-116 -596
c-14 -70.667 -44 -135.167 -90 -193.5s-101.333 -104.666 -166 -138.999s-132.334 -51.5 -203.001 -51.5h-96c-70.667 0 -131.834 17.167 -183.501 51.5s-88.834 80.833 -111.501 139.5c-14.667 36 -22 74.667 -22 116c0 24.667 2.66699 50.334 8 77.001l116 596
c13.333 70.667 42.833 135.167 88.5 193.5s101 104.666 166 138.999s132.833 51.5 203.5 51.5h96zM998.001 1656h216l-186 -216h-144zM638.001 1656h216l-186 -216h-144z" />
    <glyph glyph-name="ohungarumlaut" unicode="&#x151;" 
d="M786 586c2.66699 13.333 3.99805 26.332 3.99805 38.999c0 36.667 -13.167 71.334 -39.5 104.001s-66.166 49 -119.499 49s-102.333 -18.667 -147 -56s-72 -82.666 -82 -135.999l-41 -212c-2.66699 -14 -4 -27.333 -4 -40c0 -36.667 13 -71.167 39 -103.5
s65.667 -48.5 119 -48.5s102.333 18.667 147 56s72.334 82.666 83.001 135.999zM977.998 585.999l-40.999 -212.001c-14 -70.667 -44 -135 -90 -193s-101.333 -104.333 -166 -139s-132.334 -52 -203.001 -52s-131.667 17.333 -183 52s-88.666 81 -111.999 139
c-14.667 36 -22 74.667 -22 116c0 24.667 2.66699 50.334 8 77.001l41 212c24 108.667 79.167 199.167 165.5 271.5s184.166 109.833 293.499 112.5c70.667 0 131.5 -17.333 182.5 -52s88.167 -81 111.5 -139c15.333 -36.667 23 -75.667 23 -117
c0 -24.667 -2.66699 -50 -8 -76zM514.999 1272h216l-186 -216h-144zM874.999 1272h216l-186 -216h-144z" />
    <glyph glyph-name="OE" unicode="&#x152;" horiz-adv-x="1344" 
d="M744 373l115.999 597.999c2 12 3 24 3 36c0 38.667 -13 74.167 -39 106.5s-65.333 48.5 -118 48.5s-101.667 -18.667 -147 -56s-73 -82.666 -83 -135.999h2l-116 -596h-2c-2.66699 -13.333 -4 -26.333 -4 -39c0 -36 13.5 -70.333 40.5 -103s66.833 -49 119.5 -49
s100.834 18.167 144.501 54.5s71.5 81.5 83.5 135.5zM1472 1152h-383.998l-75 -384h193l-37 -192h-193l-75 -384h384l-37 -192h-577l10 51c-65.333 -40.667 -133 -61 -203 -61c-70.667 0 -131.834 17.167 -183.501 51.5s-88.834 80.833 -111.501 139.5
c-14.667 36 -22 74.667 -22 116c0 24.667 2.66699 50.334 8 77.001l116 596c13.333 70.667 42.833 135.167 88.5 193.5s101 104.666 166 138.999s132.833 51.5 203.5 51.5c70 0 129.667 -20.333 179 -61l10 51h577z" />
    <glyph glyph-name="oe" unicode="&#x153;" horiz-adv-x="1536" 
d="M1207 778c-53.333 0 -101.834 -18.333 -145.501 -55s-71.5 -82.334 -83.5 -137.001h384c2.66699 13.333 4 26.333 4 39c0 36.667 -13.167 71.334 -39.5 104.001s-66.166 49 -119.499 49zM785.999 586c2.66699 13.333 3.99805 26.332 3.99805 38.999
c0 36.667 -13.167 71.334 -39.5 104.001s-66.166 49 -119.499 49s-102.333 -18.667 -147 -56s-72 -82.666 -82 -135.999l-41 -212c-2.66699 -14 -4 -27.333 -4 -40c0 -36.667 13 -71.167 39 -103.5s65.667 -48.5 119 -48.5s102.333 18.667 147 56
s72.334 82.666 83.001 135.999zM1524 431.999h-576l-11 -58c-2.66699 -14 -4 -27.333 -4 -40c0 -36.667 13 -71.167 39 -103.5s65.667 -48.5 119 -48.5c37.333 0 73.166 9.66699 107.499 29s63.5 48.333 87.5 87l155 -86c-46 -70.667 -103.167 -125.334 -171.5 -164.001
s-140.166 -58 -215.499 -58c-57.333 0 -108.5 11.667 -153.5 35s-81.5 55 -109.5 95c-42.667 -40 -91.167 -71.667 -145.5 -95s-110.166 -35 -167.499 -35c-70.667 0 -131.667 17.333 -183 52s-88.666 81 -111.999 139c-14.667 36 -22 74.667 -22 116
c0 24.667 2.66699 50.334 8 77.001l41 212c14 70.667 43.833 135 89.5 193s100.667 104.167 165 138.5s132.5 51.833 204.5 52.5c57.333 0 108.5 -11.667 153.5 -35s81.167 -55 108.5 -95c43.333 40 92.166 71.667 146.499 95s110.166 35 167.499 35
c70.667 0 131.5 -17.333 182.5 -52s88.167 -81 111.5 -139c15.333 -36.667 23 -75.667 23 -117c0 -24.667 -2.66699 -50 -8 -76z" />
    <glyph glyph-name="Racute" unicode="&#x154;" 
d="M437 768l192 -0.000976562c53.333 0 102.333 18.833 147 56.5s72 82.834 82 135.501c2.66699 14 4 27.333 4 40c0 36 -13.167 70.333 -39.5 103s-65.833 49 -118.5 49h-192zM732 600.999l140.002 -601h-209l-134 576h-130l-112 -576h-191l261 1344h384
c71.333 0 132.666 -17.167 183.999 -51.5s88.666 -80.833 111.999 -139.5c14 -36.667 21 -75.667 21 -117c0 -24.667 -2.33301 -50 -7 -76c-16 -82.667 -53.333 -156 -112 -220s-127.667 -110.333 -207 -139zM713.002 1656h216l-186 -216l-144 1z" />
    <glyph glyph-name="racute" unicode="&#x155;" horiz-adv-x="672" 
d="M669 970l191.999 -0.000976562l-38 -192h-192c-53.333 0 -102.333 -18.667 -147 -56s-72 -82.666 -82 -135.999l-114 -586h-192l187 960h192l-27 -139c36.667 44.667 73.834 80.667 111.501 108s74.167 41 109.5 41zM637.999 1272h216l-186 -216l-144 1z" />
    <glyph glyph-name="uni0156" unicode="&#x156;" 
d="M437 768l192 -0.000976562c53.333 0 102.333 18.833 147 56.5s72 82.834 82 135.501c2.66699 14 4 27.333 4 40c0 36 -13.167 70.333 -39.5 103s-65.833 49 -118.5 49h-192zM732 600.999l140.002 -601h-209l-134 576h-130l-112 -576h-191l261 1344h384
c71.333 0 132.666 -17.167 183.999 -51.5s88.666 -80.833 111.999 -139.5c14 -36.667 21 -75.667 21 -117c0 -24.667 -2.33301 -50 -7 -76c-16 -82.667 -53.333 -156 -112 -220s-127.667 -110.333 -207 -139zM389.002 -96.001h216l-186 -216l-143 1z" />
    <glyph glyph-name="uni0157" unicode="&#x157;" horiz-adv-x="672" 
d="M669 970l191.999 -0.000976562l-38 -192h-192c-53.333 0 -102.333 -18.667 -147 -56s-72 -82.666 -82 -135.999l-114 -586h-192l187 960h192l-27 -139c36.667 44.667 73.834 80.667 111.501 108s74.167 41 109.5 41zM196.999 -96.001h216l-186 -216l-143 1z" />
    <glyph glyph-name="Rcaron" unicode="&#x158;" 
d="M437 768l192 -0.000976562c53.333 0 102.333 18.833 147 56.5s72 82.834 82 135.501c2.66699 14 4 27.333 4 40c0 36 -13.167 70.333 -39.5 103s-65.833 49 -118.5 49h-192zM732 600.999l140.002 -601h-209l-134 576h-130l-112 -576h-191l261 1344h384
c71.333 0 132.666 -17.167 183.999 -51.5s88.666 -80.833 111.999 -139.5c14 -36.667 21 -75.667 21 -117c0 -24.667 -2.33301 -50 -7 -76c-16 -82.667 -53.333 -156 -112 -220s-127.667 -110.333 -207 -139zM543.002 1440l-80 216h182l40 -107l82 107h182l-163 -216h-243z
" />
    <glyph glyph-name="rcaron" unicode="&#x159;" horiz-adv-x="672" 
d="M669 970l191.999 -0.000976562l-38 -192h-192c-53.333 0 -102.333 -18.667 -147 -56s-72 -82.666 -82 -135.999l-114 -586h-192l187 960h192l-27 -139c36.667 44.667 73.834 80.667 111.501 108s74.167 41 109.5 41zM467.999 1056l-80 216h182l40 -107l82 107h182
l-163 -216h-243z" />
    <glyph glyph-name="Sacute" unicode="&#x15a;" 
d="M629 768c70.667 0 131.668 -17.3389 183.001 -52.0059s88.666 -81 111.999 -139c14 -35.333 21 -74.666 21 -117.999c0 -26.667 -2.66699 -55 -8 -85c-14 -70.667 -44 -135 -90 -193s-101.333 -104.333 -166 -139s-132.334 -52 -203.001 -52s-131.667 17.333 -183 52
s-88.666 81 -111.999 139c-14 35.333 -21 74 -21 116c0 27.333 3 56.333 9 87h192c-3.33301 -17.333 -5 -33.666 -5 -48.999c0 -38 12.833 -73 38.5 -105s65.167 -48 118.5 -48s102.333 18.667 147 56s72.334 82.666 83.001 135.999c3.33301 16.667 5 32.334 5 47.001
c0 38.667 -13 74.167 -39 106.5s-65.667 48.5 -119 48.5c-70.667 0 -131.667 17.333 -183 52s-88.666 81 -111.999 139c-14 35.333 -21 74 -21 116c0 27.333 3 56.333 9 87c13.333 70.667 43 135 89 193s101.167 104.167 165.5 138.5s132.166 51.833 203.499 52.5
c70.667 0 131.667 -17.333 183 -52s88.666 -81 111.999 -139c14 -35.333 21 -74.666 21 -117.999c0 -26.667 -2.66699 -55 -8 -85h-192c3.33301 16.667 5 32.334 5 47.001c0 38.667 -13 74.167 -39 106.5s-65.667 48.5 -119 48.5s-102.333 -18.667 -147 -56
s-72 -82.666 -82 -135.999c-3.33301 -17.333 -5 -33.666 -5 -48.999c0 -38 12.833 -73 38.5 -105s65.167 -48 118.5 -48zM809.001 1655.99h216l-186 -216l-144 1z" />
    <glyph glyph-name="sacute" unicode="&#x15b;" 
d="M835 504c58.667 -48.667 88.002 -106.667 88.002 -174c0 -16 -1.66699 -32.667 -5 -50c-10 -53.333 -36.667 -102 -80 -146s-96.5 -79 -159.5 -105s-129.833 -39 -200.5 -39c-79.333 0 -149.833 16.167 -211.5 48.5s-98.834 78.166 -111.501 137.499
c-0.666992 6 -1.33398 14.667 -2.00098 26s-1.16699 23 -1.5 35s-0.833008 22.333 -1.5 31c0 2.66699 0.666992 8.33398 2 17.001v5h188l4 -27c6.66699 -20.667 25.334 -39.334 56.001 -56.001s69 -25 115 -25c37.333 0 71.5 5.33301 102.5 16s56.333 23.667 76 39
s30.5 29.666 32.5 42.999c0.666992 4 1 7.66699 1 11c0 22 -14.333 43 -43 63s-71 31 -127 33c-95.333 1.33301 -175.333 24.666 -240 69.999c-62.667 48.667 -94 107 -94 175c0 15.333 1.66699 31.333 5 48c10.667 53.333 37.5 102 80.5 146s96.167 79 159.5 105
s130.333 39 201 39c79.333 0 149.833 -16.167 211.5 -48.5s98.5 -78.166 110.5 -137.499c1.33301 -6 2.33301 -14.667 3 -26s1.16699 -23 1.5 -35s0.5 -22 0.5 -30c0 -3.33301 -0.666992 -9.33301 -2 -18v-5h-188l-4 27c-6 20.667 -24.5 39.334 -55.5 56.001
s-69.5 25 -115.5 25c-37.333 0 -71.333 -5.33301 -102 -16s-55.834 -23.667 -75.501 -39s-30.834 -29.666 -33.501 -42.999c-0.666992 -2.66699 -1 -5.66699 -1 -9c0 -20.667 15.333 -40.667 46 -60s74.334 -30 131.001 -32c96 -1.33301 175.667 -26.333 239 -75z
M734.002 1272h216l-186 -216l-144 1z" />
    <glyph glyph-name="Scircumflex" unicode="&#x15c;" 
d="M629 768c70.667 0 131.668 -17.3389 183.001 -52.0059s88.666 -81 111.999 -139c14 -35.333 21 -74.666 21 -117.999c0 -26.667 -2.66699 -55 -8 -85c-14 -70.667 -44 -135 -90 -193s-101.333 -104.333 -166 -139s-132.334 -52 -203.001 -52s-131.667 17.333 -183 52
s-88.666 81 -111.999 139c-14 35.333 -21 74 -21 116c0 27.333 3 56.333 9 87h192c-3.33301 -17.333 -5 -33.666 -5 -48.999c0 -38 12.833 -73 38.5 -105s65.167 -48 118.5 -48s102.333 18.667 147 56s72.334 82.666 83.001 135.999c3.33301 16.667 5 32.334 5 47.001
c0 38.667 -13 74.167 -39 106.5s-65.667 48.5 -119 48.5c-70.667 0 -131.667 17.333 -183 52s-88.666 81 -111.999 139c-14 35.333 -21 74 -21 116c0 27.333 3 56.333 9 87c13.333 70.667 43 135 89 193s101.167 104.167 165.5 138.5s132.166 51.833 203.499 52.5
c70.667 0 131.667 -17.333 183 -52s88.666 -81 111.999 -139c14 -35.333 21 -74.666 21 -117.999c0 -26.667 -2.66699 -55 -8 -85h-192c3.33301 16.667 5 32.334 5 47.001c0 38.667 -13 74.167 -39 106.5s-65.667 48.5 -119 48.5s-102.333 -18.667 -147 -56
s-72 -82.666 -82 -135.999c-3.33301 -17.333 -5 -33.666 -5 -48.999c0 -38 12.833 -73 38.5 -105s65.167 -48 118.5 -48zM681.001 1655.99h243l79 -216h-182l-40 107l-82 -107h-182z" />
    <glyph glyph-name="scircumflex" unicode="&#x15d;" 
d="M835 504c58.667 -48.667 88.002 -106.667 88.002 -174c0 -16 -1.66699 -32.667 -5 -50c-10 -53.333 -36.667 -102 -80 -146s-96.5 -79 -159.5 -105s-129.833 -39 -200.5 -39c-79.333 0 -149.833 16.167 -211.5 48.5s-98.834 78.166 -111.501 137.499
c-0.666992 6 -1.33398 14.667 -2.00098 26s-1.16699 23 -1.5 35s-0.833008 22.333 -1.5 31c0 2.66699 0.666992 8.33398 2 17.001v5h188l4 -27c6.66699 -20.667 25.334 -39.334 56.001 -56.001s69 -25 115 -25c37.333 0 71.5 5.33301 102.5 16s56.333 23.667 76 39
s30.5 29.666 32.5 42.999c0.666992 4 1 7.66699 1 11c0 22 -14.333 43 -43 63s-71 31 -127 33c-95.333 1.33301 -175.333 24.666 -240 69.999c-62.667 48.667 -94 107 -94 175c0 15.333 1.66699 31.333 5 48c10.667 53.333 37.5 102 80.5 146s96.167 79 159.5 105
s130.333 39 201 39c79.333 0 149.833 -16.167 211.5 -48.5s98.5 -78.166 110.5 -137.499c1.33301 -6 2.33301 -14.667 3 -26s1.16699 -23 1.5 -35s0.5 -22 0.5 -30c0 -3.33301 -0.666992 -9.33301 -2 -18v-5h-188l-4 27c-6 20.667 -24.5 39.334 -55.5 56.001
s-69.5 25 -115.5 25c-37.333 0 -71.333 -5.33301 -102 -16s-55.834 -23.667 -75.501 -39s-30.834 -29.666 -33.501 -42.999c-0.666992 -2.66699 -1 -5.66699 -1 -9c0 -20.667 15.333 -40.667 46 -60s74.334 -30 131.001 -32c96 -1.33301 175.667 -26.333 239 -75z
M848.002 1272l80 -216h-182l-40 107l-82 -107h-182l163 216h243z" />
    <glyph glyph-name="Scedilla" unicode="&#x15e;" 
d="M629 768c70.667 0 131.668 -17.3389 183.001 -52.0059s88.666 -81 111.999 -139c14 -35.333 21 -74.666 21 -117.999c0 -26.667 -2.66699 -55 -8 -85c-14 -70.667 -44 -135 -90 -193s-101.333 -104.333 -166 -139s-132.334 -52 -203.001 -52s-131.667 17.333 -183 52
s-88.666 81 -111.999 139c-14 35.333 -21 74 -21 116c0 27.333 3 56.333 9 87h192c-3.33301 -17.333 -5 -33.666 -5 -48.999c0 -38 12.833 -73 38.5 -105s65.167 -48 118.5 -48s102.333 18.667 147 56s72.334 82.666 83.001 135.999c3.33301 16.667 5 32.334 5 47.001
c0 38.667 -13 74.167 -39 106.5s-65.667 48.5 -119 48.5c-70.667 0 -131.667 17.333 -183 52s-88.666 81 -111.999 139c-14 35.333 -21 74 -21 116c0 27.333 3 56.333 9 87c13.333 70.667 43 135 89 193s101.167 104.167 165.5 138.5s132.166 51.833 203.499 52.5
c70.667 0 131.667 -17.333 183 -52s88.666 -81 111.999 -139c14 -35.333 21 -74.666 21 -117.999c0 -26.667 -2.66699 -55 -8 -85h-192c3.33301 16.667 5 32.334 5 47.001c0 38.667 -13 74.167 -39 106.5s-65.667 48.5 -119 48.5s-102.333 -18.667 -147 -56
s-72 -82.666 -82 -135.999c-3.33301 -17.333 -5 -33.666 -5 -48.999c0 -38 12.833 -73 38.5 -105s65.167 -48 118.5 -48zM389.001 -96.0059h216l-186 -216l-143 1z" />
    <glyph glyph-name="scedilla" unicode="&#x15f;" 
d="M835 504c58.667 -48.667 88.002 -106.667 88.002 -174c0 -16 -1.66699 -32.667 -5 -50c-10 -53.333 -36.667 -102 -80 -146s-96.5 -79 -159.5 -105s-129.833 -39 -200.5 -39c-79.333 0 -149.833 16.167 -211.5 48.5s-98.834 78.166 -111.501 137.499
c-0.666992 6 -1.33398 14.667 -2.00098 26s-1.16699 23 -1.5 35s-0.833008 22.333 -1.5 31c0 2.66699 0.666992 8.33398 2 17.001v5h188l4 -27c6.66699 -20.667 25.334 -39.334 56.001 -56.001s69 -25 115 -25c37.333 0 71.5 5.33301 102.5 16s56.333 23.667 76 39
s30.5 29.666 32.5 42.999c0.666992 4 1 7.66699 1 11c0 22 -14.333 43 -43 63s-71 31 -127 33c-95.333 1.33301 -175.333 24.666 -240 69.999c-62.667 48.667 -94 107 -94 175c0 15.333 1.66699 31.333 5 48c10.667 53.333 37.5 102 80.5 146s96.167 79 159.5 105
s130.333 39 201 39c79.333 0 149.833 -16.167 211.5 -48.5s98.5 -78.166 110.5 -137.499c1.33301 -6 2.33301 -14.667 3 -26s1.16699 -23 1.5 -35s0.5 -22 0.5 -30c0 -3.33301 -0.666992 -9.33301 -2 -18v-5h-188l-4 27c-6 20.667 -24.5 39.334 -55.5 56.001
s-69.5 25 -115.5 25c-37.333 0 -71.333 -5.33301 -102 -16s-55.834 -23.667 -75.501 -39s-30.834 -29.666 -33.501 -42.999c-0.666992 -2.66699 -1 -5.66699 -1 -9c0 -20.667 15.333 -40.667 46 -60s74.334 -30 131.001 -32c96 -1.33301 175.667 -26.333 239 -75z
M389.002 -96h216l-186 -216l-143 1z" />
    <glyph glyph-name="Scaron" unicode="&#x160;" 
d="M629 768c70.667 0 131.668 -17.3389 183.001 -52.0059s88.666 -81 111.999 -139c14 -35.333 21 -74.666 21 -117.999c0 -26.667 -2.66699 -55 -8 -85c-14 -70.667 -44 -135 -90 -193s-101.333 -104.333 -166 -139s-132.334 -52 -203.001 -52s-131.667 17.333 -183 52
s-88.666 81 -111.999 139c-14 35.333 -21 74 -21 116c0 27.333 3 56.333 9 87h192c-3.33301 -17.333 -5 -33.666 -5 -48.999c0 -38 12.833 -73 38.5 -105s65.167 -48 118.5 -48s102.333 18.667 147 56s72.334 82.666 83.001 135.999c3.33301 16.667 5 32.334 5 47.001
c0 38.667 -13 74.167 -39 106.5s-65.667 48.5 -119 48.5c-70.667 0 -131.667 17.333 -183 52s-88.666 81 -111.999 139c-14 35.333 -21 74 -21 116c0 27.333 3 56.333 9 87c13.333 70.667 43 135 89 193s101.167 104.167 165.5 138.5s132.166 51.833 203.499 52.5
c70.667 0 131.667 -17.333 183 -52s88.666 -81 111.999 -139c14 -35.333 21 -74.666 21 -117.999c0 -26.667 -2.66699 -55 -8 -85h-192c3.33301 16.667 5 32.334 5 47.001c0 38.667 -13 74.167 -39 106.5s-65.667 48.5 -119 48.5s-102.333 -18.667 -147 -56
s-72 -82.666 -82 -135.999c-3.33301 -17.333 -5 -33.666 -5 -48.999c0 -38 12.833 -73 38.5 -105s65.167 -48 118.5 -48zM639.001 1439.99l-80 216h182l40 -107l82 107h182l-163 -216h-243z" />
    <glyph glyph-name="scaron" unicode="&#x161;" 
d="M835 504c58.667 -48.667 88.002 -106.667 88.002 -174c0 -16 -1.66699 -32.667 -5 -50c-10 -53.333 -36.667 -102 -80 -146s-96.5 -79 -159.5 -105s-129.833 -39 -200.5 -39c-79.333 0 -149.833 16.167 -211.5 48.5s-98.834 78.166 -111.501 137.499
c-0.666992 6 -1.33398 14.667 -2.00098 26s-1.16699 23 -1.5 35s-0.833008 22.333 -1.5 31c0 2.66699 0.666992 8.33398 2 17.001v5h188l4 -27c6.66699 -20.667 25.334 -39.334 56.001 -56.001s69 -25 115 -25c37.333 0 71.5 5.33301 102.5 16s56.333 23.667 76 39
s30.5 29.666 32.5 42.999c0.666992 4 1 7.66699 1 11c0 22 -14.333 43 -43 63s-71 31 -127 33c-95.333 1.33301 -175.333 24.666 -240 69.999c-62.667 48.667 -94 107 -94 175c0 15.333 1.66699 31.333 5 48c10.667 53.333 37.5 102 80.5 146s96.167 79 159.5 105
s130.333 39 201 39c79.333 0 149.833 -16.167 211.5 -48.5s98.5 -78.166 110.5 -137.499c1.33301 -6 2.33301 -14.667 3 -26s1.16699 -23 1.5 -35s0.5 -22 0.5 -30c0 -3.33301 -0.666992 -9.33301 -2 -18v-5h-188l-4 27c-6 20.667 -24.5 39.334 -55.5 56.001
s-69.5 25 -115.5 25c-37.333 0 -71.333 -5.33301 -102 -16s-55.834 -23.667 -75.501 -39s-30.834 -29.666 -33.501 -42.999c-0.666992 -2.66699 -1 -5.66699 -1 -9c0 -20.667 15.333 -40.667 46 -60s74.334 -30 131.001 -32c96 -1.33301 175.667 -26.333 239 -75z
M564.002 1056l-80 216h182l40 -107l82 107h182l-163 -216h-243z" />
    <glyph glyph-name="uni0162" unicode="&#x162;" 
d="M341 -96h216l-186 -216l-143 1zM357 1344h768l-37 -192h-288l-224 -1152h-192l224 1152h-288z" />
    <glyph glyph-name="uni0163" unicode="&#x163;" horiz-adv-x="768" 
d="M517 192h192l-37 -192h-192c-53.333 0 -95 19 -125 57c-22.667 28 -34 60.333 -34 97c0 12 1.33301 24.667 4 38l112 576h-192l38 192h192l74 384h192l-74 -384h192l-38 -192h-192zM389 -96h216l-186 -216l-143 1z" />
    <glyph glyph-name="Tcaron" unicode="&#x164;" 
d="M357 1344h768l-37 -192h-288l-224 -1152h-192l224 1152h-288zM639 1440l-80 216h182l40 -107l82 107h182l-163 -216h-243z" />
    <glyph glyph-name="tcaron" unicode="&#x165;" horiz-adv-x="768" 
d="M517 192h192l-37 -192h-192c-53.333 0 -95 19 -125 57c-22.667 28 -34 60.333 -34 97c0 12 1.33301 24.667 4 38l112 576h-192l38 192h192l74 384h192l-74 -384h192l-38 -192h-192zM933 1344h144l-28 -144c-7.33301 -40 -27.833 -74 -61.5 -102s-70.5 -42 -110.5 -42
l14 72c20 0 38.333 7 55 21s27 31 31 51h-72z" />
    <glyph glyph-name="Tbar" unicode="&#x166;" 
d="M529 744l79 408h-288l37 192h768l-37 -192h-288l-79 -408h192l-28 -144h-192l-117 -600h-192l117 600h-192l28 144h192z" />
    <glyph glyph-name="tbar" unicode="&#x167;" horiz-adv-x="768" 
d="M367 408h-192l28 144h192l42 216h-192l38 192h192l74 384h192l-74 -384h192l-38 -192h-192l-42 -216h192l-28 -144h-192l-42 -216h192l-37 -192h-192c-53.333 0 -95 19 -125 57c-22.667 28 -34 60.333 -34 97c0 12 1.33301 24.667 4 38z" />
    <glyph glyph-name="Utilde" unicode="&#x168;" 
d="M937 374c-14 -70.667 -43.8311 -135.168 -89.498 -193.501s-101 -104.666 -166 -138.999s-132.833 -51.5 -203.5 -51.5s-131.834 17.167 -183.501 51.5s-88.834 80.833 -111.501 139.5c-14.667 36 -22 74.667 -22 116c0 24.667 2.66699 50.334 8 77.001l188 970h193
l-189 -970c-2.66699 -13.333 -4 -26 -4 -38c0 -36.667 13.167 -71.334 39.5 -104.001s65.833 -49 118.5 -49c53.333 0 102.5 18.667 147.5 56s72.5 82.333 82.5 135l189 970h191zM828.002 1440c-40.667 0 -70.668 15 -90.001 45c-5.33301 6 -12.666 19.333 -21.999 40
c-3.33301 8.66699 -6.33301 14 -9 16c-5.33301 2 -10.333 3 -15 3c-8 -0.666992 -14.667 -3 -20 -7c-2 -2 -3 -3.33301 -3 -4c-3.33301 -3.33301 -6 -10.333 -8 -21l-15 -72h-129c10.667 55.333 19 91 25 107c12.667 37.333 41.667 67.333 87 90c26 12.667 61 19 105 19
c56.667 0 93.667 -28.333 111 -85c3.33301 -9.33301 6.66602 -14.333 9.99902 -15c5.33301 -2 10 -3 14 -3c5.33301 0 11.333 2 18 6s10.667 9.33301 12 16l15 81h131l-14 -71c-11.333 -58 -41.666 -98.333 -90.999 -121c-34.667 -16 -72 -24 -112 -24z" />
    <glyph glyph-name="utilde" unicode="&#x169;" 
d="M859 960l191.999 -0.000976562l-187 -960h-192l17 90c-34 -30.667 -69 -55 -105 -73s-71.333 -27 -106 -27c-71.333 0.666992 -132.5 18.167 -183.5 52.5s-88.167 80.5 -111.5 138.5c-14.667 36 -22 74.667 -22 116c0 24.667 2.66699 50.334 8 77.001l114 586h192
l-114 -586c-2.66699 -14 -4 -27.667 -4 -41c0 -36 12.833 -69.833 38.5 -101.5s65.5 -48.167 119.5 -49.5c55.333 1.33301 104.833 20.333 148.5 57s70.834 81.667 81.501 135zM753.999 1056c-41.333 0 -71.665 15 -90.998 45c-4.66699 6 -11.667 19.333 -21 40
c-4 8.66699 -7 14 -9 16c-6 2 -11.333 3 -16 3c-8 -0.666992 -14.333 -3 -19 -7c-2.66699 -2 -4 -3.33301 -4 -4c-3.33301 -3.33301 -6 -10.333 -8 -21l-14 -72h-130c10.667 55.333 19 91 25 107c12.667 37.333 42 67.333 88 90c26 12.667 60.667 19 104 19
c56.667 0 93.667 -28.333 111 -85c3.33301 -9.33301 6.66602 -14.333 9.99902 -15c5.33301 -2 10 -3 14 -3c6 0 12.167 2 18.5 6s10.166 9.33301 11.499 16l16 81h130l-14 -71c-10.667 -58 -40.667 -98.333 -90 -121c-34.667 -16 -72 -24 -112 -24z" />
    <glyph glyph-name="Umacron" unicode="&#x16a;" 
d="M937 374c-14 -70.667 -43.8311 -135.168 -89.498 -193.501s-101 -104.666 -166 -138.999s-132.833 -51.5 -203.5 -51.5s-131.834 17.167 -183.501 51.5s-88.834 80.833 -111.501 139.5c-14.667 36 -22 74.667 -22 116c0 24.667 2.66699 50.334 8 77.001l188 970h193
l-189 -970c-2.66699 -13.333 -4 -26 -4 -38c0 -36.667 13.167 -71.334 39.5 -104.001s65.833 -49 118.5 -49c53.333 0 102.5 18.667 147.5 56s72.5 82.333 82.5 135l189 970h191zM1010 1476h-486l28 144h486z" />
    <glyph glyph-name="umacron" unicode="&#x16b;" 
d="M859 960l191.999 -0.000976562l-187 -960h-192l17 90c-34 -30.667 -69 -55 -105 -73s-71.333 -27 -106 -27c-71.333 0.666992 -132.5 18.167 -183.5 52.5s-88.167 80.5 -111.5 138.5c-14.667 36 -22 74.667 -22 116c0 24.667 2.66699 50.334 8 77.001l114 586h192
l-114 -586c-2.66699 -14 -4 -27.667 -4 -41c0 -36 12.833 -69.833 38.5 -101.5s65.5 -48.167 119.5 -49.5c55.333 1.33301 104.833 20.333 148.5 57s70.834 81.667 81.501 135zM934.999 1092h-486l28 144h486z" />
    <glyph glyph-name="Ubreve" unicode="&#x16c;" 
d="M937 374c-14 -70.667 -43.8311 -135.168 -89.498 -193.501s-101 -104.666 -166 -138.999s-132.833 -51.5 -203.5 -51.5s-131.834 17.167 -183.501 51.5s-88.834 80.833 -111.501 139.5c-14.667 36 -22 74.667 -22 116c0 24.667 2.66699 50.334 8 77.001l188 970h193
l-189 -970c-2.66699 -13.333 -4 -26 -4 -38c0 -36.667 13.167 -71.334 39.5 -104.001s65.833 -49 118.5 -49c53.333 0 102.5 18.667 147.5 56s72.5 82.333 82.5 135l189 970h191zM760.002 1440c-67.333 0 -120.667 21.332 -160 63.999c-30 32.667 -45 70.334 -45 113.001
c0 12.667 1.33301 25.667 4 39h124c-1.33301 -6.66699 -2 -13.334 -2 -20.001c0 -20.667 8.5 -40.167 25.5 -58.5s41.833 -27.5 74.5 -27.5s62.667 10.333 90 31s44 45.667 50 75h124c-11.333 -59.333 -45 -110.166 -101 -152.499s-117.333 -63.5 -184 -63.5z" />
    <glyph glyph-name="ubreve" unicode="&#x16d;" 
d="M859 960l191.999 -0.000976562l-187 -960h-192l17 90c-34 -30.667 -69 -55 -105 -73s-71.333 -27 -106 -27c-71.333 0.666992 -132.5 18.167 -183.5 52.5s-88.167 80.5 -111.5 138.5c-14.667 36 -22 74.667 -22 116c0 24.667 2.66699 50.334 8 77.001l114 586h192
l-114 -586c-2.66699 -14 -4 -27.667 -4 -41c0 -36 12.833 -69.833 38.5 -101.5s65.5 -48.167 119.5 -49.5c55.333 1.33301 104.833 20.333 148.5 57s70.834 81.667 81.501 135zM684.999 1056c-67.333 0 -120.332 21.3311 -158.999 63.998
c-30.667 32.667 -46 70.334 -46 113.001c0 12.667 1.33301 25.667 4 39h124c-1.33301 -6.66699 -2 -12.667 -2 -18c0 -22 8.66699 -42.167 26 -60.5s42.333 -27.5 75 -27.5s62.667 10.333 90 31s43.666 45.667 48.999 75h124c-11.333 -59.333 -45 -110.166 -101 -152.499
s-117.333 -63.5 -184 -63.5z" />
    <glyph glyph-name="Uring" unicode="&#x16e;" 
d="M937 374c-14 -70.667 -43.8311 -135.168 -89.498 -193.501s-101 -104.666 -166 -138.999s-132.833 -51.5 -203.5 -51.5s-131.834 17.167 -183.501 51.5s-88.834 80.833 -111.501 139.5c-14.667 36 -22 74.667 -22 116c0 24.667 2.66699 50.334 8 77.001l188 970h193
l-189 -970c-2.66699 -13.333 -4 -26 -4 -38c0 -36.667 13.167 -71.334 39.5 -104.001s65.833 -49 118.5 -49c53.333 0 102.5 18.667 147.5 56s72.5 82.333 82.5 135l189 970h191zM921.002 1656c1.33301 6.66699 1.99902 12.668 1.99902 18.001
c0 22 -8.66699 42.167 -26 60.5s-42.333 27.5 -75 27.5s-62.667 -10.333 -90 -31s-43.666 -45.667 -48.999 -75c-1.33301 -6.66699 -2 -13.334 -2 -20.001c0 -20.667 8.5 -40.167 25.5 -58.5s41.833 -27.5 74.5 -27.5s62.667 10.333 90 31s44 45.667 50 75zM844.001 1872
c66.667 0 119.666 -21.001 158.999 -63.001c30.667 -33.333 46 -71.333 46 -114c0 -12.667 -1.33301 -25.667 -4 -39c-11.333 -59.333 -45 -110.166 -101 -152.499s-117.333 -63.5 -184 -63.5c-67.333 0 -120.666 21.333 -159.999 64c-30 32.667 -45 70.334 -45 113.001
c0 12.667 1.33301 25.667 4 39c11.333 59.333 44.833 110.166 100.5 152.499s117.167 63.5 184.5 63.5z" />
    <glyph glyph-name="uring" unicode="&#x16f;" 
d="M859 960l191.999 -0.000976562l-187 -960h-192l17 90c-34 -30.667 -69 -55 -105 -73s-71.333 -27 -106 -27c-71.333 0.666992 -132.5 18.167 -183.5 52.5s-88.167 80.5 -111.5 138.5c-14.667 36 -22 74.667 -22 116c0 24.667 2.66699 50.334 8 77.001l114 586h192
l-114 -586c-2.66699 -14 -4 -27.667 -4 -41c0 -36 12.833 -69.833 38.5 -101.5s65.5 -48.167 119.5 -49.5c55.333 1.33301 104.833 20.333 148.5 57s70.834 81.667 81.501 135zM845.999 1272c1.33301 6.66699 2.00098 13.333 2.00098 20c0 20.667 -8.5 40.167 -25.5 58.5
s-41.833 27.5 -74.5 27.5s-62.667 -10.333 -90 -31s-44 -45.667 -50 -75c-1.33301 -6.66699 -2 -12.667 -2 -18c0 -22 8.66699 -42.167 26 -60.5s42.333 -27.5 75 -27.5s62.667 10.333 90 31s43.666 45.667 48.999 75zM769 1488c66.667 0 119.668 -21 159.001 -63
c30.667 -32.667 46 -70.334 46 -113.001c0 -12.667 -1.33301 -26 -4 -40c-11.333 -59.333 -45 -110.166 -101 -152.499s-117.333 -63.5 -184 -63.5c-67.333 0 -120.333 21.333 -159 64c-30.667 32.667 -46 70.334 -46 113.001c0 12.667 1.33301 25.667 4 39
c12 59.333 45.667 110.166 101 152.499s116.666 63.5 183.999 63.5z" />
    <glyph glyph-name="Uhungarumlaut" unicode="&#x170;" 
d="M937 374c-14 -70.667 -43.8311 -135.168 -89.498 -193.501s-101 -104.666 -166 -138.999s-132.833 -51.5 -203.5 -51.5s-131.834 17.167 -183.501 51.5s-88.834 80.833 -111.501 139.5c-14.667 36 -22 74.667 -22 116c0 24.667 2.66699 50.334 8 77.001l188 970h193
l-189 -970c-2.66699 -13.333 -4 -26 -4 -38c0 -36.667 13.167 -71.334 39.5 -104.001s65.833 -49 118.5 -49c53.333 0 102.5 18.667 147.5 56s72.5 82.333 82.5 135l189 970h191zM590.002 1656h216l-186 -216h-144zM950.002 1656h216l-186 -216h-144z" />
    <glyph glyph-name="uhungarumlaut" unicode="&#x171;" 
d="M859 960l191.999 -0.000976562l-187 -960h-192l17 90c-34 -30.667 -69 -55 -105 -73s-71.333 -27 -106 -27c-71.333 0.666992 -132.5 18.167 -183.5 52.5s-88.167 80.5 -111.5 138.5c-14.667 36 -22 74.667 -22 116c0 24.667 2.66699 50.334 8 77.001l114 586h192
l-114 -586c-2.66699 -14 -4 -27.667 -4 -41c0 -36 12.833 -69.833 38.5 -101.5s65.5 -48.167 119.5 -49.5c55.333 1.33301 104.833 20.333 148.5 57s70.834 81.667 81.501 135zM514.999 1272h216l-186 -216h-144zM874.999 1272h216l-186 -216h-144z" />
    <glyph glyph-name="Uogonek" unicode="&#x172;" 
d="M461 -10c-63.333 2.66699 -118.667 19.998 -166 51.998c-52 34 -89.333 80.333 -112 139c-14.667 36 -22 74.667 -22 116c0 24.667 2.66699 50.334 8 77.001l188 970h193l-188 -970c-2.66699 -14 -4 -27.333 -4 -40c0 -36 13.167 -70.167 39.5 -102.5
s65.833 -48.5 118.5 -48.5s101.5 18.667 146.5 56s72.833 82.333 83.5 135l188 970h191l-188 -970c-14 -70.667 -43.833 -135.167 -89.5 -193.5s-100.834 -104.5 -165.501 -138.5c-38 -20 -76.667 -34.333 -116 -43c-17.333 -40 -27.333 -67.667 -30 -83
c-1.33301 -8 -2 -15.667 -2 -23c0 -14 3.66699 -29.167 11 -45.5s25.5 -27.666 54.5 -33.999s56.5 -9.5 82.5 -9.5l-25 -128c-79.333 0 -143 21 -191 63c-38.667 34 -58 73.667 -58 119c0 10.667 1 21.667 3 33c6.66699 36.667 23.334 69.667 50.001 99z" />
    <glyph glyph-name="uogonek" unicode="&#x173;" 
d="M682 53l6.99902 36.998c-34 -30.667 -69 -55 -105 -73s-71.333 -27 -106 -27c-71.333 0.666992 -132.5 18.167 -183.5 52.5s-88.167 80.5 -111.5 138.5c-14.667 36 -22 74.667 -22 116c0 24.667 2.66699 50.334 8 77.001l114 586h192l-114 -586
c-2.66699 -14 -4 -27.667 -4 -41c0 -36 12.833 -69.833 38.5 -101.5s65.5 -48.167 119.5 -49.5c55.333 1.33301 104.833 20.333 148.5 57s70.834 81.667 81.501 135l114 586h192l-187 -960h-153l-8 -18c-12 -24.667 -19.667 -46.667 -23 -66c-1.33301 -8 -2 -15.667 -2 -23
c0 -14 3.66699 -29.167 11 -45.5s25.5 -27.666 54.5 -33.999s56.5 -9.5 82.5 -9.5l-25 -128c-79.333 0 -143 21 -191 63c-38.667 34 -58 73.667 -58 119c0 10.667 1 21.667 3 33c12 60.667 50.333 112 115 154z" />
    <glyph glyph-name="Wcircumflex" unicode="&#x174;" horiz-adv-x="1152" 
d="M1219 1344h194l-453 -1344h-194l-18 886l-362 -886h-194l69 1344h194l-42 -798l326 798h196l16 -798zM777 1656h243l79 -216h-182l-40 107l-82 -107h-182z" />
    <glyph glyph-name="wcircumflex" unicode="&#x175;" 
d="M953 960h194l-340 -960h-196l-24 549l-238 -549h-196l34 960h194l-17 -470l205 470h196l21 -470zM848 1272l80 -216h-182l-40 107l-82 -107h-182l163 216h243z" />
    <glyph glyph-name="Ycircumflex" unicode="&#x176;" 
d="M1221 1344l-519 -697l-126 -647h-192l126 647l-249 697h221l166 -478l352 478h221zM681 1656h243l79 -216h-182l-40 107l-82 -107h-182z" />
    <glyph glyph-name="ycircumflex" unicode="&#x177;" horiz-adv-x="768" 
d="M756 960h199l-501 -1079c-26 -58 -55.833 -104.667 -89.5 -140s-69.5 -62 -107.5 -80s-77.167 -30 -117.5 -36s-79.833 -9 -118.5 -9l38 192c64.667 0 111.167 7 139.5 21s50.5 39 66.5 75l-78 1056h199l50 -686l165 356zM752 1272l80 -216h-182l-40 107l-82 -107h-182
l163 216h243z" />
    <glyph glyph-name="Ydieresis" unicode="&#x178;" 
d="M1221 1344l-519 -697l-126 -647h-192l126 647l-249 697h221l166 -478l352 478h221zM479 1476l28 144h192l-28 -144h-192zM863 1476l28 144h192l-28 -144h-192z" />
    <glyph glyph-name="Zacute" unicode="&#x179;" horiz-adv-x="958" 
d="M1125 1344l-37 -192l-735 -960h548l-37 -192h-768l37 192l735 960h-548l37 192h768zM809 1656h216l-186 -216l-144 1z" />
    <glyph glyph-name="zacute" unicode="&#x17a;" 
d="M283 960h768l-38 -192l-634 -576h522l-37 -192h-768l37 192l634 576h-522zM734 1272h216l-186 -216l-144 1z" />
    <glyph glyph-name="Zdotaccent" unicode="&#x17b;" horiz-adv-x="958" 
d="M1125 1344l-37 -192l-735 -960h548l-37 -192h-768l37 192l735 960h-548l37 192h768zM671 1476l28 144h192l-28 -144h-192z" />
    <glyph glyph-name="zdotaccent" unicode="&#x17c;" 
d="M283 960h768l-38 -192l-634 -576h522l-37 -192h-768l37 192l634 576h-522zM596 1092l28 144h192l-28 -144h-192z" />
    <glyph glyph-name="Zcaron" unicode="&#x17d;" horiz-adv-x="958" 
d="M1125 1344l-37 -192l-735 -960h548l-37 -192h-768l37 192l735 960h-548l37 192h768zM639 1440l-80 216h182l40 -107l82 107h182l-163 -216h-243z" />
    <glyph glyph-name="zcaron" unicode="&#x17e;" 
d="M283 960h768l-38 -192l-634 -576h522l-37 -192h-768l37 192l634 576h-522zM564 1056l-80 216h182l40 -107l82 107h182l-163 -216h-243z" />
    <glyph glyph-name="longs" unicode="&#x17f;" horiz-adv-x="480" 
d="M704 1152l-192 -0.000976562l-224 -1152h-192l224 1152c10 52.667 37.333 97.834 82 135.501s93.667 56.5 147 56.5h192z" />
    <glyph glyph-name="uni0186" unicode="&#x186;" horiz-adv-x="1056" 
d="M574 -10h-96.001c-70.667 0 -131.667 17.333 -183 52s-88.666 81 -111.999 139c-14 35.333 -21 74 -21 116c0 27.333 3 56.333 9 87h192c-3.33301 -16.667 -5 -32.667 -5 -48c0 -38.667 13 -74 39 -106s65.333 -48 118 -48h96c53.333 0 102.333 18.667 147 56
s72.334 82.666 83.001 135.999l116 596c2.66699 13.333 4 26.333 4 39c0 36.667 -13.333 71.334 -40 104.001s-66.334 49 -119.001 49h-96c-53.333 0 -102.333 -18.667 -147 -56s-72.667 -86 -84 -146h-192c14.667 77.333 45 145 91 203s101.333 104.333 166 139
s132.334 52 203.001 52h96c70.667 0 131.667 -17.333 183 -52s88.666 -81 111.999 -139c14.667 -36.667 22 -76 22 -118c0 -24 -2.33301 -49 -7 -75l-116 -596c-14 -70.667 -43.833 -135 -89.5 -193s-101 -104.333 -166 -139s-132.833 -52 -203.5 -52z" />
    <glyph glyph-name="uni0189" unicode="&#x189;" 
d="M241 744l115.999 599.999h384c70.667 0 131.834 -17.167 183.501 -51.5s89.167 -80.5 112.5 -138.5c14 -36.667 21 -76 21 -118c0 -24.667 -2.33301 -50 -7 -76l-112 -576c-14 -70.667 -43.833 -135.167 -89.5 -193.5s-101 -104.666 -166 -138.999
s-132.833 -51.5 -203.5 -51.5h-384l117 600h-96l28 144h96zM433.999 743.999l195 0.000976562l-28 -144h-195l-80 -408h191c52.667 0 101.667 18.667 147 56s73.333 82.666 84 135.999l112 576c2.66699 13.333 4 26 4 38c0 37.333 -13.5 72.333 -40.5 105
s-66.833 49 -119.5 49h-191z" />
    <glyph glyph-name="uni019D" unicode="&#x19d;" 
d="M357 1344l292.001 0.000976562l90 -994l193 994h193l-261 -1344h-292l-90 995l-193 -995h-1l-37 -192c-10.667 -52.667 -38.334 -97.834 -83.001 -135.501s-93.667 -56.5 -147 -56.5h-96l38 192h96z" />
    <glyph glyph-name="uni01B2" unicode="&#x1b2;" 
d="M937 374c-14 -70.667 -43.8311 -135.168 -89.498 -193.501s-101 -104.666 -166 -138.999s-132.833 -51.5 -203.5 -51.5s-131.834 17.167 -183.501 51.5s-88.834 80.833 -111.501 139.5c-14.667 36 -22 74.667 -22 116c0 24.667 2.66699 50.334 8 77.001l188 970h193
l-188 -970c-2.66699 -14 -4 -27.333 -4 -40c0 -36 13.167 -70.167 39.5 -102.5s65.833 -48.5 118.5 -48.5s101.5 18.667 146.5 56s72.833 82.333 83.5 135l150 778h-192l37 192h192c53.333 0 95 -18.667 125 -56c22.667 -28.667 34 -61.334 34 -98.001
c0 -12 -1.33301 -24.667 -4 -38z" />
    <glyph glyph-name="uni01CD" unicode="&#x1cd;" 
d="M428 480h290l-44 515zM841 1344l119 -1344h-200l-25 288h-398l-137 -288h-200l641 1344h200zM639 1440l-80 216h182l40 -107l82 107h182l-163 -216h-243z" />
    <glyph glyph-name="uni01CE" unicode="&#x1ce;" 
d="M786 586c2.66699 13.333 3.99805 26.333 3.99805 39c0 36.667 -13.167 71.334 -39.5 104.001s-66.166 49 -119.499 49c-54.667 -1.33301 -104 -20.333 -148 -57s-71 -81.667 -81 -135l-41 -212c-2.66699 -14 -4 -27.333 -4 -40c0 -36.667 13 -71.167 39 -103.5
s65.667 -48.5 119 -48.5s102.333 18.667 147 56s72.334 82.666 83.001 135.999zM858.998 960l191.998 -0.000976562l-187 -960h-192l17 90c-34 -30.667 -69 -55 -105 -73s-71.333 -27 -106 -27c-70.667 0 -131.667 17.333 -183 52s-88.666 81 -111.999 139
c-14.667 36 -22 74.667 -22 116c0 24.667 2.66699 50.334 8 77.001l41 212c24 108.667 79.167 199.167 165.5 271.5s184.166 109.833 293.499 112.5c34.667 0 66.334 -9 95.001 -27s54.334 -42.333 77.001 -73zM563.996 1056l-80 216h182l40 -107l82 107h182l-163 -216h-243
z" />
    <glyph glyph-name="uni01CF" unicode="&#x1cf;" horiz-adv-x="768" 
d="M896 1152h-192l-187 -960h192l-37 -192h-576l37 192h192l187 960h-192l37 192h576zM543 1440l-80 216h182l40 -107l82 107h182l-163 -216h-243z" />
    <glyph glyph-name="uni01D0" unicode="&#x1d0;" horiz-adv-x="384" 
d="M276 1056l-80 216h182l40 -107l82 107h182l-163 -216h-243zM475 960l-187 -960h-192l187 960h192z" />
    <glyph glyph-name="uni01D1" unicode="&#x1d1;" horiz-adv-x="1056" 
d="M840 374l115.998 596c2.66699 14 4 27.333 4 40c0 36 -13.167 70.333 -39.5 103s-65.833 49 -118.5 49h-96c-52.667 0 -101.5 -18.667 -146.5 -56s-72.833 -82.666 -83.5 -135.999h1l-116 -596h-1c-2.66699 -13.333 -4 -26 -4 -38c0 -36.667 13.333 -71.334 40 -104.001
s66.334 -49 119.001 -49h97c52.667 0 101.334 18.667 146.001 56s72 82.333 82 135zM838.998 1354c71.333 0 132.503 -17.168 183.503 -51.501s88.167 -80.833 111.5 -139.5c14.667 -36.667 22 -76 22 -118c0 -24 -2.33301 -49 -7 -75l-116 -596
c-14 -70.667 -44 -135.167 -90 -193.5s-101.333 -104.666 -166 -138.999s-132.334 -51.5 -203.001 -51.5h-96c-70.667 0 -131.834 17.167 -183.501 51.5s-88.834 80.833 -111.501 139.5c-14.667 36 -22 74.667 -22 116c0 24.667 2.66699 50.334 8 77.001l116 596
c13.333 70.667 42.833 135.167 88.5 193.5s101 104.666 166 138.999s132.833 51.5 203.5 51.5h96zM687.001 1440l-80 216h182l40 -107l82 107h182l-163 -216h-243z" />
    <glyph glyph-name="uni01D2" unicode="&#x1d2;" 
d="M786 586c2.66699 13.333 3.99805 26.332 3.99805 38.999c0 36.667 -13.167 71.334 -39.5 104.001s-66.166 49 -119.499 49s-102.333 -18.667 -147 -56s-72 -82.666 -82 -135.999l-41 -212c-2.66699 -14 -4 -27.333 -4 -40c0 -36.667 13 -71.167 39 -103.5
s65.667 -48.5 119 -48.5s102.333 18.667 147 56s72.334 82.666 83.001 135.999zM977.998 585.999l-40.999 -212.001c-14 -70.667 -44 -135 -90 -193s-101.333 -104.333 -166 -139s-132.334 -52 -203.001 -52s-131.667 17.333 -183 52s-88.666 81 -111.999 139
c-14.667 36 -22 74.667 -22 116c0 24.667 2.66699 50.334 8 77.001l41 212c24 108.667 79.167 199.167 165.5 271.5s184.166 109.833 293.499 112.5c70.667 0 131.5 -17.333 182.5 -52s88.167 -81 111.5 -139c15.333 -36.667 23 -75.667 23 -117
c0 -24.667 -2.66699 -50 -8 -76zM563.999 1056l-80 216h182l40 -107l82 107h182l-163 -216h-243z" />
    <glyph glyph-name="uni01D3" unicode="&#x1d3;" 
d="M937 374c-14 -70.667 -43.8311 -135.168 -89.498 -193.501s-101 -104.666 -166 -138.999s-132.833 -51.5 -203.5 -51.5s-131.834 17.167 -183.501 51.5s-88.834 80.833 -111.501 139.5c-14.667 36 -22 74.667 -22 116c0 24.667 2.66699 50.334 8 77.001l188 970h193
l-189 -970c-2.66699 -13.333 -4 -26 -4 -38c0 -36.667 13.167 -71.334 39.5 -104.001s65.833 -49 118.5 -49c53.333 0 102.5 18.667 147.5 56s72.5 82.333 82.5 135l189 970h191zM639.002 1440l-80 216h182l40 -107l82 107h182l-163 -216h-243z" />
    <glyph glyph-name="uni01D4" unicode="&#x1d4;" 
d="M859 960l191.999 -0.000976562l-187 -960h-192l17 90c-34 -30.667 -69 -55 -105 -73s-71.333 -27 -106 -27c-71.333 0.666992 -132.5 18.167 -183.5 52.5s-88.167 80.5 -111.5 138.5c-14.667 36 -22 74.667 -22 116c0 24.667 2.66699 50.334 8 77.001l114 586h192
l-114 -586c-2.66699 -14 -4 -27.667 -4 -41c0 -36 12.833 -69.833 38.5 -101.5s65.5 -48.167 119.5 -49.5c55.333 1.33301 104.833 20.333 148.5 57s70.834 81.667 81.501 135zM563.999 1056l-80 216h182l40 -107l82 107h182l-163 -216h-243z" />
    <glyph glyph-name="Gcaron" unicode="&#x1e6;" 
d="M611 672h383.998l-131 -672h-96l-29 77c-81.333 -58 -168.333 -87 -261 -87c-70.667 0 -131.667 17.167 -183 51.5s-88.666 80.833 -111.999 139.5c-14.667 36 -22 74.667 -22 116c0 24.667 2.66699 50.334 8 77.001l116 596c13.333 70.667 43 135.167 89 193.5
s101.333 104.666 166 138.999s132.334 51.5 203.001 51.5s131.667 -17.167 183 -51.5s88.666 -80.833 111.999 -139.5c14 -35.333 21 -74.666 21 -117.999c0 -26.667 -2.66699 -55 -8 -85h-192c3.33301 16 5 31.333 5 46c0 39.333 -13 75.166 -39 107.499
s-65.667 48.5 -119 48.5s-102.333 -18.833 -147 -56.5s-72 -82.834 -82 -135.501l-116 -596c-2.66699 -14 -4 -27.333 -4 -40c0 -36 13 -70.333 39 -103s65.667 -49 119 -49s102.333 18.833 147 56.5s72.334 82.834 83.001 135.501l20 106h-192zM638.998 1440l-80 216h182
l40 -107l82 107h182l-163 -216h-243z" />
    <glyph glyph-name="gcaron" unicode="&#x1e7;" 
d="M786 586c2.66699 13.333 4 26.333 4 39c0 36.667 -13.333 71.334 -40 104.001s-66.334 49 -119.001 49c-54.667 -1.33301 -104 -20.333 -148 -57s-71 -81.667 -81 -135l-41 -212c-2.66699 -14 -4 -27.333 -4 -40c0 -36.667 13 -71.167 39 -103.5s65.667 -48.5 119 -48.5
s102.333 18.667 147 56s72.334 82.666 83.001 135.999zM859 960h191.999l-187 -960c-14 -70.667 -43.833 -135 -89.5 -193s-101 -104.333 -166 -139s-132.833 -52 -203.5 -52c-89.333 0 -162.5 26.833 -219.5 80.5s-88.5 126.167 -94.5 217.5h206
c26 -70.667 74.667 -106 146 -106c53.333 0 102.166 18.667 146.499 56s71.833 82.666 82.5 135.999l17 90c-34 -30.667 -69 -55 -105 -73s-71.333 -27 -106 -27c-70.667 0 -131.667 17.333 -183 52s-88.666 81 -111.999 139c-14.667 36 -22 74.667 -22 116
c0 24.667 2.66699 50.334 8 77.001l41 212c24 108.667 79.167 199.167 165.5 271.5s184.166 109.833 293.499 112.5c34.667 0 66.334 -9 95.001 -27s54.334 -42.333 77.001 -73zM563.999 1056l-80 216h182l40 -107l82 107h182l-163 -216h-243z" />
    <glyph glyph-name="uni01E8" unicode="&#x1e8;" 
d="M1125 1344l-480 -627l219 -717h-215l-158 517l-138 -181l-66 -336h-191l261 1344h192l-121 -621l476 621h221zM639 1440l-80 216h182l40 -107l82 107h182l-163 -216h-243z" />
    <glyph glyph-name="uni01E9" unicode="&#x1e9;" 
d="M1051 960l-455 -450l268 -510h-236l-187 356l-104 -103l-49 -253h-192l261 1344h192l-153 -787l407 403h248zM639 1440l-80 216h182l40 -107l82 107h182l-163 -216h-243z" />
    <glyph glyph-name="uni01EA" unicode="&#x1ea;" horiz-adv-x="1056" 
d="M841 374l115.999 595.999c2.66699 13.333 4 26 4 38c0 37.333 -13.333 72.333 -40 105s-66.334 49 -119.001 49h-96c-52.667 0 -101.667 -18.667 -147 -56s-73 -82.666 -83 -135.999h1l-116 -596h-1c-2.66699 -13.333 -4 -26.333 -4 -39c0 -36 13.5 -70.333 40.5 -103
s66.833 -49 119.5 -49h96c52.667 0 101.334 18.667 146.001 56s72.334 82.333 83.001 135zM508.999 -10.001h-30.999c-70.667 0 -131.834 17.167 -183.501 51.5s-88.834 80.833 -111.501 139.5c-14.667 36 -22 74.667 -22 116c0 24.667 2.66699 50.334 8 77.001l116 596
c13.333 70.667 42.833 135.167 88.5 193.5s101 104.666 166 138.999s132.833 51.5 203.5 51.5h96c70.667 0 131.667 -17.167 183 -51.5s88.666 -80.5 111.999 -138.5c14.667 -37.333 22 -77 22 -119c0 -24 -2.33301 -49 -7 -75l-116 -596
c-14 -70.667 -44 -135.167 -90 -193.5s-101.333 -104.5 -166 -138.5c-53.333 -28.667 -108.666 -45.334 -165.999 -50.001c-15.333 -36 -24.333 -61.333 -27 -76c-1.33301 -8 -2 -15.667 -2 -23c0 -14 3.66699 -29.167 11 -45.5s25.5 -27.666 54.5 -33.999
s56.5 -9.5 82.5 -9.5l-25 -128c-79.333 0 -143 21 -191 63c-38.667 34 -58 73.667 -58 119c0 10.667 1 21.667 3 33c6.66699 36.667 23.334 69.667 50.001 99z" />
    <glyph glyph-name="uni01EB" unicode="&#x1eb;" 
d="M786 586c2.66699 13.333 3.99805 26.332 3.99805 38.999c0 36.667 -13.167 71.334 -39.5 104.001s-66.166 49 -119.499 49s-102.333 -18.667 -147 -56s-72 -82.666 -82 -135.999l-41 -212c-2.66699 -14 -4 -27.333 -4 -40c0 -36.667 13 -71.167 39 -103.5
s65.667 -48.5 119 -48.5s102.333 18.667 147 56s72.334 82.666 83.001 135.999zM460.998 -10.001c-63.333 2.66699 -118.669 19.998 -166.002 51.998c-51.333 34.667 -88.666 81 -111.999 139c-14.667 36 -22 74.667 -22 116c0 24.667 2.66699 50.334 8 77.001l41 212
c24 108.667 79.167 199.167 165.5 271.5s184.166 109.833 293.499 112.5c70.667 0 131.5 -17.333 182.5 -52s88.167 -81 111.5 -139c15.333 -36.667 23 -75.667 23 -117c0 -24.667 -2.66699 -50 -8 -76l-41 -212c-14 -70.667 -44 -135 -90 -193s-101.333 -104.333 -166 -139
c-37.333 -20 -75.666 -34.333 -114.999 -43c-17.333 -40 -27.333 -67.667 -30 -83c-1.33301 -8 -2 -15.667 -2 -23c0 -14 3.66699 -29.167 11 -45.5s25.5 -27.666 54.5 -33.999s56.5 -9.5 82.5 -9.5l-25 -128c-79.333 0 -143 21 -191 63c-38.667 34 -58 73.667 -58 119
c0 10.667 1 21.667 3 33c6.66699 36.667 23.334 69.667 50.001 99z" />
    <glyph glyph-name="uni01EC" unicode="&#x1ec;" horiz-adv-x="1056" 
d="M841 374l115.999 595.999c2.66699 13.333 4 26 4 38c0 37.333 -13.333 72.333 -40 105s-66.334 49 -119.001 49h-96c-52.667 0 -101.667 -18.667 -147 -56s-73 -82.666 -83 -135.999h1l-116 -596h-1c-2.66699 -13.333 -4 -26.333 -4 -39c0 -36 13.5 -70.333 40.5 -103
s66.833 -49 119.5 -49h96c52.667 0 101.334 18.667 146.001 56s72.334 82.333 83.001 135zM1058 1476h-486l28 144h486zM508.999 -10.001h-30.999c-70.667 0 -131.834 17.167 -183.501 51.5s-88.834 80.833 -111.501 139.5c-14.667 36 -22 74.667 -22 116
c0 24.667 2.66699 50.334 8 77.001l116 596c13.333 70.667 42.833 135.167 88.5 193.5s101 104.666 166 138.999s132.833 51.5 203.5 51.5h96c70.667 0 131.667 -17.167 183 -51.5s88.666 -80.5 111.999 -138.5c14.667 -37.333 22 -77 22 -119c0 -24 -2.33301 -49 -7 -75
l-116 -596c-14 -70.667 -44 -135.167 -90 -193.5s-101.333 -104.5 -166 -138.5c-53.333 -28.667 -108.666 -45.334 -165.999 -50.001c-15.333 -36 -24.333 -61.333 -27 -76c-1.33301 -8 -2 -15.667 -2 -23c0 -14 3.66699 -29.167 11 -45.5s25.5 -27.666 54.5 -33.999
s56.5 -9.5 82.5 -9.5l-25 -128c-79.333 0 -143 21 -191 63c-38.667 34 -58 73.667 -58 119c0 10.667 1 21.667 3 33c6.66699 36.667 23.334 69.667 50.001 99z" />
    <glyph glyph-name="uni01ED" unicode="&#x1ed;" 
d="M786 586c2.66699 13.333 3.99805 26.332 3.99805 38.999c0 36.667 -13.167 71.334 -39.5 104.001s-66.166 49 -119.499 49s-102.333 -18.667 -147 -56s-72 -82.666 -82 -135.999l-41 -212c-2.66699 -14 -4 -27.333 -4 -40c0 -36.667 13 -71.167 39 -103.5
s65.667 -48.5 119 -48.5s102.333 18.667 147 56s72.334 82.666 83.001 135.999zM934.998 1092h-486l28 144h486zM460.998 -10.001c-63.333 2.66699 -118.669 19.998 -166.002 51.998c-51.333 34.667 -88.666 81 -111.999 139c-14.667 36 -22 74.667 -22 116
c0 24.667 2.66699 50.334 8 77.001l41 212c24 108.667 79.167 199.167 165.5 271.5s184.166 109.833 293.499 112.5c70.667 0 131.5 -17.333 182.5 -52s88.167 -81 111.5 -139c15.333 -36.667 23 -75.667 23 -117c0 -24.667 -2.66699 -50 -8 -76l-41 -212
c-14 -70.667 -44 -135 -90 -193s-101.333 -104.333 -166 -139c-37.333 -20 -75.666 -34.333 -114.999 -43c-17.333 -40 -27.333 -67.667 -30 -83c-1.33301 -8 -2 -15.667 -2 -23c0 -14 3.66699 -29.167 11 -45.5s25.5 -27.666 54.5 -33.999s56.5 -9.5 82.5 -9.5l-25 -128
c-79.333 0 -143 21 -191 63c-38.667 34 -58 73.667 -58 119c0 10.667 1 21.667 3 33c6.66699 36.667 23.334 69.667 50.001 99z" />
    <glyph glyph-name="uni01F4" unicode="&#x1f4;" 
d="M611 672h383.998l-131 -672h-96l-29 77c-81.333 -58 -168.333 -87 -261 -87c-70.667 0 -131.667 17.167 -183 51.5s-88.666 80.833 -111.999 139.5c-14.667 36 -22 74.667 -22 116c0 24.667 2.66699 50.334 8 77.001l116 596c13.333 70.667 43 135.167 89 193.5
s101.333 104.666 166 138.999s132.334 51.5 203.001 51.5s131.667 -17.167 183 -51.5s88.666 -80.833 111.999 -139.5c14 -35.333 21 -74.666 21 -117.999c0 -26.667 -2.66699 -55 -8 -85h-192c3.33301 16 5 31.333 5 46c0 39.333 -13 75.166 -39 107.499
s-65.667 48.5 -119 48.5s-102.333 -18.833 -147 -56.5s-72 -82.834 -82 -135.501l-116 -596c-2.66699 -14 -4 -27.333 -4 -40c0 -36 13 -70.333 39 -103s65.667 -49 119 -49s102.333 18.833 147 56.5s72.334 82.834 83.001 135.501l20 106h-192zM808.998 1656h216l-186 -216
l-144 1z" />
    <glyph glyph-name="uni01F5" unicode="&#x1f5;" 
d="M786 586c2.66699 13.333 4 26.333 4 39c0 36.667 -13.333 71.334 -40 104.001s-66.334 49 -119.001 49c-54.667 -1.33301 -104 -20.333 -148 -57s-71 -81.667 -81 -135l-41 -212c-2.66699 -14 -4 -27.333 -4 -40c0 -36.667 13 -71.167 39 -103.5s65.667 -48.5 119 -48.5
s102.333 18.667 147 56s72.334 82.666 83.001 135.999zM859 960h191.999l-187 -960c-14 -70.667 -43.833 -135 -89.5 -193s-101 -104.333 -166 -139s-132.833 -52 -203.5 -52c-89.333 0 -162.5 26.833 -219.5 80.5s-88.5 126.167 -94.5 217.5h206
c26 -70.667 74.667 -106 146 -106c53.333 0 102.166 18.667 146.499 56s71.833 82.666 82.5 135.999l17 90c-34 -30.667 -69 -55 -105 -73s-71.333 -27 -106 -27c-70.667 0 -131.667 17.333 -183 52s-88.666 81 -111.999 139c-14.667 36 -22 74.667 -22 116
c0 24.667 2.66699 50.334 8 77.001l41 212c24 108.667 79.167 199.167 165.5 271.5s184.166 109.833 293.499 112.5c34.667 0 66.334 -9 95.001 -27s54.334 -42.333 77.001 -73zM733.999 1272h216l-186 -216l-144 1z" />
    <glyph glyph-name="uni01F8" unicode="&#x1f8;" 
d="M933 1344h192l-261 -1344h-292l-90 995l-193 -995h-193l261 1344h292l91 -994zM795 1656l30 -215l-144 -1l-102 216h216z" />
    <glyph glyph-name="uni01F9" unicode="&#x1f9;" 
d="M669 970c70.667 -0.666992 131.501 -18.168 182.501 -52.501s88.167 -80.5 111.5 -138.5c15.333 -36.667 23 -75.667 23 -117c0 -24.667 -2.66699 -50 -8 -76l-114 -586h-192l114 586c2.66699 13.333 4 26.333 4 39c0 36.667 -12.833 71 -38.5 103
s-65.834 48.667 -120.501 50c-52.667 0 -101.5 -18.667 -146.5 -56s-72.5 -82.666 -82.5 -135.999l-114 -586h-192l187 960h192l-18 -90c34.667 30.667 70 55 106 73s71.333 27 106 27zM720.001 1272l30 -215l-144 -1l-102 216h216z" />
    <glyph glyph-name="uni0218" unicode="&#x218;" 
d="M629 768c70.667 0 131.668 -17.3389 183.001 -52.0059s88.666 -81 111.999 -139c14 -35.333 21 -74.666 21 -117.999c0 -26.667 -2.66699 -55 -8 -85c-14 -70.667 -44 -135 -90 -193s-101.333 -104.333 -166 -139s-132.334 -52 -203.001 -52s-131.667 17.333 -183 52
s-88.666 81 -111.999 139c-14 35.333 -21 74 -21 116c0 27.333 3 56.333 9 87h192c-3.33301 -17.333 -5 -33.666 -5 -48.999c0 -38 12.833 -73 38.5 -105s65.167 -48 118.5 -48s102.333 18.667 147 56s72.334 82.666 83.001 135.999c3.33301 16.667 5 32.334 5 47.001
c0 38.667 -13 74.167 -39 106.5s-65.667 48.5 -119 48.5c-70.667 0 -131.667 17.333 -183 52s-88.666 81 -111.999 139c-14 35.333 -21 74 -21 116c0 27.333 3 56.333 9 87c13.333 70.667 43 135 89 193s101.167 104.167 165.5 138.5s132.166 51.833 203.499 52.5
c70.667 0 131.667 -17.333 183 -52s88.666 -81 111.999 -139c14 -35.333 21 -74.666 21 -117.999c0 -26.667 -2.66699 -55 -8 -85h-192c3.33301 16.667 5 32.334 5 47.001c0 38.667 -13 74.167 -39 106.5s-65.667 48.5 -119 48.5s-102.333 -18.667 -147 -56
s-72 -82.666 -82 -135.999c-3.33301 -17.333 -5 -33.666 -5 -48.999c0 -38 12.833 -73 38.5 -105s65.167 -48 118.5 -48zM389.001 -96.0059h144l-28 -144c-7.33301 -40 -27.833 -74 -61.5 -102s-70.5 -42 -110.5 -42l14 72c20 0 38.5 7 55.5 21s27.167 31 30.5 51h-72z" />
    <glyph glyph-name="uni0219" unicode="&#x219;" 
d="M835 504c58.667 -48.667 88.002 -106.667 88.002 -174c0 -16 -1.66699 -32.667 -5 -50c-10 -53.333 -36.667 -102 -80 -146s-96.5 -79 -159.5 -105s-129.833 -39 -200.5 -39c-79.333 0 -149.833 16.167 -211.5 48.5s-98.834 78.166 -111.501 137.499
c-0.666992 6 -1.33398 14.667 -2.00098 26s-1.16699 23 -1.5 35s-0.833008 22.333 -1.5 31c0 2.66699 0.666992 8.33398 2 17.001v5h188l4 -27c6.66699 -20.667 25.334 -39.334 56.001 -56.001s69 -25 115 -25c37.333 0 71.5 5.33301 102.5 16s56.333 23.667 76 39
s30.5 29.666 32.5 42.999c0.666992 4 1 7.66699 1 11c0 22 -14.333 43 -43 63s-71 31 -127 33c-95.333 1.33301 -175.333 24.666 -240 69.999c-62.667 48.667 -94 107 -94 175c0 15.333 1.66699 31.333 5 48c10.667 53.333 37.5 102 80.5 146s96.167 79 159.5 105
s130.333 39 201 39c79.333 0 149.833 -16.167 211.5 -48.5s98.5 -78.166 110.5 -137.499c1.33301 -6 2.33301 -14.667 3 -26s1.16699 -23 1.5 -35s0.5 -22 0.5 -30c0 -3.33301 -0.666992 -9.33301 -2 -18v-5h-188l-4 27c-6 20.667 -24.5 39.334 -55.5 56.001
s-69.5 25 -115.5 25c-37.333 0 -71.333 -5.33301 -102 -16s-55.834 -23.667 -75.501 -39s-30.834 -29.666 -33.501 -42.999c-0.666992 -2.66699 -1 -5.66699 -1 -9c0 -20.667 15.333 -40.667 46 -60s74.334 -30 131.001 -32c96 -1.33301 175.667 -26.333 239 -75z
M389.002 -96h144l-28 -144c-7.33301 -40 -27.833 -74 -61.5 -102s-70.5 -42 -110.5 -42l14 72c20 0 38.5 7 55.5 21s27.167 31 30.5 51h-72z" />
    <glyph glyph-name="uni021A" unicode="&#x21a;" 
d="M357 1344h768l-37 -192h-288l-224 -1152h-192l224 1152h-288zM389 -96h144l-28 -144c-7.33301 -40 -27.833 -74 -61.5 -102s-70.5 -42 -110.5 -42l14 72c20 0 38.5 7 55.5 21s27.167 31 30.5 51h-72z" />
    <glyph glyph-name="uni021B" unicode="&#x21b;" horiz-adv-x="768" 
d="M517 192h192l-37 -192h-192c-53.333 0 -95 19 -125 57c-22.667 28 -34 60.333 -34 97c0 12 1.33301 24.667 4 38l112 576h-192l38 192h192l74 384h192l-74 -384h192l-38 -192h-192zM389 -96h144l-28 -144c-7.33301 -40 -27.833 -74 -61.5 -102s-70.5 -42 -110.5 -42
l14 72c20 0 38.5 7 55.5 21s27.167 31 30.5 51h-72z" />
    <glyph glyph-name="uni021E" unicode="&#x21e;" 
d="M933 1344h192l-261 -1344h-192l112 576h-384l-112 -576h-192l261 1344h192l-112 -576h384zM639 1440l-80 216h182l40 -107l82 107h182l-163 -216h-243z" />
    <glyph glyph-name="uni021F" unicode="&#x21f;" 
d="M669 970c70.667 -0.666992 131.501 -18.167 182.501 -52.5s88.167 -80.5 111.5 -138.5c15.333 -36.667 23 -75.667 23 -117c0 -24.667 -2.66699 -50 -8 -76l-114 -586h-192l114 586c2.66699 13.333 4 26.333 4 39c0 36.667 -12.833 71 -38.5 103
s-65.834 48.667 -120.501 50c-54.667 -1.33301 -104 -20.333 -148 -57s-71 -81.667 -81 -135l-114 -586h-192l261 1344h192l-92 -474c34.667 30.667 70 55 106 73s71.333 27 106 27zM639.001 1440l-80 216h182l40 -107l82 107h182l-163 -216h-243z" />
    <glyph glyph-name="uni0226" unicode="&#x226;" 
d="M428 480h290l-44 515zM841 1344l119 -1344h-200l-25 288h-398l-137 -288h-200l641 1344h200zM671 1476l28 144h192l-28 -144h-192z" />
    <glyph glyph-name="uni0227" unicode="&#x227;" 
d="M786 586c2.66699 13.333 3.99805 26.333 3.99805 39c0 36.667 -13.167 71.334 -39.5 104.001s-66.166 49 -119.499 49c-54.667 -1.33301 -104 -20.333 -148 -57s-71 -81.667 -81 -135l-41 -212c-2.66699 -14 -4 -27.333 -4 -40c0 -36.667 13 -71.167 39 -103.5
s65.667 -48.5 119 -48.5s102.333 18.667 147 56s72.334 82.666 83.001 135.999zM858.998 960l191.998 -0.000976562l-187 -960h-192l17 90c-34 -30.667 -69 -55 -105 -73s-71.333 -27 -106 -27c-70.667 0 -131.667 17.333 -183 52s-88.666 81 -111.999 139
c-14.667 36 -22 74.667 -22 116c0 24.667 2.66699 50.334 8 77.001l41 212c24 108.667 79.167 199.167 165.5 271.5s184.166 109.833 293.499 112.5c34.667 0 66.334 -9 95.001 -27s54.334 -42.333 77.001 -73zM595.996 1092l28 144h192l-28 -144h-192z" />
    <glyph glyph-name="uni0228" unicode="&#x228;" 
d="M1088 1152h-576l-75 -384h384l-37 -192h-384l-75 -384h576l-37 -192h-768l261 1344h768zM389 -96h216l-186 -216l-143 1z" />
    <glyph glyph-name="uni0229" unicode="&#x229;" 
d="M631 778c-53.333 0 -101.834 -18.333 -145.501 -55s-71.5 -82.334 -83.5 -137.001h384c2.66699 13.333 4 26.333 4 39c0 36.667 -13.167 71.334 -39.5 104.001s-66.166 49 -119.499 49zM947.999 432h-576l-11 -58c-2.66699 -14 -4 -27.333 -4 -40
c0 -36.667 13 -71.167 39 -103.5s65.667 -48.5 119 -48.5c37.333 0 73.166 9.66699 107.499 29s63.5 48.333 87.5 87l155 -86c-46 -70.667 -103.167 -125.334 -171.5 -164.001s-140.166 -58 -215.499 -58c-70.667 0 -131.667 17.333 -183 52s-88.666 81 -111.999 139
c-14.667 36 -22 74.667 -22 116c0 24.667 2.66699 50.334 8 77.001l41 212c24 108.667 79.167 199.167 165.5 271.5s184.166 109.833 293.499 112.5c70.667 0 131.5 -17.333 182.5 -52s88.167 -81 111.5 -139c15.333 -36.667 23 -75.667 23 -117
c0 -24.667 -2.66699 -50 -8 -76zM388.999 -96h216l-186 -216l-143 1z" />
    <glyph glyph-name="uni022E" unicode="&#x22e;" horiz-adv-x="1056" 
d="M840 374l115.998 596c2.66699 14 4 27.333 4 40c0 36 -13.167 70.333 -39.5 103s-65.833 49 -118.5 49h-96c-52.667 0 -101.5 -18.667 -146.5 -56s-72.833 -82.666 -83.5 -135.999h1l-116 -596h-1c-2.66699 -13.333 -4 -26 -4 -38c0 -36.667 13.333 -71.334 40 -104.001
s66.334 -49 119.001 -49h97c52.667 0 101.334 18.667 146.001 56s72 82.333 82 135zM838.998 1354c71.333 0 132.503 -17.168 183.503 -51.501s88.167 -80.833 111.5 -139.5c14.667 -36.667 22 -76 22 -118c0 -24 -2.33301 -49 -7 -75l-116 -596
c-14 -70.667 -44 -135.167 -90 -193.5s-101.333 -104.666 -166 -138.999s-132.334 -51.5 -203.001 -51.5h-96c-70.667 0 -131.834 17.167 -183.501 51.5s-88.834 80.833 -111.501 139.5c-14.667 36 -22 74.667 -22 116c0 24.667 2.66699 50.334 8 77.001l116 596
c13.333 70.667 42.833 135.167 88.5 193.5s101 104.666 166 138.999s132.833 51.5 203.5 51.5h96zM719.001 1476l28 144h192l-28 -144h-192z" />
    <glyph glyph-name="uni022F" unicode="&#x22f;" 
d="M786 586c2.66699 13.333 3.99805 26.332 3.99805 38.999c0 36.667 -13.167 71.334 -39.5 104.001s-66.166 49 -119.499 49s-102.333 -18.667 -147 -56s-72 -82.666 -82 -135.999l-41 -212c-2.66699 -14 -4 -27.333 -4 -40c0 -36.667 13 -71.167 39 -103.5
s65.667 -48.5 119 -48.5s102.333 18.667 147 56s72.334 82.666 83.001 135.999zM977.998 585.999l-40.999 -212.001c-14 -70.667 -44 -135 -90 -193s-101.333 -104.333 -166 -139s-132.334 -52 -203.001 -52s-131.667 17.333 -183 52s-88.666 81 -111.999 139
c-14.667 36 -22 74.667 -22 116c0 24.667 2.66699 50.334 8 77.001l41 212c24 108.667 79.167 199.167 165.5 271.5s184.166 109.833 293.499 112.5c70.667 0 131.5 -17.333 182.5 -52s88.167 -81 111.5 -139c15.333 -36.667 23 -75.667 23 -117
c0 -24.667 -2.66699 -50 -8 -76zM595.999 1092l28 144h192l-28 -144h-192z" />
    <glyph glyph-name="uni0232" unicode="&#x232;" 
d="M1221 1344l-519 -697l-126 -647h-192l126 647l-249 697h221l166 -478l352 478h221zM1010 1476h-486l28 144h486z" />
    <glyph glyph-name="uni0233" unicode="&#x233;" horiz-adv-x="768" 
d="M756 960h199l-501 -1079c-26 -58 -55.833 -104.667 -89.5 -140s-69.5 -62 -107.5 -80s-77.167 -30 -117.5 -36s-79.833 -9 -118.5 -9l38 192c64.667 0 111.167 7 139.5 21s50.5 39 66.5 75l-78 1056h199l50 -686l165 356zM839 1092h-486l28 144h486z" />
    <glyph glyph-name="uni0254" unicode="&#x254;" 
d="M978 586l-40.9971 -212.001c-14 -70.667 -43.833 -135.167 -89.5 -193.5s-101 -104.666 -166 -138.999s-132.833 -51.5 -203.5 -51.5s-131.834 17.167 -183.501 51.5s-88.834 80.833 -111.501 139.5c-14 35.333 -21 74 -21 116c0 27.333 3 56.333 9 87h191
c-3.33301 -16 -5 -31.333 -5 -46c0 -39.333 13.167 -75.166 39.5 -107.499s65.833 -48.5 118.5 -48.5c53.333 0 102.333 18.833 147 56.5s72 82.834 82 135.501h1l41 212h-1c2.66699 14 4 27.333 4 40c0 36.667 -13 71.167 -39 103.5s-65.667 48.5 -119 48.5
c-52.667 0 -101.5 -18.667 -146.5 -56s-73.5 -86 -85.5 -146h-191c15.333 77.333 45.833 145.166 91.5 203.499s100.667 104.5 165 138.5s132.5 51.333 204.5 52c70.667 0 131.667 -17.167 183 -51.5s88.666 -80.833 111.999 -139.5c14.667 -36 22 -74.667 22 -116
c0 -24.667 -2.66699 -50.334 -8 -77.001z" />
    <glyph glyph-name="uni0256" unicode="&#x256;" 
d="M402 586l-41.002 -212c-2.66699 -14 -4 -27.333 -4 -40c0 -36.667 13 -71.167 39 -103.5s65.667 -48.5 119 -48.5s102.333 18.667 147 56s72.334 82.666 83.001 135.999l41 212c2.66699 13.333 4 26.333 4 39c0 36.667 -13.167 71.334 -39.5 104.001
s-66.166 49 -119.499 49c-54.667 -1.33301 -104 -20.333 -148 -57s-71 -81.667 -81 -135zM688.998 90c-34 -30.667 -69.002 -55.001 -105.002 -73.001s-71.333 -27 -106 -27c-70.667 0 -131.667 17.333 -183 52s-88.666 81 -111.999 139c-14.667 36 -22 74.667 -22 116
c0 24.667 2.66699 50.334 8 77.001l41 212c24 108.667 79.167 199.167 165.5 271.5s184.166 109.833 293.499 112.5c34.667 0 66.334 -9 95.001 -27s54.334 -42.333 77.001 -73l92 474h192l-298 -1536h96l-38 -192h-96c-53.333 0 -95 19 -125 57c-22 27.333 -33 59 -33 95
c0 12.667 1.33301 26 4 40z" />
    <glyph glyph-name="uni0272" unicode="&#x272;" 
d="M283 960h192.002l-18 -90c34.667 30.667 70 55 106 73s71.333 27 106 27c70.667 -0.666992 131.5 -18.167 182.5 -52.5s88.167 -80.5 111.5 -138.5c15.333 -36.667 23 -75.667 23 -117c0 -24.667 -2.66699 -50 -8 -76l-114 -586h-192l114 586
c2.66699 13.333 4 26.333 4 39c0 36.667 -12.833 71 -38.5 103s-65.834 48.667 -120.501 50c-52.667 0 -101.5 -18.667 -146.5 -56s-72.5 -82.666 -82.5 -135.999l-151 -778c-10.667 -52.667 -38.334 -97.834 -83.001 -135.501s-93.667 -56.5 -147 -56.5h-96l38 192h96z" />
    <glyph glyph-name="uni028B" unicode="&#x28b;" 
d="M864 0l-192.001 -0.000976562l17 90c-74.667 -66.667 -145 -100 -211 -100c-71.333 0.666992 -132.5 18.167 -183.5 52.5s-88.167 80.5 -111.5 138.5c-14.667 36 -22 74.667 -22 116c0 24.667 2.66699 50.334 8 77.001l114 586h192l-114 -586
c-2.66699 -14 -4 -27.667 -4 -41c0 -36 12.833 -69.833 38.5 -101.5s65.5 -48.167 119.5 -49.5c55.333 1.33301 104.833 20.333 148.5 57s70.834 81.667 81.501 135l76 394h-192l38 192h192c53.333 0 95 -18.667 125 -56c22 -28 33 -60 33 -96
c0 -12.667 -1.33301 -26 -4 -40z" />
    <glyph glyph-name="uni02B9" unicode="&#x2b9;" horiz-adv-x="384" 
d="M357 1344h192l-37 -192l-85 -192h-96l-11 192z" />
    <glyph glyph-name="uni02BA" unicode="&#x2ba;" horiz-adv-x="672" 
d="M357 1344h192l-37 -192l-85 -192h-96l-11 192zM645 1344h192l-37 -192l-85 -192h-96l-11 192z" />
    <glyph glyph-name="uni02BB" unicode="&#x2bb;" horiz-adv-x="384" 
d="M475 960l-192.001 0.00195312l37 192c10 53.333 37.333 98.666 82 135.999s93.667 56 147 56l-18 -96c-26.667 0 -51.167 -9.33301 -73.5 -28s-36.166 -41.334 -41.499 -68.001h96z" />
    <glyph glyph-name="uni02BC" unicode="&#x2bc;" horiz-adv-x="384" 
d="M357 1344l192 -0.00195312l-37 -192c-10.667 -53.333 -38.167 -98.666 -82.5 -135.999s-93.166 -56 -146.499 -56l18 96c26.667 0 51.167 9.33301 73.5 28s36.166 41.334 41.499 68.001h-96z" />
    <glyph glyph-name="uni02BD" unicode="&#x2bd;" horiz-adv-x="384" 
d="M549 1344l-37 -191.999h-96c-1.33301 -6.66699 -2 -13.334 -2 -20.001c0 -18 6.5 -35.167 19.5 -51.5s32.833 -24.5 59.5 -24.5l-18 -96c-53.333 0 -95.333 18.667 -126 56c-22 27.333 -33 59.333 -33 96c0 12.667 1.33301 26 4 40l37 192h192z" />
    <glyph glyph-name="circumflex" unicode="&#x2c6;" 
d="M681 1656h243l79 -216h-182l-40 107l-82 -107h-182z" />
    <glyph glyph-name="caron" unicode="&#x2c7;" 
d="M639 1440l-80 216h182l40 -107l82 107h182l-163 -216h-243z" />
    <glyph glyph-name="breve" unicode="&#x2d8;" 
d="M760 1440c-67.333 0 -120.667 21.332 -160 63.999c-30 32.667 -45 70.334 -45 113.001c0 12.667 1.33301 25.667 4 39h124c-1.33301 -6.66699 -2 -13.334 -2 -20.001c0 -20.667 8.5 -40.167 25.5 -58.5s41.833 -27.5 74.5 -27.5s62.667 10.333 90 31s44 45.667 50 75h124
c-11.333 -59.333 -45 -110.166 -101 -152.499s-117.333 -63.5 -184 -63.5z" />
    <glyph glyph-name="dotaccent" unicode="&#x2d9;" 
d="M671 1476l28 144h192l-28 -144h-192z" />
    <glyph glyph-name="ring" unicode="&#x2da;" 
d="M921 1656c1.33301 6.66699 1.99902 12.668 1.99902 18.001c0 22 -8.66699 42.167 -26 60.5s-42.333 27.5 -75 27.5s-62.667 -10.333 -90 -31s-43.666 -45.667 -48.999 -75c-1.33301 -6.66699 -2 -13.334 -2 -20.001c0 -20.667 8.5 -40.167 25.5 -58.5
s41.833 -27.5 74.5 -27.5s62.667 10.333 90 31s44 45.667 50 75zM843.999 1872c66.667 0 119.666 -21.001 158.999 -63.001c30.667 -33.333 46 -71.333 46 -114c0 -12.667 -1.33301 -25.667 -4 -39c-11.333 -59.333 -45 -110.166 -101 -152.499s-117.333 -63.5 -184 -63.5
c-67.333 0 -120.666 21.333 -159.999 64c-30 32.667 -45 70.334 -45 113.001c0 12.667 1.33301 25.667 4 39c11.333 59.333 44.833 110.166 100.5 152.499s117.167 63.5 184.5 63.5z" />
    <glyph glyph-name="ogonek" unicode="&#x2db;" 
d="M561 -324c-79.333 0 -142.999 20.999 -190.999 62.999c-38.667 34 -58 73.667 -58 119c0 10.667 1 21.667 3 33c12 60.667 50.333 112 115 154c37.333 24.667 60.666 37 69.999 37c3.33301 0 5 -1.33301 5 -4v-2c-0.666992 -2 -3.66699 -9 -9 -21
c-33.333 -70.667 -52 -117 -56 -139c-1.33301 -8 -2 -15.667 -2 -23c0 -14 3.66699 -29.167 11 -45.5s25.5 -27.666 54.5 -33.999s56.5 -9.5 82.5 -9.5z" />
    <glyph glyph-name="tilde" unicode="&#x2dc;" 
d="M828 1440c-40.667 0 -70.668 15 -90.001 45c-5.33301 6 -12.666 19.333 -21.999 40c-3.33301 8.66699 -6.33301 14 -9 16c-5.33301 2 -10.333 3 -15 3c-8 -0.666992 -14.667 -3 -20 -7c-2 -2 -3 -3.33301 -3 -4c-3.33301 -3.33301 -6 -10.333 -8 -21l-15 -72h-129
c10.667 55.333 19 91 25 107c12.667 37.333 41.667 67.333 87 90c26 12.667 61 19 105 19c56.667 0 93.667 -28.333 111 -85c3.33301 -9.33301 6.66602 -14.333 9.99902 -15c5.33301 -2 10 -3 14 -3c5.33301 0 11.333 2 18 6s10.667 9.33301 12 16l15 81h131l-14 -71
c-11.333 -58 -41.666 -98.333 -90.999 -121c-34.667 -16 -72 -24 -112 -24z" />
    <glyph glyph-name="Lambda" unicode="&#x39b;" 
d="M0 0l641 1344h200l119 -1344h-200l-87 994l-473 -994h-200z" />
    <glyph glyph-name="lambda" unicode="&#x3bb;" horiz-adv-x="768" 
d="M649 1344l119 -1344h-200l-57 652l-311 -652h-200l479 1005l-30 339h200z" />
    <glyph glyph-name="uni1E02" unicode="&#x1e02;" 
d="M512 1152l-74.999 -384h145c54.667 1.33301 104 20.5 148 57.5s71 81.833 81 134.5c2.66699 14 4 27.333 4 40c0 36 -13.333 70.333 -40 103s-66.334 49 -119.001 49h-144zM517.001 192c52.667 0 101 18.499 145 55.499s72.333 82.5 85 136.5c2 12 3 24 3 36
c0 38.667 -13.167 74.334 -39.5 107.001s-65.833 49 -118.5 49l-192 1l-75 -385h192zM842.001 692.999c41.333 -35.333 70.665 -79.667 87.998 -133c10.667 -32 16 -66.333 16 -103c0 -23.333 -2.33301 -47.666 -7 -72.999c-14.667 -71.333 -44.667 -136 -90 -194
s-100.5 -104.167 -165.5 -138.5s-132.833 -51.5 -203.5 -51.5h-384l261 1344h336c70.667 0 131.834 -17.167 183.501 -51.5s88.834 -80.833 111.501 -139.5c14.667 -36 22 -74.667 22 -116c0 -24.667 -2.66699 -50.334 -8 -77.001c-10 -51.333 -28.833 -100 -56.5 -146
s-62.167 -86.333 -103.5 -121zM575 1476l28 144h192l-28 -144h-192z" />
    <glyph glyph-name="uni1E03" unicode="&#x1e03;" 
d="M786 586c2.66699 13.333 4 26.333 4 39c0 36.667 -12.833 71 -38.5 103s-65.834 48.667 -120.501 50c-53.333 0 -102.333 -18.667 -147 -56s-72 -82.666 -82 -135.999l-41 -212c-2.66699 -14 -4 -27.333 -4 -40c0 -36.667 13 -71.167 39 -103.5s65.667 -48.5 119 -48.5
s102.333 18.667 147 56s72.334 82.666 83.001 135.999zM978 586l-40.998 -212.001c-14 -70.667 -44 -135 -90 -193s-101.333 -104.333 -166 -139s-132.334 -52 -203.001 -52c-34.667 0 -66.334 9 -95.001 27s-54.667 42.333 -78 73l-17 -90h-192l261 1344h192l-92 -474
c34.667 30.667 70 55 106 73s71.333 27 106 27c108 -2.66699 191 -40 249 -112c44.667 -55.333 67 -120.666 67 -195.999c0 -24.667 -2.33301 -50 -7 -76zM596.002 1092l28 144h192l-28 -144h-192z" />
    </font>
</defs>
</svg>
