<?xml version="1.0" encoding="UTF-8" standalone="no"?><!DOCTYPE svg PUBLIC "-//W3C//DTD SVG 1.1//EN" "http://www.w3.org/Graphics/SVG/1.1/DTD/svg11.dtd"><svg width="100%" height="100%" viewBox="0 0 590 260" version="1.1" xmlns="http://www.w3.org/2000/svg" xmlns:xlink="http://www.w3.org/1999/xlink" xml:space="preserve" xmlns:serif="http://www.serif.com/" style="fill-rule:evenodd;clip-rule:evenodd;stroke-linejoin:round;stroke-miterlimit:2;"><rect id="Main-Wordmark" serif:id="Main Wordmark" x="0" y="0" width="590" height="260" style="fill:none;"/><path d="M161.454,157.75l15.089,4.856c-3.527,7.978 -8.687,14.323 -15.48,19.035c-6.793,4.712 -14.091,7.067 -21.896,7.067c-6.128,0 -11.418,-1.503 -15.869,-4.509c-4.452,-3.006 -7.69,-7.024 -9.713,-12.054c-1.272,-3.122 -1.908,-6.475 -1.908,-10.059c0,-2.139 0.231,-4.365 0.694,-6.677l3.555,-18.385c1.272,-6.186 3.874,-11.779 7.805,-16.78c3.931,-5.001 8.715,-9.004 14.352,-12.01c5.637,-3.007 11.519,-4.51 17.647,-4.51c7.805,0 14.179,2.356 19.122,7.068c4.943,4.712 7.616,11.056 8.021,19.035l-16.91,4.856c0,-4.51 -1.243,-8.022 -3.729,-10.536c-2.486,-2.515 -5.752,-3.773 -9.799,-3.773c-4.625,0 -8.874,1.619 -12.748,4.856c-3.873,3.238 -6.243,7.169 -7.111,11.794l-3.555,18.385c-0.231,1.214 -0.347,2.37 -0.347,3.468c0,3.18 1.127,6.172 3.382,8.976c2.255,2.803 5.695,4.205 10.32,4.205c4.046,0 7.804,-1.257 11.273,-3.772c3.469,-2.515 6.07,-6.027 7.805,-10.536Z" style="fill-rule:nonzero;"/><path d="M238.98,103.724c6.128,0.058 11.403,1.576 15.826,4.553c4.423,2.977 7.646,6.981 9.669,12.011c1.33,3.179 1.995,6.561 1.995,10.146c0,2.139 -0.232,4.336 -0.694,6.59l-9.886,50.817l-16.65,0l9.886,-50.817c0.231,-1.156 0.347,-2.283 0.347,-3.382c0,-3.18 -1.113,-6.157 -3.339,-8.932c-2.226,-2.775 -5.709,-4.22 -10.449,-4.336c-4.741,0.116 -9.019,1.764 -12.835,4.943c-3.815,3.18 -6.157,7.082 -7.024,11.707l-9.886,50.817l-16.65,0l22.634,-116.549l16.65,0l-7.978,41.104c3.006,-2.659 6.07,-4.769 9.192,-6.33c3.122,-1.561 6.186,-2.342 9.192,-2.342Z" style="fill-rule:nonzero;"/><path d="M318.934,120.374c-4.625,0 -8.831,1.59 -12.617,4.77c-3.787,3.179 -6.201,7.14 -7.241,11.88l33.3,0c0.231,-1.156 0.347,-2.283 0.347,-3.382c0,-3.18 -1.142,-6.186 -3.426,-9.019c-2.283,-2.832 -5.738,-4.249 -10.363,-4.249Zm27.49,30.005l-49.95,0l-0.954,5.03c-0.231,1.214 -0.347,2.37 -0.347,3.468c0,3.18 1.128,6.172 3.382,8.976c2.255,2.803 5.695,4.205 10.32,4.205c3.237,0 6.345,-0.838 9.322,-2.514c2.978,-1.677 5.507,-4.192 7.588,-7.545l13.441,7.458c-3.989,6.128 -8.946,10.869 -14.872,14.222c-5.926,3.353 -12.155,5.029 -18.688,5.029c-6.128,0 -11.418,-1.503 -15.869,-4.509c-4.452,-3.006 -7.689,-7.024 -9.713,-12.054c-1.271,-3.122 -1.907,-6.475 -1.907,-10.059c0,-2.139 0.231,-4.365 0.693,-6.677l3.556,-18.385c2.081,-9.423 6.865,-17.271 14.352,-23.544c7.486,-6.272 15.97,-9.524 25.452,-9.756c6.128,0 11.403,1.503 15.826,4.51c4.422,3.006 7.645,7.024 9.669,12.054c1.329,3.179 1.994,6.561 1.994,10.146c0,2.139 -0.231,4.336 -0.693,6.59l-2.602,13.355Z" style="fill-rule:nonzero;"/><path d="M388.916,187.841l3.209,-16.65c3.7,0 7.024,-0.433 9.972,-1.301c5.03,-1.445 7.949,-4.191 8.759,-8.238c0.173,-0.867 0.26,-1.763 0.26,-2.688c0,-1.503 -0.202,-3.151 -0.607,-4.943c-0.52,-2.486 -1.474,-4.307 -2.862,-5.463c-1.387,-1.157 -3.093,-2.168 -5.116,-3.035c-3.006,-1.099 -5.724,-3.007 -8.152,-5.724c-1.676,-2.312 -2.515,-5.029 -2.515,-8.151c0,-1.214 0.116,-2.515 0.347,-3.903c0.925,-4.509 3.007,-8.238 6.244,-11.186c2.659,-2.313 5.319,-4.278 7.978,-5.897c4.567,-2.949 6.967,-5.059 7.198,-6.331c0.231,-1.214 0.347,-2.399 0.347,-3.555c0,-2.544 -0.709,-5.247 -2.125,-8.108c-1.416,-2.862 -4.032,-4.351 -7.848,-4.466c-3.7,0.231 -6.995,2.023 -9.886,5.376c-2.89,3.353 -4.712,6.938 -5.463,10.753l-16.216,83.51l-16.65,0l16.216,-83.51c1.677,-8.44 5.868,-15.97 12.574,-22.59c6.706,-6.619 14.28,-10.103 22.72,-10.449c8.441,0.231 14.8,3.671 19.078,10.319c3.064,4.799 4.597,10.059 4.597,15.783c0,2.255 -0.232,4.567 -0.694,6.937c-0.636,3.353 -1.908,6.273 -3.816,8.759c-2.775,3.642 -6.995,7.284 -12.661,10.926c-2.428,1.504 -4.047,2.66 -4.856,3.469l-0.173,0.954c0.289,0.289 0.766,0.593 1.43,0.911c0.665,0.318 1.287,0.621 1.865,0.91c2.717,1.099 5.564,2.905 8.542,5.42c2.977,2.515 5.188,6.547 6.634,12.097c0.52,2.833 0.78,5.464 0.78,7.892c0,2.139 -0.202,4.133 -0.607,5.983c-1.098,5.608 -3.353,10.204 -6.764,13.788c-3.584,4.047 -8.123,7.126 -13.615,9.236c-5.492,2.11 -11.533,3.165 -18.124,3.165Z" style="fill-rule:nonzero;"/><path d="M455.689,187.841l-16.65,0l3.209,-16.65l16.65,0l-3.209,16.65Zm5.984,-116.549l16.65,0l-9.713,49.949l-10.579,33.3l-8.325,0l2.254,-33.3l9.713,-49.949Z" style="fill-rule:nonzero;"/></svg>