<?xml version="1.0" encoding="UTF-8" standalone="no"?><!DOCTYPE svg PUBLIC "-//W3C//DTD SVG 1.1//EN" "http://www.w3.org/Graphics/SVG/1.1/DTD/svg11.dtd"><svg width="100%" height="100%" viewBox="0 0 986 260" version="1.1" xmlns="http://www.w3.org/2000/svg" xmlns:xlink="http://www.w3.org/1999/xlink" xml:space="preserve" xmlns:serif="http://www.serif.com/" style="fill-rule:evenodd;clip-rule:evenodd;stroke-linejoin:round;stroke-miterlimit:2;"><rect id="Tagline" x="0" y="0" width="986" height="260" style="fill:none;"/><path d="M86.688,125.875c-0.001,2.979 0.222,5.715 0.666,8.207c0.444,2.492 1.009,4.813 1.697,6.961c0.687,2.148 1.389,4.182 2.105,6.102c0.516,1.375 0.989,2.735 1.418,4.082c0.888,2.578 1.676,5.127 2.363,7.648l-8.55,0c-0.516,-1.633 -1.06,-3.309 -1.633,-5.027c-0.43,-1.289 -0.888,-2.607 -1.375,-3.953c-0.774,-2.12 -1.54,-4.383 -2.299,-6.79c-0.759,-2.406 -1.389,-5.027 -1.891,-7.863c-0.501,-2.836 -0.752,-5.958 -0.752,-9.367c0,-3.409 0.251,-6.531 0.752,-9.367c0.502,-2.836 1.132,-5.457 1.891,-7.863c0.759,-2.407 1.525,-4.67 2.299,-6.79c0.487,-1.346 0.945,-2.664 1.375,-3.953c0.573,-1.718 1.117,-3.394 1.633,-5.027l8.55,0c-0.687,2.521 -1.475,5.07 -2.363,7.648c-0.429,1.347 -0.902,2.707 -1.418,4.082c-0.716,1.92 -1.418,3.954 -2.105,6.102c-0.688,2.148 -1.253,4.469 -1.697,6.961c-0.444,2.492 -0.666,5.228 -0.666,8.207Z" style="fill-rule:nonzero;"/><path d="M127.938,125.445c-0.001,-2.291 -0.803,-4.239 -2.407,-5.843c-1.604,-1.605 -3.552,-2.407 -5.844,-2.407c-2.348,0.058 -4.311,0.874 -5.886,2.45c-1.576,1.575 -2.364,3.509 -2.364,5.8l0,9.11c0,2.291 0.803,4.239 2.407,5.843c1.604,1.605 3.552,2.407 5.843,2.407c2.292,0 4.24,-0.802 5.844,-2.407c1.604,-1.604 2.406,-3.552 2.406,-5.843l0,-9.11Zm0,-16.07l8.25,0l0,41.25l-8.25,0l0,-3.867c-1.231,1.318 -2.542,2.363 -3.931,3.137c-1.389,0.773 -2.829,1.16 -4.319,1.16c-3.036,0 -5.8,-0.745 -8.292,-2.235c-2.493,-1.489 -4.484,-3.48 -5.973,-5.972c-1.49,-2.493 -2.235,-5.257 -2.235,-8.293l0,-9.11c0.115,-4.669 1.726,-8.558 4.834,-11.666c3.109,-3.108 6.997,-4.719 11.666,-4.834c1.49,0 2.93,0.387 4.319,1.16c1.389,0.774 2.7,1.819 3.931,3.137l0,-3.867Z" style="fill-rule:nonzero;"/><path d="M193.938,134.555c-0.001,2.291 0.787,4.225 2.363,5.8c1.575,1.576 3.538,2.392 5.886,2.45c2.292,0 4.24,-0.802 5.844,-2.407c1.604,-1.604 2.406,-3.552 2.406,-5.843l0,-9.11c0,-2.291 -0.802,-4.239 -2.406,-5.843c-1.604,-1.605 -3.552,-2.407 -5.844,-2.407c-2.291,0 -4.239,0.802 -5.843,2.407c-1.604,1.604 -2.407,3.552 -2.407,5.843l0,9.11Zm-8.25,0l0,-9.11c0,-3.036 0.745,-5.8 2.235,-8.293c1.489,-2.492 3.48,-4.483 5.973,-5.972c2.492,-1.49 5.256,-2.235 8.292,-2.235c1.49,0 2.93,0.387 4.319,1.16c1.389,0.774 2.7,1.819 3.931,3.137l0,-3.867l8.25,0l0,57.75l-8.25,0l0,-20.367c-1.231,1.318 -2.542,2.363 -3.931,3.137c-1.389,0.773 -2.829,1.16 -4.319,1.16c-4.669,-0.115 -8.557,-1.726 -11.666,-4.834c-3.108,-3.108 -4.719,-6.997 -4.834,-11.666Z" style="fill-rule:nonzero;"/><path d="M251.688,109.375l8.249,0l0,41.25l-8.25,0l0,-3.867c-1.231,1.318 -2.542,2.363 -3.931,3.137c-1.389,0.773 -2.829,1.16 -4.319,1.16c-3.065,-0.029 -5.836,-0.781 -8.314,-2.256c-2.478,-1.475 -4.462,-3.459 -5.951,-5.951c-1.49,-2.493 -2.235,-5.257 -2.235,-8.293l0,-25.18l8.25,0l0,25.18c0,2.291 0.788,4.225 2.364,5.8c1.575,1.576 3.538,2.392 5.886,2.45c2.349,-0.058 4.312,-0.874 5.887,-2.45c1.576,-1.575 2.363,-3.509 2.363,-5.8l0,-25.18Z" style="fill-rule:nonzero;"/><path d="M276.438,109.375l0,41.25l-8.25,0l0,-41.25l8.25,0Zm-8.25,-5.672l0,-6.187l8.25,0l0,6.187l-8.25,0Z" style="fill-rule:nonzero;"/><path d="M301.188,108.945l8.25,0l0,8.25l-8.25,0c-2.292,0 -4.24,0.802 -5.844,2.407c-1.604,1.604 -2.406,3.552 -2.406,5.843l0,25.18l-8.25,0l0,-41.25l8.25,0l0,5.973c1.203,-1.92 2.499,-3.466 3.888,-4.641c1.389,-1.174 2.843,-1.762 4.362,-1.762Z" style="fill-rule:nonzero;"/><path d="M346.563,109.375l-15.77,19.336l15.769,21.914l-10.14,0l-11,-15.297l-3.61,4.426l0,10.871l-8.25,0l0,-57.75l8.25,0l0,33.816l14.094,-17.316l10.656,0Z" style="fill-rule:nonzero;"/><path d="M375.137,109.375l8.551,0l-12.504,46.363c-0.631,2.492 -1.519,4.498 -2.664,6.016c-1.146,1.518 -2.464,2.664 -3.954,3.437c-1.489,0.774 -3.072,1.289 -4.748,1.547c-1.675,0.258 -3.344,0.387 -5.005,0.387l0,-8.25c2.778,0 4.719,-0.301 5.822,-0.902c1.103,-0.602 1.855,-1.676 2.256,-3.223l-12.203,-45.375l8.55,0l7.907,29.477c1.403,-5.185 2.778,-10.284 4.125,-15.297c1.833,-6.818 3.122,-11.545 3.867,-14.18Z" style="fill-rule:nonzero;"/><path d="M453.641,135.715l7.906,2.406c-0.974,3.953 -2.915,7.097 -5.822,9.432c-2.908,2.334 -6.295,3.502 -10.163,3.502c-3.036,0 -5.8,-0.745 -8.292,-2.235c-2.493,-1.489 -4.484,-3.48 -5.973,-5.972c-1.49,-2.493 -2.235,-5.257 -2.235,-8.293l0,-9.11c0.029,-3.065 0.781,-5.836 2.256,-8.314c1.476,-2.478 3.459,-4.462 5.952,-5.951c2.492,-1.49 5.256,-2.235 8.293,-2.235c3.867,0 7.254,1.168 10.162,3.502c2.907,2.335 4.848,5.479 5.822,9.432l-7.906,2.406c-0.43,-2.234 -1.383,-3.974 -2.858,-5.221c-1.475,-1.246 -3.215,-1.869 -5.22,-1.869c-2.292,0 -4.24,0.802 -5.844,2.407c-1.604,1.604 -2.406,3.552 -2.406,5.843l0,9.11c0,2.291 0.802,4.239 2.406,5.843c1.604,1.605 3.552,2.407 5.844,2.407c2.005,0 3.745,-0.623 5.22,-1.869c1.475,-1.247 2.428,-2.987 2.858,-5.221Z" style="fill-rule:nonzero;"/><path d="M486.813,108.945c3.065,0.029 5.836,0.781 8.314,2.256c2.478,1.475 4.462,3.459 5.951,5.951c1.49,2.493 2.234,5.257 2.234,8.293l0,25.18l-8.25,0l0,-25.18c0,-2.291 -0.787,-4.225 -2.363,-5.8c-1.575,-1.576 -3.538,-2.392 -5.887,-2.45c-2.348,0.058 -4.311,0.874 -5.886,2.45c-1.576,1.575 -2.363,3.509 -2.363,5.8l0,25.18l-8.25,0l0,-57.75l8.25,0l0,20.367c1.231,-1.318 2.542,-2.363 3.931,-3.137c1.389,-0.773 2.829,-1.16 4.319,-1.16Z" style="fill-rule:nonzero;"/><path d="M528.063,117.195c-2.292,0 -4.226,0.788 -5.801,2.364c-1.576,1.575 -2.392,3.537 -2.449,5.886l16.5,0c0,-2.291 -0.803,-4.239 -2.407,-5.843c-1.604,-1.605 -3.552,-2.407 -5.843,-2.407Zm16.5,14.868l-24.75,0l0,2.492c0,2.291 0.802,4.239 2.406,5.843c1.604,1.605 3.552,2.407 5.844,2.407c1.604,0 3.057,-0.416 4.361,-1.246c1.303,-0.831 2.313,-2.077 3.029,-3.739l7.391,3.696c-1.404,3.036 -3.409,5.385 -6.016,7.047c-2.607,1.661 -5.529,2.492 -8.765,2.492c-3.037,0 -5.801,-0.745 -8.293,-2.235c-2.493,-1.489 -4.484,-3.48 -5.973,-5.972c-1.49,-2.493 -2.235,-5.257 -2.235,-8.293l0,-9.11c0.115,-4.669 1.726,-8.558 4.834,-11.666c3.109,-3.108 6.997,-4.719 11.667,-4.834c3.036,0 5.8,0.745 8.292,2.235c2.493,1.489 4.484,3.48 5.973,5.972c1.49,2.493 2.235,5.257 2.235,8.293l0,6.618Z" style="fill-rule:nonzero;"/><path d="M580.355,128.969c3.638,2.607 5.457,5.815 5.457,9.625c0,2.291 -0.744,4.383 -2.234,6.273c-1.489,1.891 -3.48,3.395 -5.973,4.512c-2.492,1.117 -5.256,1.676 -8.293,1.676c-3.408,0 -6.574,-0.695 -9.496,-2.084c-2.921,-1.39 -4.898,-3.359 -5.929,-5.908c-0.086,-0.258 -0.194,-0.631 -0.323,-1.118c-0.128,-0.487 -0.25,-0.988 -0.365,-1.504c-0.114,-0.515 -0.2,-0.959 -0.258,-1.332c-0.028,-0.114 -0.057,-0.358 -0.086,-0.73c0,-0.057 -0.014,-0.1 -0.043,-0.129l0,-0.086l8.079,0l0.386,1.16c0.459,0.888 1.418,1.69 2.879,2.406c1.461,0.717 3.18,1.075 5.157,1.075c1.604,0 3.022,-0.229 4.253,-0.688c1.232,-0.458 2.206,-1.017 2.922,-1.676c0.716,-0.658 1.074,-1.274 1.074,-1.847c0,-1.117 -0.759,-2.142 -2.277,-3.073c-1.518,-0.931 -3.48,-1.439 -5.887,-1.525c-4.125,-0.057 -7.763,-1.06 -10.914,-3.008c-3.781,-2.549 -5.671,-5.743 -5.671,-9.582c0,-2.291 0.744,-4.383 2.234,-6.273c1.489,-1.891 3.48,-3.395 5.973,-4.512c2.492,-1.117 5.256,-1.676 8.293,-1.676c3.408,0 6.574,0.695 9.496,2.084c2.921,1.39 4.898,3.359 5.929,5.909c0.086,0.257 0.194,0.63 0.323,1.117c0.128,0.487 0.25,0.988 0.365,1.504c0.114,0.515 0.215,0.945 0.301,1.289c0,0.143 0.014,0.401 0.043,0.773c0,0.057 0.014,0.1 0.043,0.129l0,0.086l-8.079,0l-0.386,-1.16c-0.459,-0.888 -1.418,-1.69 -2.879,-2.406c-1.461,-0.717 -3.18,-1.075 -5.156,-1.075c-1.605,0 -3.023,0.229 -4.254,0.688c-1.232,0.458 -2.206,1.017 -2.922,1.676c-0.716,0.658 -1.074,1.274 -1.074,1.847c0,1.032 0.787,1.991 2.363,2.879c1.575,0.888 3.581,1.375 6.015,1.461c4.154,0.057 7.792,1.132 10.914,3.223Z" style="fill-rule:nonzero;"/><path d="M621.605,128.969c3.638,2.607 5.457,5.815 5.457,9.625c0,2.291 -0.744,4.383 -2.234,6.273c-1.489,1.891 -3.48,3.395 -5.973,4.512c-2.492,1.117 -5.256,1.676 -8.293,1.676c-3.408,0 -6.574,-0.695 -9.496,-2.084c-2.921,-1.39 -4.898,-3.359 -5.929,-5.908c-0.086,-0.258 -0.194,-0.631 -0.323,-1.118c-0.128,-0.487 -0.25,-0.988 -0.365,-1.504c-0.114,-0.515 -0.2,-0.959 -0.258,-1.332c-0.028,-0.114 -0.057,-0.358 -0.086,-0.73c0,-0.057 -0.014,-0.1 -0.043,-0.129l0,-0.086l8.079,0l0.386,1.16c0.459,0.888 1.418,1.69 2.879,2.406c1.461,0.717 3.18,1.075 5.157,1.075c1.604,0 3.022,-0.229 4.253,-0.688c1.232,-0.458 2.206,-1.017 2.922,-1.676c0.716,-0.658 1.074,-1.274 1.074,-1.847c0,-1.117 -0.759,-2.142 -2.277,-3.073c-1.518,-0.931 -3.48,-1.439 -5.887,-1.525c-4.125,-0.057 -7.763,-1.06 -10.914,-3.008c-3.781,-2.549 -5.671,-5.743 -5.671,-9.582c0,-2.291 0.744,-4.383 2.234,-6.273c1.489,-1.891 3.48,-3.395 5.973,-4.512c2.492,-1.117 5.256,-1.676 8.293,-1.676c3.408,0 6.574,0.695 9.496,2.084c2.921,1.39 4.898,3.359 5.929,5.909c0.086,0.257 0.194,0.63 0.323,1.117c0.128,0.487 0.25,0.988 0.365,1.504c0.114,0.515 0.215,0.945 0.301,1.289c0,0.143 0.014,0.401 0.043,0.773c0,0.057 0.014,0.1 0.043,0.129l0,0.086l-8.079,0l-0.386,-1.16c-0.459,-0.888 -1.418,-1.69 -2.879,-2.406c-1.461,-0.717 -3.18,-1.075 -5.156,-1.075c-1.605,0 -3.023,0.229 -4.254,0.688c-1.232,0.458 -2.206,1.017 -2.922,1.676c-0.716,0.658 -1.074,1.274 -1.074,1.847c0,1.032 0.787,1.991 2.363,2.879c1.575,0.888 3.581,1.375 6.015,1.461c4.154,0.057 7.792,1.132 10.914,3.223Z" style="fill-rule:nonzero;"/><path d="M704.105,128.969c3.638,2.607 5.457,5.815 5.457,9.625c0,2.291 -0.744,4.383 -2.234,6.273c-1.489,1.891 -3.48,3.395 -5.973,4.512c-2.492,1.117 -5.256,1.676 -8.293,1.676c-3.408,0 -6.574,-0.695 -9.496,-2.084c-2.921,-1.39 -4.898,-3.359 -5.929,-5.908c-0.086,-0.258 -0.194,-0.631 -0.323,-1.118c-0.128,-0.487 -0.25,-0.988 -0.365,-1.504c-0.114,-0.515 -0.2,-0.959 -0.258,-1.332c-0.028,-0.114 -0.057,-0.358 -0.086,-0.73c0,-0.057 -0.014,-0.1 -0.043,-0.129l0,-0.086l8.079,0l0.386,1.16c0.459,0.888 1.418,1.69 2.879,2.406c1.461,0.717 3.18,1.075 5.157,1.075c1.604,0 3.022,-0.229 4.253,-0.688c1.232,-0.458 2.206,-1.017 2.922,-1.676c0.716,-0.658 1.074,-1.274 1.074,-1.847c0,-1.117 -0.759,-2.142 -2.277,-3.073c-1.518,-0.931 -3.48,-1.439 -5.887,-1.525c-4.125,-0.057 -7.763,-1.06 -10.914,-3.008c-3.781,-2.549 -5.671,-5.743 -5.671,-9.582c0,-2.291 0.744,-4.383 2.234,-6.273c1.489,-1.891 3.48,-3.395 5.973,-4.512c2.492,-1.117 5.256,-1.676 8.293,-1.676c3.408,0 6.574,0.695 9.496,2.084c2.921,1.39 4.898,3.359 5.929,5.909c0.086,0.257 0.194,0.63 0.323,1.117c0.128,0.487 0.25,0.988 0.365,1.504c0.114,0.515 0.215,0.945 0.301,1.289c0,0.143 0.014,0.401 0.043,0.773c0,0.057 0.014,0.1 0.043,0.129l0,0.086l-8.079,0l-0.386,-1.16c-0.459,-0.888 -1.418,-1.69 -2.879,-2.406c-1.461,-0.717 -3.18,-1.075 -5.156,-1.075c-1.605,0 -3.023,0.229 -4.254,0.688c-1.232,0.458 -2.206,1.017 -2.922,1.676c-0.716,0.658 -1.074,1.274 -1.074,1.847c0,1.032 0.787,1.991 2.363,2.879c1.575,0.888 3.581,1.375 6.015,1.461c4.154,0.057 7.792,1.132 10.914,3.223Z" style="fill-rule:nonzero;"/><path d="M734.313,117.195c-2.292,0 -4.226,0.788 -5.801,2.364c-1.576,1.575 -2.392,3.537 -2.449,5.886l16.5,0c0,-2.291 -0.803,-4.239 -2.407,-5.843c-1.604,-1.605 -3.552,-2.407 -5.843,-2.407Zm16.5,14.868l-24.75,0l0,2.492c0,2.291 0.802,4.239 2.406,5.843c1.604,1.605 3.552,2.407 5.844,2.407c1.604,0 3.057,-0.416 4.361,-1.246c1.303,-0.831 2.313,-2.077 3.029,-3.739l7.391,3.696c-1.404,3.036 -3.409,5.385 -6.016,7.047c-2.607,1.661 -5.529,2.492 -8.765,2.492c-3.037,0 -5.801,-0.745 -8.293,-2.235c-2.493,-1.489 -4.484,-3.48 -5.973,-5.972c-1.49,-2.493 -2.235,-5.257 -2.235,-8.293l0,-9.11c0.115,-4.669 1.726,-8.558 4.834,-11.666c3.109,-3.108 6.997,-4.719 11.667,-4.834c3.036,0 5.8,0.745 8.292,2.235c2.493,1.489 4.484,3.48 5.973,5.972c1.49,2.493 2.235,5.257 2.235,8.293l0,6.618Z" style="fill-rule:nonzero;"/><path d="M775.563,108.945l8.25,0l0,8.25l-8.25,0c-2.292,0 -4.24,0.802 -5.844,2.407c-1.604,1.604 -2.406,3.552 -2.406,5.843l0,25.18l-8.25,0l0,-41.25l8.25,0l0,5.973c1.203,-1.92 2.499,-3.466 3.888,-4.641c1.389,-1.174 2.843,-1.762 4.361,-1.762Z" style="fill-rule:nonzero;"/><path d="M808.262,109.375l8.55,0l-12.203,41.25l-8.593,0l-12.204,-41.25l8.551,0l7.949,26.898l7.95,-26.898Z" style="fill-rule:nonzero;"/><path d="M837.438,117.195c-2.292,0 -4.226,0.788 -5.801,2.364c-1.576,1.575 -2.392,3.537 -2.449,5.886l16.5,0c0,-2.291 -0.803,-4.239 -2.407,-5.843c-1.604,-1.605 -3.552,-2.407 -5.843,-2.407Zm16.5,14.868l-24.75,0l0,2.492c0,2.291 0.802,4.239 2.406,5.843c1.604,1.605 3.552,2.407 5.844,2.407c1.604,0 3.057,-0.416 4.361,-1.246c1.303,-0.831 2.313,-2.077 3.029,-3.739l7.391,3.696c-1.404,3.036 -3.409,5.385 -6.016,7.047c-2.607,1.661 -5.529,2.492 -8.765,2.492c-3.037,0 -5.801,-0.745 -8.293,-2.235c-2.493,-1.489 -4.484,-3.48 -5.973,-5.972c-1.49,-2.493 -2.235,-5.257 -2.235,-8.293l0,-9.11c0.115,-4.669 1.726,-8.558 4.834,-11.666c3.109,-3.108 6.997,-4.719 11.667,-4.834c3.036,0 5.8,0.745 8.292,2.235c2.493,1.489 4.484,3.48 5.973,5.972c1.49,2.493 2.235,5.257 2.235,8.293l0,6.618Z" style="fill-rule:nonzero;"/><path d="M878.688,108.945l8.25,0l0,8.25l-8.25,0c-2.292,0 -4.24,0.802 -5.844,2.407c-1.604,1.604 -2.406,3.552 -2.406,5.843l0,25.18l-8.25,0l0,-41.25l8.25,0l0,5.973c1.203,-1.92 2.499,-3.466 3.888,-4.641c1.389,-1.174 2.843,-1.762 4.361,-1.762Z" style="fill-rule:nonzero;"/><path d="M899.313,125.875c0,-2.979 -0.223,-5.715 -0.667,-8.207c-0.444,-2.492 -1.009,-4.813 -1.697,-6.961c-0.687,-2.148 -1.389,-4.182 -2.105,-6.102c-0.516,-1.375 -0.989,-2.735 -1.418,-4.082c-0.888,-2.578 -1.676,-5.127 -2.363,-7.648l8.55,0c0.516,1.633 1.06,3.309 1.633,5.027c0.43,1.289 0.888,2.607 1.375,3.953c0.774,2.12 1.54,4.383 2.299,6.79c0.759,2.406 1.389,5.027 1.891,7.863c0.501,2.836 0.752,5.958 0.752,9.367c0,3.409 -0.251,6.531 -0.752,9.367c-0.502,2.836 -1.132,5.457 -1.891,7.863c-0.759,2.407 -1.525,4.67 -2.299,6.79c-0.487,1.346 -0.945,2.664 -1.375,3.953c-0.573,1.718 -1.117,3.394 -1.633,5.027l-8.55,0c0.687,-2.521 1.475,-5.07 2.363,-7.648c0.429,-1.347 0.902,-2.707 1.418,-4.082c0.716,-1.92 1.418,-3.954 2.105,-6.102c0.688,-2.148 1.253,-4.469 1.697,-6.961c0.444,-2.492 0.667,-5.228 0.667,-8.207Z" style="fill-rule:nonzero;"/></svg>